<?xml version="1.0" encoding="UTF-8" standalone="no"?>
<!-- Created with Inkscape (http://www.inkscape.org/) -->

<svg
   width="1308.8055mm"
   height="1308.8055mm"
   viewBox="0 0 1308.8055 1308.8055"
   version="1.1"
   id="svg104852"
   xml:space="preserve"
   xmlns:inkscape="http://www.inkscape.org/namespaces/inkscape"
   xmlns:sodipodi="http://sodipodi.sourceforge.net/DTD/sodipodi-0.dtd"
   xmlns:xlink="http://www.w3.org/1999/xlink"
   xmlns="http://www.w3.org/2000/svg"
   xmlns:svg="http://www.w3.org/2000/svg"><sodipodi:namedview
     id="namedview104854"
     pagecolor="#ffffff"
     bordercolor="#000000"
     borderopacity="0.25"
     inkscape:showpageshadow="2"
     inkscape:pageopacity="0.0"
     inkscape:pagecheckerboard="0"
     inkscape:deskcolor="#d1d1d1"
     inkscape:document-units="mm"
     showgrid="false" /><defs
     id="defs104849"><linearGradient
       inkscape:collect="always"
       id="linearGradient114154"><stop
         style="stop-color:#282340;stop-opacity:1;"
         offset="0"
         id="stop114150" /><stop
         style="stop-color:#4c4766;stop-opacity:1;"
         offset="1"
         id="stop114152" /></linearGradient><linearGradient
       inkscape:collect="always"
       id="linearGradient113724"><stop
         style="stop-color:#8b8675;stop-opacity:1;"
         offset="0"
         id="stop113720" /><stop
         style="stop-color:#c9c4b1;stop-opacity:1;"
         offset="1"
         id="stop113722" /></linearGradient><clipPath
       clipPathUnits="userSpaceOnUse"
       id="clipPath108677"><path
         d="m 11391.1,29960.8 c -23.8,0 -47.8,8.3 -67.1,25.2 -82.7,72 -169.7,141.6 -258.7,206.7 -45,32.9 -55.2,95.7 -23.3,141.2 l 1.1,1.6 c 20,27.4 51.1,41.9 82.6,41.9 20.9,0 42.1,-6.4 60.3,-19.8 93.6,-68.5 185.3,-141.7 272.3,-217.5 39.8,-34.7 46.2,-93.5 16.5,-135.7 -2,-3 -4.2,-5.8 -6.6,-8.5 -20.2,-23.2 -48.6,-35.1 -77.1,-35.1"
         id="path108675" /></clipPath><linearGradient
       x1="0"
       y1="0"
       x2="1"
       y2="0"
       gradientUnits="userSpaceOnUse"
       gradientTransform="matrix(20378.8,21996.1,-21996.1,20378.8,3084.98,1068.6)"
       spreadMethod="pad"
       id="linearGradient108683"><stop
         style="stop-opacity:1;stop-color:#c4d5fd"
         offset="0"
         id="stop108679" /><stop
         style="stop-opacity:1;stop-color:#ceddfc"
         offset="1"
         id="stop108681" /></linearGradient><clipPath
       clipPathUnits="userSpaceOnUse"
       id="clipPath108697"><path
         d="m 5994.11,24111.5 c -25.67,0 -51.38,9.6 -71.24,28.9 -39.77,38.7 -79.41,78.9 -117.8,119.4 -38.78,40.9 -37.2,105.5 3.95,144.5 19.76,18.7 45.02,28 70.25,28 27.09,0 54.14,-10.8 74.25,-32 36.43,-38.5 74.08,-76.6 111.87,-113.3 36.49,-35.5 40.79,-91.6 12.43,-132 -3.08,-4.4 -6.55,-8.6 -10.41,-12.6 -20.04,-20.6 -46.65,-30.9 -73.3,-30.9"
         id="path108695" /></clipPath><clipPath
       clipPathUnits="userSpaceOnUse"
       id="clipPath108713"><path
         d="m 8875.37,22983.9 c -55.2,0 -100.63,44 -102.15,99.5 -1.53,56.4 43,103.4 99.41,104.9 108.02,2.9 217.36,10.4 325.06,22.4 3.83,0.4 7.64,0.6 11.41,0.6 51.39,0 95.66,-38.6 101.44,-90.9 2.88,-25.8 -4.1,-50.4 -17.93,-70 -16.27,-23.2 -42.03,-39.5 -72.36,-42.9 -113.32,-12.6 -228.43,-20.5 -342.09,-23.6 -0.93,0 -1.86,0 -2.79,0 m -542.58,22.5 c -3.74,0 -7.51,0.2 -11.32,0.6 -113.31,12.5 -227.39,30 -339.1,52 -55.37,10.9 -91.44,64.7 -80.52,120.1 9.58,48.6 52.36,82.4 100.21,82.4 6.55,0 13.18,-0.6 19.84,-1.9 106.05,-20.9 214.36,-37.5 322.01,-49.4 56.11,-6.2 96.57,-56.7 90.37,-112.8 -1.97,-17.7 -8.33,-33.8 -17.91,-47.5 -18.68,-26.6 -49.56,-43.5 -83.58,-43.5 m 1410.58,97 c -45.75,0 -87.39,30.9 -99.06,77.3 -13.8,54.8 19.42,110.3 74.19,124 104.81,26.4 209.9,57.6 312.3,92.6 11,3.8 22.2,5.6 33.2,5.6 42.4,0 82.1,-26.7 96.6,-69.1 11,-32.2 5.1,-66.1 -13.1,-92 -12,-17 -29.2,-30.6 -50.4,-37.8 -107.82,-36.9 -218.39,-69.7 -328.72,-97.5 -8.37,-2.1 -16.76,-3.1 -25.01,-3.1 m -2265.92,95.1 c -11.06,0 -22.31,1.8 -33.35,5.6 -107.5,37.1 -214.84,79.3 -319.07,125.4 -51.63,22.8 -74.98,83.2 -52.13,134.8 16.86,38.1 54.34,60.9 93.61,60.9 13.78,0 27.78,-2.8 41.19,-8.7 99.01,-43.9 200.97,-83.9 303.08,-119.1 53.35,-18.4 81.69,-76.6 63.28,-130 -3.2,-9.3 -7.6,-17.8 -12.98,-25.5 -19.14,-27.2 -50.54,-43.4 -83.63,-43.4 m 3086.95,210.4 c -37.4,0 -73.4,20.6 -91.4,56.2 -25.4,50.5 -5,111.9 45.4,137.3 96.8,48.7 192.5,102 284.5,158.4 16.6,10.3 35.1,15.1 53.3,15.1 34.4,0 67.9,-17.3 87.2,-48.7 22,-35.9 19.3,-80 -3.5,-112.3 -7.7,-11.1 -17.9,-20.8 -30.1,-28.3 -96.9,-59.4 -197.7,-115.5 -299.5,-166.8 -14.8,-7.4 -30.5,-10.9 -45.9,-10.9 m -3878.67,164.6 c -18.27,0 -36.76,4.9 -53.46,15.2 -71.37,43.9 -142.28,90.6 -210.71,138.6 -24.8,17.5 -49.3,35.1 -73.59,53 -45.44,33.4 -56.5,97.5 -21.73,142.8 20.02,27.3 50.99,41.7 82.4,41.7 21.03,0 42.25,-6.5 60.5,-19.9 23.06,-16.9 46.39,-33.7 69.94,-50.3 65.08,-45.7 132.43,-90.1 200.3,-131.8 48.08,-29.6 63.07,-92.5 33.49,-140.6 -1.13,-1.8 -2.28,-3.6 -3.47,-5.3 -19.7,-28 -51.33,-43.4 -83.67,-43.4 m 4612.57,312.7 c -29.5,0 -58.8,12.7 -79.1,37.4 -35.8,43.6 -29.4,107.9 14.2,143.8 83.7,68.7 165.3,141.8 242.7,217.1 19.8,19.4 45.6,29 71.3,29 26.6,0 53.2,-10.3 73.2,-30.9 34.9,-35.8 38.2,-90.5 10.5,-130 -3.6,-5.1 -7.7,-10 -12.4,-14.5 -81.5,-79.3 -167.4,-156.3 -255.6,-228.7 -19,-15.6 -42,-23.2 -64.8,-23.2 m 611.1,627.5 c -21.9,0 -44,7 -62.7,21.6 -44.5,34.6 -52.5,98.7 -17.8,143.4 66,84.8 129.4,173.7 189.3,265.3 19.4,29.9 52.2,46.2 85.6,46.2 19.2,0 38.6,-5.3 55.9,-16.6 47.2,-30.9 60.5,-94.2 29.6,-141.5 -25.9,-39.7 -52.4,-78.7 -79.5,-117.2 -38.5,-54.9 -78.8,-109.4 -119.6,-161.8 -20.2,-25.9 -50.3,-39.4 -80.8,-39.4 m 459.9,745.9 c -14.7,0 -29.6,3.2 -43.8,9.9 -50.9,24.2 -72.6,85.1 -48.4,136.1 46.4,97.9 89.3,198.8 127.3,300 15.2,41 54.2,66.3 95.7,66.3 11.9,0 24.1,-2.1 35.9,-6.5 52.8,-19.9 79.5,-78.8 59.7,-131.7 -40,-106.5 -85.1,-212.7 -134,-315.7 -2.5,-5.4 -5.5,-10.4 -8.8,-15.1 -19.3,-27.6 -50.9,-43.3 -83.6,-43.3 m 286.5,828.2 c -7.5,0 -15.1,0.8 -22.6,2.5 -55.1,12.4 -89.7,67.1 -77.2,122.2 23.8,105.6 43.3,213.4 58.1,320.5 7.1,51.2 50.9,88.2 101.1,88.2 4.7,0 9.4,-0.3 14.2,-1 55.9,-7.7 94.9,-59.3 87.2,-115.2 -15.6,-112.8 -36.2,-226.3 -61.2,-337.5 -3.1,-13.4 -8.6,-25.6 -16.1,-36.2 -18.9,-26.9 -50,-43.5 -83.5,-43.5"
         id="path108711" /></clipPath><clipPath
       clipPathUnits="userSpaceOnUse"
       id="clipPath108729"><path
         d="m 12752.6,26961.2 c -56.5,0.1 -102.2,45.8 -102.2,102.2 0,52.6 -1.1,106.1 -3.3,159.2 -2.4,56.5 41.5,104 97.9,106.3 1.4,0.1 2.8,0.1 4.3,0.1 54.5,0 99.7,-43 102,-98 2.3,-55.8 3.5,-112.2 3.5,-167.5 0,-21.9 -6.9,-42.1 -18.6,-58.7 -18.4,-26.3 -49,-43.5 -83.6,-43.6"
         id="path108727" /></clipPath><clipPath
       clipPathUnits="userSpaceOnUse"
       id="clipPath108751"><path
         d="m 15632.3,31282.7 c -18.5,0 -36.9,8.1 -49.4,23.8 -31.8,39.9 -65.3,79.5 -99.5,117.5 -23.3,25.9 -21.4,65.9 4.7,89.1 12.1,10.9 27.2,16.2 42.2,16.2 17.3,0 34.5,-7 46.9,-20.9 35.9,-39.8 71,-81.3 104.4,-123.2 17.9,-22.5 18,-53.3 2.3,-75.6 -3.4,-4.9 -7.4,-9.3 -12.3,-13.2 -11.6,-9.2 -25.5,-13.7 -39.3,-13.7"
         id="path108749" /></clipPath><clipPath
       clipPathUnits="userSpaceOnUse"
       id="clipPath108769"><path
         d="m 15296.1,31633.1 c -14.7,0 -29.4,5.1 -41.4,15.4 -66.5,57.6 -136.7,112.5 -208.7,163.1 -15.2,10.7 -30.5,21.2 -46,31.6 -28.9,19.5 -36.7,58.7 -17.2,87.6 12.5,17.1 33.1,27.4 53.9,27.4 11.7,0 23.3,-3.2 33.7,-10.2 16.3,-10.9 32.3,-21.9 48.2,-33.1 75.5,-53 149.1,-110.6 218.8,-171 24.7,-21.4 28.8,-57.8 10.4,-83.9 -1.3,-1.8 -2.6,-3.5 -4,-5.2 -12.5,-14.3 -30.1,-21.7 -47.7,-21.7"
         id="path108767" /></clipPath><clipPath
       clipPathUnits="userSpaceOnUse"
       id="clipPath108787"><path
         d="m 14752,31998.6 c -9.7,0 -19.4,2.2 -28.5,6.9 -6.4,3.2 -12.7,6.4 -19.1,9.5 35.5,8.6 71.3,17.2 107.1,25.5 -0.9,-2.5 -2,-4.9 -3.2,-7.3 -1.4,-2.8 -3,-5.4 -4.7,-7.8 -12,-17.1 -31.5,-26.8 -51.6,-26.8"
         id="path108785" /></clipPath><clipPath
       clipPathUnits="userSpaceOnUse"
       id="clipPath108805"><path
         d="m 13479.4,26959.6 c -0.5,0 -1,0 -1.5,0 -110.1,2.8 -221,12.4 -329.5,28.4 -34.5,5.1 -58.3,37.2 -53.2,71.7 4.6,31.4 31.6,53.9 62.4,53.9 3,0 6.1,-0.2 9.2,-0.7 103.5,-15.3 209.3,-24.4 314.2,-27 34.9,-0.9 62.4,-29.9 61.5,-64.7 -0.3,-13 -4.5,-24.9 -11.4,-34.7 -11.4,-16.3 -30.4,-26.9 -51.7,-26.9 m 322.8,11.4 c -32.1,0 -59.6,24.4 -62.7,57.1 -3.4,34.6 22,65.5 56.8,68.9 104.1,10 208.9,26.6 311.5,49.1 4.6,1 9.1,1.5 13.6,1.5 29,0 55.1,-20.1 61.6,-49.6 4,-18 -0.2,-35.9 -10,-49.9 -8.8,-12.4 -22.1,-21.8 -38.1,-25.3 -107.5,-23.6 -217.4,-41 -326.5,-51.5 -2.1,-0.2 -4.2,-0.3 -6.2,-0.3 m 629.7,138.7 c -26.1,0 -50.5,16.3 -59.6,42.3 -11.5,32.9 5.7,68.9 38.7,80.4 98.9,34.7 196.7,75.8 290.6,122.2 9,4.4 18.5,6.5 27.9,6.5 23.2,0 45.6,-12.9 56.6,-35.2 10.6,-21.5 7.9,-46 -4.9,-64.3 -5.9,-8.4 -13.9,-15.4 -23.7,-20.3 -98.5,-48.6 -201,-91.6 -304.7,-128 -6.9,-2.4 -14,-3.6 -20.9,-3.6 m 577.9,285.1 c -20.5,0 -40.7,10.1 -52.8,28.6 -19.2,29.1 -11,68.1 18.1,87.4 87.6,57.3 172.6,120.7 252.9,188.4 11.8,10 26.3,14.9 40.7,14.9 17.9,0 35.7,-7.6 48.2,-22.4 18.9,-22.4 19.5,-54.1 3.4,-77 -3,-4.3 -6.7,-8.4 -10.9,-12 -84.1,-71 -173.3,-137.5 -265,-197.6 -10.7,-6.9 -22.7,-10.3 -34.6,-10.3 m 492.2,416.2 c -15.3,0 -30.7,5.6 -42.8,16.8 -25.6,23.7 -26.8,63.6 -3.5,89.3 66.5,71.8 129.6,148.3 187.8,227.5 l 88.5,-92.6 c -57.3,-76.7 -118.9,-150.8 -183.6,-220.7 -12.4,-13.4 -29.4,-20.3 -46.4,-20.3"
         id="path108803" /></clipPath><clipPath
       clipPathUnits="userSpaceOnUse"
       id="clipPath108827"><path
         d="m 23552,4687.6 c -5.6,0 -11.2,0.1 -16.8,0.3 l -274.9,10.1 c -126.9,4.8 -248.1,60.5 -342.4,147.2 -112.1,103.2 -186.1,250.3 -186.1,408.1 v 13459.3 l 1301.3,110.1 V 11365 c -2591.6,-2942.9 -527,-6150.6 -229,-6580.3 3.3,-4.8 7,-9.4 10.9,-13.7 -75.7,-51.3 -165.4,-83.4 -263,-83.4 m 468.4,395.8 c -41.4,268.4 -65.5,660.3 12.7,1132 V 5206.2 c 0,-42.2 -4.3,-83.4 -12.7,-122.8 m -1288.6,16635 v 745.8 l 1301.3,108 v -743.6 l -1301.3,-110.2 m 0,3728.8 v 1132.3 l 1301.3,-201.5 v -822.7 l -1301.3,-108.1 m 1301.3,4042.1 -1301.3,201.6 v 574 l 1301.3,42.5 v -818.1"
         id="path108825" /></clipPath><clipPath
       clipPathUnits="userSpaceOnUse"
       id="clipPath108843"><path
         d="m 24556.4,31207.9 c 0,-423.6 -215.2,-802.7 -539.4,-1025.8 -182.4,-125.6 -399.2,-201.6 -631.3,-208.5 -115.2,-3.4 -226.7,10.2 -331.6,39.1 -79.1,21.6 -154.5,51.7 -225.6,89.4 -17.9,9.8 -35.9,19.5 -53.5,30.4 -331.5,199.7 -551.9,568.7 -551.9,997.4 0,658.3 519.7,1210.7 1162.6,1234.5 645.4,23.8 1170.7,-493.7 1170.7,-1156.5 z"
         id="path108841" /></clipPath><clipPath
       clipPathUnits="userSpaceOnUse"
       id="clipPath108859"><path
         d="m 24020.4,31251.4 c 0,-329.3 -167.3,-624.2 -419.3,-797.5 -141.9,-97.7 -310.4,-156.8 -490.9,-162.2 -89.5,-2.7 -176.2,7.9 -257.8,30.4 -61.5,16.8 -120.1,40.3 -175.4,69.5 -13.9,7.6 -27.9,15.2 -41.5,23.7 -257.8,155.2 -429.2,442.1 -429.2,775.5 0,511.7 404.1,941.2 903.9,959.7 501.8,18.5 910.2,-383.8 910.2,-899.1 z"
         id="path108857" /></clipPath><clipPath
       clipPathUnits="userSpaceOnUse"
       id="clipPath108875"><path
         d="m 26681.3,25968.2 c -1.9,0 -3.9,0.1 -5.8,0.4 l -1192.2,184.7 -1450.2,224.7 -1301.3,201.5 -6524.7,1010.8 c -26,4 -49.9,16.6 -68.4,35.9 l -406.7,425.8 -88.5,92.6 -996.6,1043.3 c -19.5,20.5 -29.8,48.8 -28.1,77.9 l 8.1,144.6 9.1,-4.7 c 0.4,-3.2 1.7,-6.2 4.1,-8.7 l 1560.4,-1580.3 c 21.5,-21.9 49.1,-36.1 79,-40.7 l 10469.8,-1621.9 c 0.5,-0.1 1.1,-0.1 1.6,-0.1 6.4,0 11.2,5.7 11.1,11.8 l 11.7,-15.5 -55.2,-155 c -5.9,-16.4 -20.9,-27.1 -37.2,-27.1 m -923,1786.1 -52.6,83.1 c -13.3,21 -7.9,49.4 12.1,64 l 1460.1,1068.2 -66.7,-211.1 c -1.9,-4.7 -52,-44 -132.8,-105.1 -282.1,-213.4 -938,-693.1 -1220.1,-899.1"
         id="path108873" /></clipPath><clipPath
       clipPathUnits="userSpaceOnUse"
       id="clipPath108891"><path
         d="m 26750.9,26154 c -0.5,0 -1.1,0 -1.6,0.1 L 16279.5,27776 c -29.9,4.6 -57.5,18.8 -79,40.7 L 14640.1,29397 c -2.4,2.5 -3.7,5.5 -4.1,8.7 -0.5,5.5 1.9,11.3 7.1,14.4 l 1987.1,1182.7 c 22.4,13.4 47.6,20.3 73,20.3 7.1,0 14.2,-0.6 21.3,-1.7 l 6007.3,-930.5 1301.3,-201.6 2394.8,-371 759.8,-117.7 c 9.7,-1.5 12.6,-14.7 4.4,-20.6 l -14.2,-10.4 -1460.1,-1068.2 c -20,-14.6 -25.4,-43 -12.1,-64 l 52.6,-83.1 1001.8,-1582.5 c 1.3,-1.9 1.8,-4 1.9,-6 0.1,-6.1 -4.7,-11.8 -11.1,-11.8 m -9760.5,2819.8 c -18.5,0 -34.9,-13.5 -37.9,-32.4 l -35.9,-227.7 c -3.3,-20.8 11.1,-40.5 31.9,-43.8 l 5049.7,-796.8 c 2,-0.3 3.9,-0.5 5.9,-0.5 18.5,0 34.9,13.6 37.9,32.4 l 35.9,227.7 c 3.3,20.8 -11,40.5 -31.9,43.8 l -5049.6,796.8 c -2,0.3 -4,0.5 -6,0.5 m 154,857.8 c -18.5,0 -34.9,-13.5 -37.8,-32.3 L 17068,29555 c -3.3,-20.8 11.1,-40.5 31.9,-43.8 l 5090.4,-803.2 c 2,-0.3 4,-0.5 5.9,-0.5 18.5,0 34.9,13.6 37.9,32.4 l 38.5,244.2 c 3.3,20.8 -11,40.6 -31.8,43.9 l -5090.4,803.2 c -2,0.3 -4,0.4 -6,0.4"
         id="path108889" /></clipPath><clipPath
       clipPathUnits="userSpaceOnUse"
       id="clipPath108915"><path
         d="m 18981.8,22152.8 c -18.3,0 -34.6,11.5 -39.7,28.6 l -45.6,153 14.1,14.6 c -0.6,-6.3 4.2,-12.5 11.1,-12.5 0.4,0 0.7,0 1,0.1 l 11222.9,932.2 c 32,2.6 62.4,14.7 87.1,34.5 l 1783.8,1431.6 c 2.7,2.2 4.3,5.1 4.9,8.1 l 10.2,4 -3.4,-140.1 c -0.7,-28.2 -13.9,-54.9 -36.3,-73.5 l -1211.4,-1004.6 -498.2,-413.2 c -21.2,-17.5 -47.6,-28.2 -75.4,-30.5 l -6173.8,-512.9 -1301.3,-108 -2468.4,-205.1 -1277.9,-106.1 c -1.3,-0.1 -2.5,-0.2 -3.7,-0.2 m 1123.7,1669.4 c -362.4,279.4 -1344.4,1038.1 -1351.6,1059.1 l -56.4,216.4 2.5,0.1 c -1.5,-7.1 0.7,-15 7.5,-20.2 l 1452.8,-1116.2 c 19.8,-15.1 23.1,-43.4 7.4,-62.7 l -62.2,-76.5"
         id="path108913" /></clipPath><clipPath
       clipPathUnits="userSpaceOnUse"
       id="clipPath108931"><path
         d="m 18921.7,22336.5 c -6.9,0 -11.7,6.2 -11.1,12.5 0.3,2 1,4 2.5,5.8 l 1192.4,1467.4 62.2,76.5 c 15.7,19.3 12.4,47.6 -7.4,62.7 l -1452.8,1116.2 c -6.8,5.2 -9,13.1 -7.5,20.2 1.8,8.1 8.3,15.2 18.1,16 l 4013.7,333.4 1301.3,108.1 5333.6,443 543.9,45.2 c 4.5,0.4 9,0.6 13.5,0.6 30.2,0 59.7,-8.4 84.9,-24.3 l 2006.2,-1262.5 c 5.1,-3.2 7.2,-9 6.2,-14.3 -0.6,-3 -2.2,-5.9 -4.9,-8.1 l -1783.8,-1431.6 c -24.7,-19.8 -55.1,-31.9 -87.1,-34.5 l -11222.9,-932.2 c -0.3,-0.1 -0.6,-0.1 -1,-0.1 m 10818,2022.1 c -1,0 -2,-0.1 -3,-0.1 l -5518.2,-431.4 c -21,-1.6 -36.9,-20.2 -35.2,-41.2 l 19.9,-254.8 c 1.6,-20 18.4,-35.3 38.2,-35.3 1,0 2,0 3,0.1 l 5518.2,431.4 c 21.1,1.6 36.9,20.1 35.3,41.2 l -20,254.7 c -1.5,20.1 -18.4,35.4 -38.2,35.4 m -9.1,944.6 c -1,0 -2,-0.1 -3,-0.2 l -5562.7,-434.8 c -21,-1.6 -36.8,-20.2 -35.2,-41.2 l 21.3,-272.8 c 1.6,-20 18.5,-35.4 38.2,-35.4 1,0 2,0.1 3,0.2 l 5562.7,434.8 c 21,1.6 36.9,20.1 35.2,41.2 l -21.3,272.8 c -1.6,20 -18.4,35.4 -38.2,35.4"
         id="path108929" /></clipPath><clipPath
       clipPathUnits="userSpaceOnUse"
       id="clipPath108947"><path
         d="m 24189.2,24518.8 c -19.7,0 -36.6,15.4 -38.2,35.4 l -21.3,272.8 c -1.6,21 14.2,39.6 35.2,41.2 l 5562.7,434.8 c 1,0.1 2,0.2 3,0.2 19.8,0 36.6,-15.4 38.2,-35.4 l 21.3,-272.8 c 1.7,-21.1 -14.2,-39.6 -35.2,-41.2 L 24192.2,24519 c -1,-0.1 -2,-0.2 -3,-0.2"
         id="path108945" /></clipPath><clipPath
       clipPathUnits="userSpaceOnUse"
       id="clipPath108963"><path
         d="m 24241.4,23595.8 c -19.8,0 -36.6,15.3 -38.2,35.3 l -19.9,254.8 c -1.7,21 14.2,39.6 35.2,41.2 l 5518.2,431.4 c 1,0 2,0.1 3,0.1 19.8,0 36.7,-15.3 38.2,-35.4 l 20,-254.7 c 1.6,-21.1 -14.2,-39.6 -35.3,-41.2 l -5518.2,-431.4 c -1,-0.1 -2,-0.1 -3,-0.1"
         id="path108961" /></clipPath><clipPath
       clipPathUnits="userSpaceOnUse"
       id="clipPath108979"><path
         d="m 23777.5,28080 c 0,-219.5 -177.9,-397.4 -397.4,-397.4 -219.4,0 -397.3,177.9 -397.3,397.4 0,219.4 177.9,397.3 397.3,397.3 219.5,0 397.4,-177.9 397.4,-397.3 z"
         id="path108977" /></clipPath><clipPath
       clipPathUnits="userSpaceOnUse"
       id="clipPath108995"><path
         d="m 23651.1,28143.2 c 0,-134.7 -109.2,-243.8 -243.9,-243.8 -134.7,0 -243.8,109.1 -243.8,243.8 0,134.7 109.1,243.8 243.8,243.8 134.7,0 243.9,-109.1 243.9,-243.8 z"
         id="path108993" /></clipPath><clipPath
       clipPathUnits="userSpaceOnUse"
       id="clipPath109011"><path
         d="m 23699.9,24043.9 c 0,-211.4 -171.3,-382.8 -382.7,-382.8 -211.4,0 -382.8,171.4 -382.8,382.8 0,211.3 171.4,382.7 382.8,382.7 211.4,0 382.7,-171.4 382.7,-382.7 z"
         id="path109009" /></clipPath><clipPath
       clipPathUnits="userSpaceOnUse"
       id="clipPath109027"><path
         d="m 23578.1,24104.8 c 0,-129.8 -105.1,-234.9 -234.8,-234.9 -129.7,0 -234.9,105.1 -234.9,234.9 0,129.7 105.2,234.8 234.9,234.8 129.7,0 234.8,-105.1 234.8,-234.8 z"
         id="path109025" /></clipPath><clipPath
       clipPathUnits="userSpaceOnUse"
       id="clipPath109043"><path
         d="m 23738.3,20423.8 c 0,-219.6 -178,-397.6 -397.6,-397.6 -219.6,0 -397.6,178 -397.6,397.6 0,219.6 178,397.6 397.6,397.6 219.6,0 397.6,-178 397.6,-397.6 z"
         id="path109041" /></clipPath><clipPath
       clipPathUnits="userSpaceOnUse"
       id="clipPath109059"><path
         d="m 23611.8,20487 c 0,-134.7 -109.2,-243.9 -244,-243.9 -134.7,0 -244,109.2 -244,243.9 0,134.8 109.3,244 244,244 134.8,0 244,-109.2 244,-244 z"
         id="path109057" /></clipPath><linearGradient
       x1="0"
       y1="0"
       x2="1"
       y2="0"
       gradientUnits="userSpaceOnUse"
       gradientTransform="matrix(25.7536,-1173.23,-1173.23,-25.7536,23347.8,21397.1)"
       spreadMethod="pad"
       id="linearGradient109065"><stop
         style="stop-opacity:1;stop-color:#e1473d"
         offset="0"
         id="stop109061" /><stop
         style="stop-opacity:1;stop-color:#e9605a"
         offset="1"
         id="stop109063" /></linearGradient><clipPath
       clipPathUnits="userSpaceOnUse"
       id="clipPath109075"><path
         d="m 22196.2,28707.5 c -1.9,0 -3.9,0.2 -5.9,0.5 l -5090.4,803.2 c -20.8,3.3 -35.2,23 -31.9,43.8 l 38.6,244.3 c 2.9,18.8 19.3,32.3 37.8,32.3 2,0 4,-0.1 6,-0.4 l 5090.4,-803.2 c 20.8,-3.3 35.1,-23.1 31.8,-43.9 l -38.5,-244.2 c -3,-18.8 -19.4,-32.4 -37.9,-32.4"
         id="path109073" /></clipPath><clipPath
       clipPathUnits="userSpaceOnUse"
       id="clipPath109091"><path
         d="m 22004.1,27872.6 c -2,0 -3.9,0.2 -5.9,0.5 l -5049.7,796.8 c -20.8,3.3 -35.2,23 -31.9,43.8 l 35.9,227.7 c 3,18.9 19.4,32.4 37.9,32.4 2,0 4,-0.2 6,-0.5 l 5049.6,-796.8 c 20.9,-3.3 35.2,-23 31.9,-43.8 L 22042,27905 c -3,-18.8 -19.4,-32.4 -37.9,-32.4"
         id="path109089" /></clipPath><clipPath
       clipPathUnits="userSpaceOnUse"
       id="clipPath109107"><path
         d="m 14847.1,17390 c -3151.1,82.1 -6636.88,-764.3 -6636.88,-764.3 -829.86,-4579.3 -464.75,-9759 -323.47,-11327.8 26.46,-293.7 246.21,-532.3 536.33,-585.6 1628.32,-299.3 3345.52,-117.7 4209.42,13.8 336,51.1 604.7,304.9 676.1,637.2 570.8,2657.1 2201.6,8518.9 2201.6,8518.9 1541.6,176.4 2814.4,608.6 3864.6,1186 -788,931.2 -1152.5,2110 -1309,2806.3 -1117.5,-335.6 -2246.8,-509.8 -3218.7,-484.5 z"
         id="path109105" /></clipPath><clipPath
       clipPathUnits="userSpaceOnUse"
       id="clipPath109123"><path
         d="m 24200.5,21943.2 c -306,376.9 -593.4,360.6 -593.4,360.6 -482.5,-1954.6 -3035.5,-3676.7 -5541.3,-4429.3 156.5,-696.3 521,-1875.1 1309,-2806.3 4168.4,2291.6 4825.7,6875 4825.7,6875 z"
         id="path109121" /></clipPath><linearGradient
       x1="0"
       y1="0"
       x2="1"
       y2="0"
       gradientUnits="userSpaceOnUse"
       gradientTransform="matrix(6095.44,-57.9066,-57.9066,-6095.44,18073.9,18718.5)"
       spreadMethod="pad"
       id="linearGradient109129"><stop
         style="stop-opacity:1;stop-color:#febbba"
         offset="0"
         id="stop109125" /><stop
         style="stop-opacity:1;stop-color:#ff928e"
         offset="1"
         id="stop109127" /></linearGradient><clipPath
       clipPathUnits="userSpaceOnUse"
       id="clipPath109139"><path
         d="m 24124.4,21848.9 c 31.4,-103.3 -345.2,-256.5 -562,166.8 -5.8,201.9 -120.3,1067.9 1.8,1231.2 650.8,869.7 1906.8,1955.7 1906.8,1955.7 208.6,-209.7 33.2,-412.1 33.2,-412.1 l -610.3,-623.7 c 124.3,-229.5 276.6,-423.8 346.2,-700.7 52.7,-209.7 17.1,-433 -90.4,-622.4 -107.9,-190 -254.9,-437 -393.6,-630.1 -262.4,-365.5 -631.7,-364.7 -631.7,-364.7 z"
         id="path109137" /></clipPath><linearGradient
       x1="0"
       y1="0"
       x2="1"
       y2="0"
       gradientUnits="userSpaceOnUse"
       gradientTransform="matrix(-4178.5,-9267.04,9267.04,-4178.5,22820.7,19637)"
       spreadMethod="pad"
       id="linearGradient109145"><stop
         style="stop-opacity:1;stop-color:#febbba"
         offset="0"
         id="stop109141" /><stop
         style="stop-opacity:1;stop-color:#ff928e"
         offset="1"
         id="stop109143" /></linearGradient><clipPath
       clipPathUnits="userSpaceOnUse"
       id="clipPath109155"><path
         d="m 24625.8,23761 -555.1,-461.6 -177.3,-463 485.7,-549.3 c 0,0 173.9,920.5 298.5,1118.9 124.6,198.4 61.9,295.5 -51.8,355 z"
         id="path109153" /></clipPath><linearGradient
       x1="0"
       y1="0"
       x2="1"
       y2="0"
       gradientUnits="userSpaceOnUse"
       gradientTransform="matrix(1731.58,2607.77,2607.77,-1731.58,24178.7,22723.6)"
       spreadMethod="pad"
       id="linearGradient109161"><stop
         style="stop-opacity:1;stop-color:#febbba"
         offset="0"
         id="stop109157" /><stop
         style="stop-opacity:1;stop-color:#ff928e"
         offset="1"
         id="stop109159" /></linearGradient><clipPath
       clipPathUnits="userSpaceOnUse"
       id="clipPath109171"><path
         d="m 9389.91,13562.6 -1179.69,3063.1 c 0,0 -2962.82,-1972 -3471.13,-4503.3 555.84,-46.3 1566.58,-200.7 2552.51,-710.3 229.12,1195.3 2098.31,2150.5 2098.31,2150.5 z"
         id="path109169" /></clipPath><clipPath
       clipPathUnits="userSpaceOnUse"
       id="clipPath109187"><path
         d="m 11935,10666.5 c 0,0 -3322.88,-1836.3 -4422.85,-230.7 -228.36,333.4 -280.59,663 -220.55,976.3 -985.93,509.6 -1996.67,664 -2552.51,710.3 -153.24,-763.2 -83.85,-1577 357.55,-2403.1 1919.34,-3592 7267.96,128.2 7267.96,128.2 z"
         id="path109185" /></clipPath><linearGradient
       x1="0"
       y1="0"
       x2="1"
       y2="0"
       gradientUnits="userSpaceOnUse"
       gradientTransform="matrix(7713.59,-73.2791,-73.2791,-7713.59,4653.26,10154)"
       spreadMethod="pad"
       id="linearGradient109193"><stop
         style="stop-opacity:1;stop-color:#febbba"
         offset="0"
         id="stop109189" /><stop
         style="stop-opacity:1;stop-color:#ff928e"
         offset="1"
         id="stop109191" /></linearGradient><clipPath
       clipPathUnits="userSpaceOnUse"
       id="clipPath109203"><path
         d="m 11679.2,19979 -1030.5,-2890.4 c -17,-47.8 2.2,-101.2 46.5,-126.3 271.9,-153.7 1252.5,-599.9 2446.5,141.2 124.4,77.2 209.8,204.2 229.9,349.2 l 348.7,2506.9 z"
         id="path109201" /></clipPath><linearGradient
       x1="0"
       y1="0"
       x2="1"
       y2="0"
       gradientUnits="userSpaceOnUse"
       gradientTransform="matrix(3049.83,-28.9733,-28.9733,-3049.83,10654.8,18343.8)"
       spreadMethod="pad"
       id="linearGradient109209"><stop
         style="stop-opacity:1;stop-color:#febbba"
         offset="0"
         id="stop109205" /><stop
         style="stop-opacity:1;stop-color:#ff928e"
         offset="1"
         id="stop109207" /></linearGradient><clipPath
       clipPathUnits="userSpaceOnUse"
       id="clipPath109219"><path
         d="m 13886.7,22643.7 c 0,0 1081.4,-2083.3 932.3,-2919.3 -149.2,-836 -1513.3,-762.8 -2698.5,-71.4 l -811.4,2246.1 z"
         id="path109217" /></clipPath><linearGradient
       x1="0"
       y1="0"
       x2="1"
       y2="0"
       gradientUnits="userSpaceOnUse"
       gradientTransform="matrix(-3333.75,2077.02,2077.02,3333.75,14448.5,20248.1)"
       spreadMethod="pad"
       id="linearGradient109225"><stop
         style="stop-opacity:1;stop-color:#febbba"
         offset="0"
         id="stop109221" /><stop
         style="stop-opacity:1;stop-color:#ff928e"
         offset="1"
         id="stop109223" /></linearGradient><clipPath
       clipPathUnits="userSpaceOnUse"
       id="clipPath109235"><path
         d="m 12183.6,20751.6 c 48.7,21 67.1,80.1 38.5,124.7 -86.9,135.6 -249.7,412.2 -300.1,653.4 0,0 -196.8,128.6 506.6,289.9 703.4,161.3 1752.4,412.1 1978.1,1007.3 220,580.4 -329.5,2050.4 -1239.7,892 -34.6,-44.1 -101.6,-44.5 -135.4,0.3 -145.5,193.2 -529.2,595.1 -1069.4,358.8 -505.6,-221 -565.8,-589.4 -560.7,-775.4 1.5,-54.7 -47.8,-96.8 -101.4,-86 -254.1,51 -864.5,98.5 -1155.5,-525.4 -239.78,-513.8 -89.9,-807.4 47.7,-951.6 44.6,-46.7 24.1,-122.8 -37.8,-141.1 -167.8,-49.6 -385.12,-189.4 -367.25,-581.5 24.73,-542.1 630.95,-500.1 803.65,-477 28.3,3.7 56.7,-6.3 75.6,-27.6 146.3,-165.1 805.9,-866.3 1526.2,-956.9 62.4,-7.9 111.4,53.3 91.5,113 l -303.4,910.1 c -14.1,42.3 6.5,88.3 47.4,106 z"
         id="path109233" /></clipPath><clipPath
       clipPathUnits="userSpaceOnUse"
       id="clipPath109251"><path
         d="m 12307.8,20621.7 c 0,0 -778.8,545.4 -840.5,92.9 -61.5,-452.4 699.8,-662.9 1079.5,-497.6 z"
         id="path109249" /></clipPath><linearGradient
       x1="0"
       y1="0"
       x2="1"
       y2="0"
       gradientUnits="userSpaceOnUse"
       gradientTransform="matrix(-2999.43,1868.73,1868.73,2999.43,13560.5,19493.8)"
       spreadMethod="pad"
       id="linearGradient109257"><stop
         style="stop-opacity:1;stop-color:#febbba"
         offset="0"
         id="stop109253" /><stop
         style="stop-opacity:1;stop-color:#ff928e"
         offset="1"
         id="stop109255" /></linearGradient><clipPath
       clipPathUnits="userSpaceOnUse"
       id="clipPath109267"><path
         d="m 11255.9,7764.4 1810.1,6321.4 c 20.6,71.7 81.8,124 155.9,132.7 328,38.2 1278.3,145.7 2375.5,238.5 1321.7,111.8 2856.5,202.4 3773.7,125.3 130.3,-10.9 209.1,-148.9 151.1,-266.2 C 19000.7,13261 16855.4,8968.8 15781,7562.7 c -35.6,-46.5 -90.6,-73.8 -149.2,-73.2 l -4199.8,39 c -122.2,1.2 -209.7,118.4 -176.1,235.9 z"
         id="path109265" /></clipPath><clipPath
       clipPathUnits="userSpaceOnUse"
       id="clipPath109283"><path
         d="m 11693.3,9291.7 c 0,0 -252.2,1036.8 -150.5,1404.6 101.7,367.9 298.8,840.8 955.7,735.7 656.8,-105.1 1431.7,-381.8 1431.7,-381.8 0,0 -39.2,-479.1 -538.4,-324.5 l 309.6,-239.6 c 0,0 -44.3,-383.6 -465.9,-178.7 l 287.9,-317.6 c 0,0 -181.1,-315.1 -491.4,-113 -310.2,202.1 -458.9,-710 -1338.7,-585.1 z"
         id="path109281" /></clipPath><linearGradient
       x1="0"
       y1="0"
       x2="1"
       y2="0"
       gradientUnits="userSpaceOnUse"
       gradientTransform="matrix(2411.55,0,0,-2411.55,11518.6,10363.4)"
       spreadMethod="pad"
       id="linearGradient109289"><stop
         style="stop-opacity:1;stop-color:#febbba"
         offset="0"
         id="stop109285" /><stop
         style="stop-opacity:1;stop-color:#ff928e"
         offset="1"
         id="stop109287" /></linearGradient><linearGradient
       inkscape:collect="always"
       xlink:href="#linearGradient108683"
       id="linearGradient109622"
       gradientUnits="userSpaceOnUse"
       gradientTransform="matrix(20378.8,21996.1,-21996.1,20378.8,3084.98,1068.6)"
       x1="0"
       y1="0"
       x2="1"
       y2="0"
       spreadMethod="pad" /><linearGradient
       inkscape:collect="always"
       xlink:href="#linearGradient113724"
       id="linearGradient113726"
       x1="22731.801"
       y1="17497.5"
       x2="24033.1"
       y2="17497.5"
       gradientUnits="userSpaceOnUse" /><linearGradient
       inkscape:collect="always"
       xlink:href="#linearGradient114154"
       id="linearGradient114156"
       x1="11248.658"
       y1="11050.247"
       x2="19541.549"
       y2="11050.247"
       gradientUnits="userSpaceOnUse" /><linearGradient
       inkscape:collect="always"
       xlink:href="#linearGradient113724"
       id="linearGradient117436"
       gradientUnits="userSpaceOnUse"
       x1="22731.801"
       y1="17497.5"
       x2="24033.1"
       y2="17497.5" /><linearGradient
       inkscape:collect="always"
       xlink:href="#linearGradient113724"
       id="linearGradient117438"
       gradientUnits="userSpaceOnUse"
       x1="22731.801"
       y1="17497.5"
       x2="24033.1"
       y2="17497.5" /><linearGradient
       inkscape:collect="always"
       xlink:href="#linearGradient114154"
       id="linearGradient117440"
       gradientUnits="userSpaceOnUse"
       x1="11248.658"
       y1="11050.247"
       x2="19541.549"
       y2="11050.247" /><linearGradient
       inkscape:collect="always"
       xlink:href="#linearGradient114154"
       id="linearGradient117442"
       gradientUnits="userSpaceOnUse"
       x1="11248.658"
       y1="11050.247"
       x2="19541.549"
       y2="11050.247" /></defs><path
     d="m 171.44365,331.58993 c -0.22154,0 -0.44626,-0.0176 -0.67204,-0.06 -1.95686,-0.37042 -3.2452,-2.25426 -2.8769,-4.21217 0.75459,-4.00756 1.69545,-8.03981 2.79505,-11.98034 0.4445,-1.59102 1.89301,-2.63525 3.46993,-2.63525 0.32138,0 0.6477,0.0423 0.97261,0.13406 1.91734,0.53622 3.03777,2.52236 2.50295,4.44147 -1.04422,3.73945 -1.93675,7.56709 -2.65324,11.37356 -0.0981,0.52211 -0.30374,0.99836 -0.59125,1.40405 -0.66358,0.94545 -1.76001,1.53459 -2.94711,1.53459 m 9.24913,-30.01787 c -0.4819,0 -0.97155,-0.0988 -1.4411,-0.30338 -1.82456,-0.79728 -2.65783,-2.921 -1.86055,-4.74839 1.63301,-3.73592 3.44946,-7.4542 5.39574,-11.049 0.64735,-1.2065 1.88771,-1.88737 3.1683,-1.88737 0.58243,0 1.17298,0.14112 1.72049,0.43745 1.75013,0.94897 2.4003,3.13619 1.45168,4.8895 -1.85032,3.41489 -3.57646,6.94619 -5.12762,10.49867 -0.0991,0.22577 -0.21943,0.43744 -0.35666,0.63147 -0.68121,0.97014 -1.79352,1.53105 -2.95028,1.53105 m 15.68944,-27.22033 c -0.74119,0 -1.48872,-0.22931 -2.13219,-0.70203 -1.58362,-1.16417 -1.94063,-3.37608 -0.81598,-4.97769 l 0.0455,-0.06 c 2.41794,-3.29494 5.00663,-6.52286 7.69126,-9.5885 0.71332,-0.81491 1.71204,-1.23119 2.71569,-1.23119 0.84278,0 1.6891,0.2928 2.37349,0.89253 1.39947,1.22414 1.62419,3.29141 0.57749,4.78014 -0.0734,0.10583 -0.15345,0.20814 -0.23812,0.30691 -2.55129,2.91395 -5.0105,5.97606 -7.30885,9.1052 -0.70591,0.96308 -1.79952,1.47461 -2.9083,1.47461"
     style="fill:#bbe4c4;fill-opacity:1;fill-rule:nonzero;stroke:none;stroke-width:0.0352778"
     id="path108669" /><g
     id="g108671"
     transform="matrix(0.03527778,0,0,-0.03527778,-5.0620426e-6,1308.8056)"
     style="fill:#9bd7a8;fill-opacity:1"><g
       id="g108673"
       clip-path="url(#clipPath108677)"
       style="fill:#9bd7a8;fill-opacity:1"><path
         d="m 11391.1,29960.8 c -23.8,0 -47.8,8.3 -67.1,25.2 -82.7,72 -169.7,141.6 -258.7,206.7 -45,32.9 -55.2,95.7 -23.3,141.2 l 1.1,1.6 c 20,27.4 51.1,41.9 82.6,41.9 20.9,0 42.1,-6.4 60.3,-19.8 93.6,-68.5 185.3,-141.7 272.3,-217.5 39.8,-34.7 46.2,-93.5 16.5,-135.7 -2,-3 -4.2,-5.8 -6.6,-8.5 -20.2,-23.2 -48.6,-35.1 -77.1,-35.1"
         style="fill:#9bd7a8;fill-opacity:1;fill-rule:nonzero;stroke:none"
         id="path108685" /></g></g><path
     d="m 217.69494,251.28006 c -1.01212,0 -2.01789,-0.42333 -2.73086,-1.24883 -1.3021,-1.50636 -1.12712,-3.77825 0.37395,-5.08706 3.08927,-2.667 6.33271,-5.23169 9.64,-7.62353 0.63853,-0.46214 1.3776,-0.68439 2.10997,-0.68439 1.1176,0 2.21968,0.51859 2.92488,1.49578 0.92569,1.27706 0.88971,2.95981 0.0296,4.18395 -0.22401,0.32103 -0.50517,0.60678 -0.83855,0.85019 -3.14008,2.26836 -6.22018,4.70606 -9.15353,7.239 -0.68156,0.58914 -1.52082,0.87489 -2.35549,0.87489 m 158.32388,-17.30022 c -0.57503,0 -1.16064,-0.14111 -1.70744,-0.43392 -3.41842,-1.84503 -6.95325,-3.56305 -10.5022,-5.10469 -1.82386,-0.79375 -2.66347,-2.91748 -1.86972,-4.74487 0.59619,-1.35819 1.91911,-2.16958 3.30906,-2.16958 0.47977,0 0.96661,0.0988 1.4358,0.29986 3.73239,1.62278 7.45067,3.429 11.05253,5.37281 1.75331,0.94544 2.40594,3.13267 1.4605,4.88597 -0.0706,0.127 -0.14464,0.24695 -0.22578,0.36336 -0.68792,0.98072 -1.80269,1.53106 -2.95275,1.53106 m -132.40633,-0.40922 c -1.29328,0 -2.54317,-0.69498 -3.18946,-1.91912 -0.93239,-1.76036 -0.26176,-3.94052 1.49895,-4.87186 3.60751,-1.91205 7.34237,-3.69005 11.09839,-5.28461 0.46002,-0.19755 0.93804,-0.28928 1.40829,-0.28928 1.403,0 2.73685,0.82198 3.32035,2.19781 0.50623,1.18886 0.32243,2.49767 -0.37007,3.48544 -0.37394,0.5327 -0.895,0.97014 -1.53776,1.24178 -3.56905,1.51695 -7.11623,3.20675 -10.54488,5.02003 -0.53763,0.28575 -1.11513,0.41981 -1.68381,0.41981 m 103.28452,-11.32417 c -0.31891,0 -0.64311,-0.0423 -0.9652,-0.13406 -3.73591,-1.03364 -7.56214,-1.91911 -11.37461,-2.63172 -1.95721,-0.36336 -3.24873,-2.24719 -2.88396,-4.20511 0.32526,-1.73214 1.83938,-2.9457 3.5426,-2.9457 0.21872,0 0.44026,0.0212 0.66322,0.0635 4.01496,0.74789 8.0451,1.67923 11.97857,2.76931 1.91911,0.53269 3.04271,2.51883 2.51213,4.43794 -0.1136,0.40923 -0.29281,0.78317 -0.52388,1.11125 -0.67027,0.9525 -1.77376,1.53459 -2.94887,1.53459 m -74.06922,-0.18697 c -1.59033,0 -3.04624,-1.05834 -3.48016,-2.667 -0.51928,-1.92264 0.61983,-3.90173 2.54318,-4.42031 3.94652,-1.06539 7.9823,-1.97203 11.99162,-2.69875 0.21731,-0.0388 0.43357,-0.0564 0.647,-0.0564 1.70956,0 3.22756,1.22061 3.54259,2.96333 0.17886,0.98778 -0.0628,1.95439 -0.59796,2.71639 -0.52599,0.74789 -1.33597,1.29822 -2.30787,1.47108 -3.81035,0.69145 -7.64575,1.55222 -11.3979,2.56822 -0.31397,0.0847 -0.63006,0.12348 -0.9405,0.12348 m 43.04171,-4.74134 c -0.054,0 -0.1083,0 -0.16263,-0.004 -2.03165,-0.0917 -4.07776,-0.13758 -6.12211,-0.13758 -1.85843,0 -3.7151,0.0388 -5.55942,0.11289 -0.0497,0.004 -0.0995,0.004 -0.14852,0.004 -1.9244,0 -3.52249,-1.52047 -3.60151,-3.45722 -0.079,-1.98967 1.46826,-3.66889 3.45581,-3.75003 1.94169,-0.0811 3.89679,-0.11995 5.85223,-0.11995 2.15336,0 4.30707,0.0494 6.44561,0.14464 1.98896,0.0882 3.52989,1.77447 3.44064,3.76414 -0.0321,0.70908 -0.26811,1.36525 -0.64947,1.90853 -0.65581,0.93133 -1.73884,1.53458 -2.95063,1.53458"
     style="fill:#bbe4c4;fill-opacity:1;fill-rule:nonzero;stroke:none;stroke-width:0.0352778"
     id="path108687" /><path
     d="m 169.02783,356.7959 c -0.006,0 -0.0131,0 -0.0198,0 -1.99037,-0.0106 -3.59692,-1.63336 -3.58739,-3.62303 0.01,-1.95791 0.06,-3.94405 0.15028,-5.90903 0.0847,-1.93322 1.68169,-3.44311 3.59727,-3.44311 0.0557,0 0.11183,0.004 0.16828,0.004 1.98861,0.0917 3.52813,1.778 3.43747,3.76767 -0.0843,1.86972 -0.133,3.75708 -0.14182,5.61622 -0.003,0.76553 -0.24518,1.47108 -0.65335,2.05317 -0.65263,0.9278 -1.73108,1.53458 -2.95098,1.53458"
     style="fill:#bbe4c4;fill-opacity:1;fill-rule:nonzero;stroke:none;stroke-width:0.0352778"
     id="path108689" /><g
     id="g108691"
     transform="matrix(0.03527778,0,0,-0.03527778,-5.0620426e-6,1308.8056)"
     style="fill:#9bd7a8;fill-opacity:1"><g
       id="g108693"
       clip-path="url(#clipPath108697)"
       style="fill:#9bd7a8;fill-opacity:1"><path
         d="m 5994.11,24111.5 c -25.67,0 -51.38,9.6 -71.24,28.9 -39.77,38.7 -79.41,78.9 -117.8,119.4 -38.78,40.9 -37.2,105.5 3.95,144.5 19.76,18.7 45.02,28 70.25,28 27.09,0 54.14,-10.8 74.25,-32 36.43,-38.5 74.08,-76.6 111.87,-113.3 36.49,-35.5 40.79,-91.6 12.43,-132 -3.08,-4.4 -6.55,-8.6 -10.41,-12.6 -20.04,-20.6 -46.65,-30.9 -73.3,-30.9"
         style="fill:#9bd7a8;fill-opacity:1;fill-rule:nonzero;stroke:none"
         id="path108705" /></g></g><g
     id="g108707"
     transform="matrix(0.03527778,0,0,-0.03527778,-5.0620426e-6,1308.8056)"
     style="fill:#9bd7a8;fill-opacity:1"><g
       id="g108709"
       clip-path="url(#clipPath108713)"
       style="fill:#9bd7a8;fill-opacity:1"><path
         d="m 8875.37,22983.9 c -55.2,0 -100.63,44 -102.15,99.5 -1.53,56.4 43,103.4 99.41,104.9 108.02,2.9 217.36,10.4 325.06,22.4 3.83,0.4 7.64,0.6 11.41,0.6 51.39,0 95.66,-38.6 101.44,-90.9 2.88,-25.8 -4.1,-50.4 -17.93,-70 -16.27,-23.2 -42.03,-39.5 -72.36,-42.9 -113.32,-12.6 -228.43,-20.5 -342.09,-23.6 -0.93,0 -1.86,0 -2.79,0 m -542.58,22.5 c -3.74,0 -7.51,0.2 -11.32,0.6 -113.31,12.5 -227.39,30 -339.1,52 -55.37,10.9 -91.44,64.7 -80.52,120.1 9.58,48.6 52.36,82.4 100.21,82.4 6.55,0 13.18,-0.6 19.84,-1.9 106.05,-20.9 214.36,-37.5 322.01,-49.4 56.11,-6.2 96.57,-56.7 90.37,-112.8 -1.97,-17.7 -8.33,-33.8 -17.91,-47.5 -18.68,-26.6 -49.56,-43.5 -83.58,-43.5 m 1410.58,97 c -45.75,0 -87.39,30.9 -99.06,77.3 -13.8,54.8 19.42,110.3 74.19,124 104.81,26.4 209.9,57.6 312.3,92.6 11,3.8 22.2,5.6 33.2,5.6 42.4,0 82.1,-26.7 96.6,-69.1 11,-32.2 5.1,-66.1 -13.1,-92 -12,-17 -29.2,-30.6 -50.4,-37.8 -107.82,-36.9 -218.39,-69.7 -328.72,-97.5 -8.37,-2.1 -16.76,-3.1 -25.01,-3.1 m -2265.92,95.1 c -11.06,0 -22.31,1.8 -33.35,5.6 -107.5,37.1 -214.84,79.3 -319.07,125.4 -51.63,22.8 -74.98,83.2 -52.13,134.8 16.86,38.1 54.34,60.9 93.61,60.9 13.78,0 27.78,-2.8 41.19,-8.7 99.01,-43.9 200.97,-83.9 303.08,-119.1 53.35,-18.4 81.69,-76.6 63.28,-130 -3.2,-9.3 -7.6,-17.8 -12.98,-25.5 -19.14,-27.2 -50.54,-43.4 -83.63,-43.4 m 3086.95,210.4 c -37.4,0 -73.4,20.6 -91.4,56.2 -25.4,50.5 -5,111.9 45.4,137.3 96.8,48.7 192.5,102 284.5,158.4 16.6,10.3 35.1,15.1 53.3,15.1 34.4,0 67.9,-17.3 87.2,-48.7 22,-35.9 19.3,-80 -3.5,-112.3 -7.7,-11.1 -17.9,-20.8 -30.1,-28.3 -96.9,-59.4 -197.7,-115.5 -299.5,-166.8 -14.8,-7.4 -30.5,-10.9 -45.9,-10.9 m -3878.67,164.6 c -18.27,0 -36.76,4.9 -53.46,15.2 -71.37,43.9 -142.28,90.6 -210.71,138.6 -24.8,17.5 -49.3,35.1 -73.59,53 -45.44,33.4 -56.5,97.5 -21.73,142.8 20.02,27.3 50.99,41.7 82.4,41.7 21.03,0 42.25,-6.5 60.5,-19.9 23.06,-16.9 46.39,-33.7 69.94,-50.3 65.08,-45.7 132.43,-90.1 200.3,-131.8 48.08,-29.6 63.07,-92.5 33.49,-140.6 -1.13,-1.8 -2.28,-3.6 -3.47,-5.3 -19.7,-28 -51.33,-43.4 -83.67,-43.4 m 4612.57,312.7 c -29.5,0 -58.8,12.7 -79.1,37.4 -35.8,43.6 -29.4,107.9 14.2,143.8 83.7,68.7 165.3,141.8 242.7,217.1 19.8,19.4 45.6,29 71.3,29 26.6,0 53.2,-10.3 73.2,-30.9 34.9,-35.8 38.2,-90.5 10.5,-130 -3.6,-5.1 -7.7,-10 -12.4,-14.5 -81.5,-79.3 -167.4,-156.3 -255.6,-228.7 -19,-15.6 -42,-23.2 -64.8,-23.2 m 611.1,627.5 c -21.9,0 -44,7 -62.7,21.6 -44.5,34.6 -52.5,98.7 -17.8,143.4 66,84.8 129.4,173.7 189.3,265.3 19.4,29.9 52.2,46.2 85.6,46.2 19.2,0 38.6,-5.3 55.9,-16.6 47.2,-30.9 60.5,-94.2 29.6,-141.5 -25.9,-39.7 -52.4,-78.7 -79.5,-117.2 -38.5,-54.9 -78.8,-109.4 -119.6,-161.8 -20.2,-25.9 -50.3,-39.4 -80.8,-39.4 m 459.9,745.9 c -14.7,0 -29.6,3.2 -43.8,9.9 -50.9,24.2 -72.6,85.1 -48.4,136.1 46.4,97.9 89.3,198.8 127.3,300 15.2,41 54.2,66.3 95.7,66.3 11.9,0 24.1,-2.1 35.9,-6.5 52.8,-19.9 79.5,-78.8 59.7,-131.7 -40,-106.5 -85.1,-212.7 -134,-315.7 -2.5,-5.4 -5.5,-10.4 -8.8,-15.1 -19.3,-27.6 -50.9,-43.3 -83.6,-43.3 m 286.5,828.2 c -7.5,0 -15.1,0.8 -22.6,2.5 -55.1,12.4 -89.7,67.1 -77.2,122.2 23.8,105.6 43.3,213.4 58.1,320.5 7.1,51.2 50.9,88.2 101.1,88.2 4.7,0 9.4,-0.3 14.2,-1 55.9,-7.7 94.9,-59.3 87.2,-115.2 -15.6,-112.8 -36.2,-226.3 -61.2,-337.5 -3.1,-13.4 -8.6,-25.6 -16.1,-36.2 -18.9,-26.9 -50,-43.5 -83.5,-43.5"
         style="fill:#9bd7a8;fill-opacity:1;fill-rule:nonzero;stroke:none"
         id="path108721" /></g></g><g
     id="g108723"
     transform="matrix(0.03527778,0,0,-0.03527778,-5.0620426e-6,1308.8056)"
     style="fill:#9bd7a8;fill-opacity:1"><g
       id="g108725"
       clip-path="url(#clipPath108729)"
       style="fill:#9bd7a8;fill-opacity:1"><path
         d="m 12752.6,26961.2 c -56.5,0.1 -102.2,45.8 -102.2,102.2 0,52.6 -1.1,106.1 -3.3,159.2 -2.4,56.5 41.5,104 97.9,106.3 1.4,0.1 2.8,0.1 4.3,0.1 54.5,0 99.7,-43 102,-98 2.3,-55.8 3.5,-112.2 3.5,-167.5 0,-21.9 -6.9,-42.1 -18.6,-58.7 -18.4,-26.3 -49,-43.5 -83.6,-43.6"
         style="fill:#9bd7a8;fill-opacity:1;fill-rule:nonzero;stroke:none"
         id="path108737" /></g></g><path
     d="m 409.16579,312.38823 c -0.19402,-0.69497 -0.80786,-1.18533 -1.524,-1.22767 l -20.47522,-1.19238 c -4.62492,-8.38906 -10.62214,-16.10078 -17.88936,-22.7577 l 3.6583,-20.16831 c 0.13053,-0.70908 -0.20461,-1.41816 -0.83255,-1.77094 l -21.45277,-12.04384 c -0.62689,-0.35277 -1.40829,-0.26811 -1.94522,0.20814 l -15.31303,13.62781 c -9.46926,-2.73756 -19.17488,-3.84175 -28.74433,-3.42547 l -11.68047,-16.85925 c -0.40958,-0.58914 -1.14865,-0.85725 -1.8408,-0.6597 l -23.68585,6.64986 c -0.69215,0.19403 -1.18498,0.80786 -1.22661,1.524 l -1.1938,20.47875 c -8.38835,4.62492 -16.09902,10.61862 -22.7577,17.88937 l -20.1683,-3.66184 c -0.70768,-0.127 -1.41852,0.20461 -1.77024,0.83256 l -12.0449,21.45242 c -0.35171,0.62794 -0.2667,1.40758 0.21097,1.94733 l 13.62604,15.31408 c -2.73826,9.46856 -3.84246,19.17348 -3.423,28.74081 l -16.86031,11.68048 c -0.59091,0.40922 -0.85725,1.15005 -0.66252,1.8415 l 6.65268,23.6855 c 0.19438,0.69144 0.80681,1.18533 1.524,1.22766 l 20.47664,1.19239 c 4.62456,8.38906 10.62037,16.10078 17.88865,22.7577 l -3.65971,20.16831 c -0.12877,0.70908 0.20602,1.41816 0.83291,1.77094 l 21.45312,12.04383 c 0.62689,0.35278 1.40794,0.26812 1.94486,-0.20813 l 15.31338,-13.62781 c 9.46926,2.73755 19.17489,3.84175 28.74398,3.42547 l 11.68048,16.85925 c 0.40922,0.58914 1.14829,0.85725 1.84114,0.66322 l 23.68586,-6.65338 c 0.69215,-0.19403 1.18463,-0.80787 1.22625,-1.52401 l 1.1938,-20.47875 c 8.3873,-4.62491 16.09902,-10.61861 22.75946,-17.88583 l 20.16831,3.6583 c 0.70556,0.127 1.41817,-0.20461 1.76742,-0.83255 l 12.04383,-21.45242 c 0.35278,-0.62794 0.26811,-1.40758 -0.20814,-1.94733 l -13.6278,-15.31056 c 2.74108,-9.47208 3.84175,-19.177 3.42547,-28.74433 l 16.85925,-11.68048 c 0.58914,-0.40922 0.85725,-1.15005 0.66322,-1.8415 l -6.65339,-23.6855"
     style="fill:#68b77a;fill-opacity:1;fill-rule:nonzero;stroke:none;stroke-width:0.0352778"
     id="path108739" /><path
     d="m 289.5399,353.94546 c 0.13441,5.06236 2.23203,9.76841 5.90797,13.25386 7.58578,7.19314 19.61162,6.87564 26.80476,-0.71261 7.19879,-7.58473 6.87458,-19.61092 -0.7119,-26.80406 -7.58578,-7.19314 -19.61163,-6.87564 -26.80512,0.71261 -0.65228,0.68792 -1.24566,1.41464 -1.78082,2.17664 -2.32481,3.30553 -3.52355,7.25664 -3.41489,11.37356 z m 36.89879,16.51353 c -9.38318,9.89188 -25.06556,10.30816 -34.96133,0.9278 -4.7939,-4.5473 -7.53005,-10.68564 -7.70467,-17.28964 -0.17604,-6.604 2.22955,-12.87992 6.77686,-17.67064 9.38318,-9.89542 25.06592,-10.31169 34.96134,-0.93133 9.00183,8.53722 10.15894,22.2885 3.22792,32.15217 -0.68686,0.97719 -1.45451,1.91911 -2.30012,2.81164"
     style="fill:#9bd7a8;fill-opacity:1;fill-rule:nonzero;stroke:none;stroke-width:0.0352778"
     id="path108741" /><path
     d="m 357.67435,388.59529 c 1.18886,-1.69333 2.30011,-3.45722 3.33022,-5.28461 0.32103,-0.57856 0.635,-1.15711 0.94192,-1.74625 1.50283,-2.88925 2.77283,-5.89492 3.78883,-8.96761 0.0141,-0.0423 0.0282,-0.0847 0.0423,-0.127 0.0388,-0.11995 0.0776,-0.23636 0.11642,-0.35631 0.0741,-0.23283 0.14817,-0.46566 0.21872,-0.6985 0.1905,-0.61383 -0.0494,-1.25589 -0.5468,-1.60514 -0.11995,-0.0847 -0.25753,-0.15169 -0.4057,-0.19755 -0.762,-0.23636 -1.56633,0.19403 -1.80269,0.9525 -1.2065,3.91583 -2.84692,7.72936 -4.86834,11.33122 -10.04711,17.89995 -28.24762,28.39509 -47.36324,29.46753 -10.63237,0.5962 -21.54767,-1.72861 -31.502,-7.31661 -1.74554,-0.98072 -3.429,-2.03906 -5.04437,-3.175 -10.87296,-7.6447 -18.72192,-18.70075 -22.36364,-31.66886 -4.18395,-14.89428 -2.31705,-30.52939 5.25709,-44.01962 15.64535,-27.85886 51.0152,-37.78603 78.86348,-22.15092 1.71697,0.96309 3.37891,2.01084 4.97911,3.1362 6.93561,4.87539 12.72857,11.21481 16.93721,18.58433 0.10936,0.18698 0.254,0.34573 0.42333,0.46214 0.44098,0.31045 1.04423,0.35984 1.54517,0.0741 0.69145,-0.39864 0.93133,-1.27706 0.53622,-1.9685 -4.4203,-7.73642 -10.50113,-14.38981 -17.78247,-19.50862 -1.67957,-1.1818 -3.42371,-2.28247 -5.22569,-3.29494 -29.23823,-16.41475 -66.38185,-5.97253 -82.79202,23.25511 -7.95161,14.16403 -9.91093,30.57525 -5.5185,46.21037 3.82305,13.61369 12.06289,25.22361 23.47736,33.24578 1.69616,1.19238 3.46322,2.30363 5.29485,3.33375 14.16403,7.95161 30.5756,9.91305 46.21248,5.52097 13.61651,-3.82411 25.22608,-12.06853 33.25072,-23.48795"
     style="fill:#9bd7a8;fill-opacity:1;fill-rule:nonzero;stroke:none;stroke-width:0.0352778"
     id="path108743" /><g
     id="g108745"
     transform="matrix(0.03527778,0,0,-0.03527778,-5.0620426e-6,1308.8056)"
     style="fill:#9bd7a8;fill-opacity:1"><g
       id="g108747"
       clip-path="url(#clipPath108751)"
       style="fill:#9bd7a8;fill-opacity:1"><path
         d="m 15632.3,31282.7 c -18.5,0 -36.9,8.1 -49.4,23.8 -31.8,39.9 -65.3,79.5 -99.5,117.5 -23.3,25.9 -21.4,65.9 4.7,89.1 12.1,10.9 27.2,16.2 42.2,16.2 17.3,0 34.5,-7 46.9,-20.9 35.9,-39.8 71,-81.3 104.4,-123.2 17.9,-22.5 18,-53.3 2.3,-75.6 -3.4,-4.9 -7.4,-9.3 -12.3,-13.2 -11.6,-9.2 -25.5,-13.7 -39.3,-13.7"
         style="fill:#9bd7a8;fill-opacity:1;fill-rule:nonzero;stroke:none"
         id="path108759" /></g></g><path
     d="m 392.81101,224.09148 c -0.31397,0 -0.635,-0.067 -0.93838,-0.20814 -1.11831,-0.52211 -1.59809,-1.84503 -1.07598,-2.95981 1.43934,-3.0868 3.0727,-6.14539 4.8507,-9.08755 0.26458,-0.44803 0.53975,-0.889 0.81491,-1.32998 0.39864,-0.68086 1.12537,-1.04775 1.86973,-1.04775 0.41275,0 0.82903,0.11289 1.19944,0.34573 1.04422,0.65263 1.3582,2.02847 0.70556,3.06916 -0.26106,0.41275 -0.51859,0.83256 -0.77259,1.25942 -1.70038,2.81517 -3.25966,5.73264 -4.6355,8.6748 -0.0564,0.11995 -0.12347,0.23284 -0.19402,0.33867 -0.42334,0.60325 -1.11125,0.94545 -1.82387,0.94545 m 12.26609,-19.60034 c -0.49389,0 -0.98778,-0.1658 -1.40053,-0.50094 -0.95603,-0.77259 -1.08655,-2.16253 -0.32455,-3.13267 2.49061,-3.06564 5.19288,-6.00075 8.02569,-8.72419 0.43039,-0.41275 0.98778,-0.62089 1.54164,-0.62089 0.58561,0 1.17122,0.2293 1.60867,0.68791 0.74789,0.77964 0.81491,1.96498 0.21519,2.8187 -0.0811,0.11641 -0.17286,0.22578 -0.27869,0.32808 -2.70581,2.59292 -5.28109,5.39397 -7.65528,8.32203 -0.44097,0.53975 -1.08303,0.82197 -1.73214,0.82197"
     style="fill:#bbe4c4;fill-opacity:1;fill-rule:nonzero;stroke:none;stroke-width:0.0352778"
     id="path108761" /><g
     id="g108763"
     transform="matrix(0.03527778,0,0,-0.03527778,-5.0620426e-6,1308.8056)"
     style="fill:#9bd7a8;fill-opacity:1"><g
       id="g108765"
       clip-path="url(#clipPath108769)"
       style="fill:#9bd7a8;fill-opacity:1"><path
         d="m 15296.1,31633.1 c -14.7,0 -29.4,5.1 -41.4,15.4 -66.5,57.6 -136.7,112.5 -208.7,163.1 -15.2,10.7 -30.5,21.2 -46,31.6 -28.9,19.5 -36.7,58.7 -17.2,87.6 12.5,17.1 33.1,27.4 53.9,27.4 11.7,0 23.3,-3.2 33.7,-10.2 16.3,-10.9 32.3,-21.9 48.2,-33.1 75.5,-53 149.1,-110.6 218.8,-171 24.7,-21.4 28.8,-57.8 10.4,-83.9 -1.3,-1.8 -2.6,-3.5 -4,-5.2 -12.5,-14.3 -30.1,-21.7 -47.7,-21.7"
         style="fill:#9bd7a8;fill-opacity:1;fill-rule:nonzero;stroke:none"
         id="path108777" /></g></g><path
     d="m 421.75643,188.48208 c -0.67733,0 -1.34761,-0.31044 -1.78505,-0.89605 -0.73378,-0.98425 -0.5327,-2.3742 0.45155,-3.11503 3.15384,-2.35655 6.49111,-4.53672 9.92011,-6.48405 0.34573,-0.19756 0.7232,-0.29281 1.09714,-0.29281 0.77612,0 1.52753,0.40569 1.93675,1.12536 0.44098,0.77611 0.36689,1.70039 -0.11288,2.38478 -0.18345,0.26105 -0.42334,0.48683 -0.71967,0.65264 -3.26672,1.85914 -6.44878,3.937 -9.45797,6.18066 -0.39864,0.29987 -0.86431,0.4445 -1.32998,0.4445 m 96.98215,-9.09461 c -3.15031,-1.56633 -6.40997,-2.96333 -9.70492,-4.15219 -1.15711,-0.41981 -1.75683,-1.69333 -1.33703,-2.85045 0.32809,-0.90311 1.18181,-1.47108 2.0955,-1.47108 0.25048,0 0.50448,0.0423 0.75495,0.13406 3.70064,1.3335 7.35894,2.91747 10.87967,4.70252 1.00894,0.51506 1.4605,1.69334 1.09008,2.73756 -1.26295,0.29281 -2.52589,0.59619 -3.77825,0.89958"
     style="fill:#bbe4c4;fill-opacity:1;fill-rule:nonzero;stroke:none;stroke-width:0.0352778"
     id="path108779" /><g
     id="g108781"
     transform="matrix(0.03527778,0,0,-0.03527778,-5.0620426e-6,1308.8056)"><g
       id="g108783"
       clip-path="url(#clipPath108787)"><path
         d="m 14752,31998.6 c -9.7,0 -19.4,2.2 -28.5,6.9 -6.4,3.2 -12.7,6.4 -19.1,9.5 35.5,8.6 71.3,17.2 107.1,25.5 -0.9,-2.5 -2,-4.9 -3.2,-7.3 -1.4,-2.8 -3,-5.4 -4.7,-7.8 -12,-17.1 -31.5,-26.8 -51.6,-26.8"
         style="fill:url(#linearGradient109622);fill-opacity:1;fill-rule:nonzero;stroke:none"
         id="path108795" /></g></g><path
     d="m 441.84007,177.05914 c -0.87136,0 -1.70039,-0.51858 -2.05669,-1.37231 -0.47272,-1.13594 0.0635,-2.44122 1.20297,-2.91041 3.63361,-1.51342 7.40481,-2.81517 11.2007,-3.8735 0.19755,-0.0529 0.39864,-0.0811 0.59619,-0.0811 0.9772,0 1.87325,0.64558 2.14489,1.62983 0.18697,0.67028 0.0459,1.35467 -0.32103,1.88031 -0.28575,0.40569 -0.70908,0.71966 -1.22766,0.8643 -3.62303,1.00895 -7.21784,2.25073 -10.68564,3.69006 -0.2787,0.11642 -0.56798,0.17286 -0.85373,0.17286 m 56.82545,-4.94242 c -0.16228,0 -0.32455,-0.0176 -0.49036,-0.0529 -3.66536,-0.82903 -7.41892,-1.43581 -11.16542,-1.8027 -1.22414,-0.11994 -2.11666,-1.21003 -1.99672,-2.43417 0.11289,-1.15358 1.0795,-2.01083 2.21192,-2.01083 0.0741,0 0.14816,0.004 0.22225,0.0141 3.92641,0.38453 7.86694,1.01953 11.70869,1.88736 1.19945,0.27164 1.95439,1.46403 1.68275,2.66348 -0.067,0.2928 -0.18697,0.55738 -0.34925,0.79022 -0.41275,0.58561 -1.09361,0.94544 -1.82386,0.94544 m -34.55458,-1.25236 c -1.08656,0 -2.03553,-0.79375 -2.20134,-1.89794 -0.17991,-1.21356 0.65617,-2.3495 1.87325,-2.53295 3.89114,-0.58208 7.86342,-0.93133 11.811,-1.03364 0.0212,0 0.0388,0 0.06,0 1.20297,0 2.19427,0.96309 2.22602,2.17311 0.0106,0.49389 -0.14111,0.95603 -0.40569,1.3335 -0.39158,0.55739 -1.03364,0.92781 -1.76742,0.94898 -3.76061,0.0952 -7.55297,0.42686 -11.26067,0.98425 -0.11288,0.0176 -0.22577,0.0247 -0.33513,0.0247"
     style="fill:#bbe4c4;fill-opacity:1;fill-rule:nonzero;stroke:none;stroke-width:0.0352778"
     id="path108797" /><g
     id="g108799"
     transform="matrix(0.03527778,0,0,-0.03527778,-5.0620426e-6,1308.8056)"
     style="fill:#9bd7a8;fill-opacity:1"><g
       id="g108801"
       clip-path="url(#clipPath108805)"
       style="fill:#9bd7a8;fill-opacity:1"><path
         d="m 13479.4,26959.6 c -0.5,0 -1,0 -1.5,0 -110.1,2.8 -221,12.4 -329.5,28.4 -34.5,5.1 -58.3,37.2 -53.2,71.7 4.6,31.4 31.6,53.9 62.4,53.9 3,0 6.1,-0.2 9.2,-0.7 103.5,-15.3 209.3,-24.4 314.2,-27 34.9,-0.9 62.4,-29.9 61.5,-64.7 -0.3,-13 -4.5,-24.9 -11.4,-34.7 -11.4,-16.3 -30.4,-26.9 -51.7,-26.9 m 322.8,11.4 c -32.1,0 -59.6,24.4 -62.7,57.1 -3.4,34.6 22,65.5 56.8,68.9 104.1,10 208.9,26.6 311.5,49.1 4.6,1 9.1,1.5 13.6,1.5 29,0 55.1,-20.1 61.6,-49.6 4,-18 -0.2,-35.9 -10,-49.9 -8.8,-12.4 -22.1,-21.8 -38.1,-25.3 -107.5,-23.6 -217.4,-41 -326.5,-51.5 -2.1,-0.2 -4.2,-0.3 -6.2,-0.3 m 629.7,138.7 c -26.1,0 -50.5,16.3 -59.6,42.3 -11.5,32.9 5.7,68.9 38.7,80.4 98.9,34.7 196.7,75.8 290.6,122.2 9,4.4 18.5,6.5 27.9,6.5 23.2,0 45.6,-12.9 56.6,-35.2 10.6,-21.5 7.9,-46 -4.9,-64.3 -5.9,-8.4 -13.9,-15.4 -23.7,-20.3 -98.5,-48.6 -201,-91.6 -304.7,-128 -6.9,-2.4 -14,-3.6 -20.9,-3.6 m 577.9,285.1 c -20.5,0 -40.7,10.1 -52.8,28.6 -19.2,29.1 -11,68.1 18.1,87.4 87.6,57.3 172.6,120.7 252.9,188.4 11.8,10 26.3,14.9 40.7,14.9 17.9,0 35.7,-7.6 48.2,-22.4 18.9,-22.4 19.5,-54.1 3.4,-77 -3,-4.3 -6.7,-8.4 -10.9,-12 -84.1,-71 -173.3,-137.5 -265,-197.6 -10.7,-6.9 -22.7,-10.3 -34.6,-10.3 m 492.2,416.2 c -15.3,0 -30.7,5.6 -42.8,16.8 -25.6,23.7 -26.8,63.6 -3.5,89.3 66.5,71.8 129.6,148.3 187.8,227.5 l 88.5,-92.6 c -57.3,-76.7 -118.9,-150.8 -183.6,-220.7 -12.4,-13.4 -29.4,-20.3 -46.4,-20.3"
         style="fill:#9bd7a8;fill-opacity:1;fill-rule:nonzero;stroke:none"
         id="path108813" /></g></g><path
     d="m 544.69597,233.71878 c -0.13053,-0.46214 -0.53975,-0.79375 -1.01953,-0.81844 l -13.70189,-0.80081 c -3.09386,-5.61269 -7.10494,-10.77383 -11.96975,-15.22942 l 2.44828,-13.49375 c 0.0847,-0.47272 -0.13759,-0.94897 -0.55739,-1.18533 l -14.35453,-8.06097 c -0.4198,-0.23284 -0.94192,-0.17639 -1.30175,0.14111 l -10.24819,9.1193 c -6.33589,-1.83091 -12.83053,-2.57175 -19.23345,-2.28952 l -7.81403,-11.28184 c -0.27517,-0.39864 -0.76905,-0.57502 -1.23472,-0.4445 l -15.84678,4.45206 c -0.46567,0.13053 -0.79375,0.53975 -0.82197,1.01953 l -0.79728,13.70189 c -5.61622,3.09386 -10.77383,7.10494 -15.22942,11.96975 l -13.49728,-2.44828 c -0.47272,-0.0847 -0.94897,0.13758 -1.18533,0.55739 l -8.05744,14.35453 c -0.23637,0.4198 -0.17992,0.94191 0.14111,1.30175 l 9.11578,10.24819 c -1.83092,6.33589 -2.56823,12.83053 -2.28953,19.23345 l -11.28184,7.81403 c -0.39511,0.27516 -0.57502,0.76905 -0.4445,1.23472 l 4.45206,15.8503 c 0.13053,0.46214 0.53975,0.79023 1.01953,0.81845 l 13.70189,0.8008 c 3.09739,5.6127 7.10847,10.77031 11.97328,15.22589 l -2.45181,13.49728 c -0.0847,0.47273 0.13758,0.94898 0.55739,1.18534 l 14.35805,8.05744 c 0.41628,0.23636 0.94192,0.17992 1.29823,-0.14111 l 10.24819,-9.11578 c 6.33589,1.83092 12.83053,2.56822 19.23345,2.28953 l 7.81755,11.28183 c 0.27517,0.39512 0.76906,0.57503 1.2312,0.4445 l 15.85031,-4.45205 c 0.46213,-0.13053 0.79375,-0.53975 0.82197,-1.01953 l 0.79728,-13.70189 c 5.61269,-3.09386 10.77383,-7.10847 15.22941,-11.97328 l 13.49375,2.45181 c 0.47273,0.0847 0.94898,-0.13759 1.18534,-0.55739 l 8.06097,-14.35806 c 0.23283,-0.41628 0.17639,-0.94191 -0.14111,-1.29822 l -9.11931,-10.24819 c 1.83445,-6.33589 2.57175,-12.83053 2.28953,-19.23345 l 11.28183,-7.81756 c 0.39864,-0.27164 0.57503,-0.76905 0.4445,-1.23119 l -4.45205,-15.85031"
     style="fill:#68b77a;fill-opacity:1;fill-rule:nonzero;stroke:none;stroke-width:0.0352778"
     id="path108815" /><path
     d="m 468.80641,270.1819 c 2.40242,2.27894 5.54567,3.48544 8.85472,3.39725 3.30906,-0.0882 6.38528,-1.4605 8.66422,-3.86292 2.27189,-2.40242 3.48192,-5.54567 3.39373,-8.85472 -0.0882,-3.30906 -1.4605,-6.38528 -3.85939,-8.6607 -4.96006,-4.70253 -12.81642,-4.49439 -17.51895,0.46214 -0.42333,0.44803 -0.80786,0.91722 -1.15358,1.40758 -3.47134,4.94242 -2.89278,11.8357 1.61925,16.11137 z m 20.75039,2.59997 c -3.09739,3.26672 -7.27781,5.12939 -11.77925,5.24933 -4.49439,0.11995 -8.77006,-1.52047 -12.03678,-4.61786 -6.73806,-6.38881 -7.02028,-17.05328 -0.63147,-23.81603 6.39233,-6.73805 17.07444,-7.02028 23.8125,-0.63147 3.26672,3.09739 5.12939,7.2778 5.24933,11.77572 0.0988,3.65831 -0.96661,7.16845 -3.03389,10.10709 -0.47625,0.6738 -1.00189,1.32291 -1.58044,1.93322"
     style="fill:#9bd7a8;fill-opacity:1;fill-rule:nonzero;stroke:none;stroke-width:0.0352778"
     id="path108817" /><path
     d="m 511.29497,285.40426 c 0.81139,-1.15359 1.56986,-2.35656 2.27541,-3.60892 1.397,-2.49061 2.54353,-5.12586 3.40784,-7.83872 0.0388,-0.12347 0.0776,-0.24342 0.11641,-0.36689 0.29281,-0.94545 -0.0776,-1.93675 -0.84666,-2.4765 -0.18698,-0.13406 -0.39864,-0.23636 -0.62795,-0.30692 -1.17475,-0.36336 -2.41653,0.29986 -2.78341,1.47109 -0.78317,2.54 -1.84503,5.00944 -3.15031,7.33425 v 0 c -0.0741,0.13052 -0.14817,0.25752 -0.21872,0.381 -3.14678,5.47864 -7.53534,9.96597 -12.77761,13.19036 -2.84692,1.74978 -5.94431,3.12561 -9.23573,4.08164 l -0.0811,0.0247 c -0.0811,0.0212 -0.16227,0.0459 -0.24341,0.067 -9.64495,2.70933 -19.76614,1.50283 -28.49739,-3.40431 -1.13242,-0.63147 -2.21898,-1.31939 -3.26673,-2.05316 -7.03791,-4.94948 -12.11791,-12.10734 -14.478,-20.50345 -2.70933,-9.64142 -1.4993,-19.76261 3.40431,-28.49386 4.90361,-8.7242 12.91519,-15.03539 22.55661,-17.74472 9.64142,-2.70934 19.76261,-1.49931 28.49739,3.4043 1.11125,0.62089 2.18722,1.30175 3.22439,2.02847 4.48734,3.15736 8.23736,7.26017 10.96434,12.02973 0.1658,0.2928 0.39158,0.53622 0.65263,0.71614 0.68087,0.47977 1.60867,0.55386 2.38478,0.11288 1.06539,-0.61383 1.43934,-1.9685 0.8255,-3.04094 -3.048,-5.33753 -7.24253,-9.92717 -12.26608,-13.45847 -1.15711,-0.81492 -2.36009,-1.57339 -3.60539,-2.27189 -9.77195,-5.4857 -21.09259,-6.84036 -31.88406,-3.81 -10.78442,3.03389 -19.75203,10.0718 -25.23419,19.85433 -5.4857,9.76842 -6.84037,21.08906 -3.80648,31.88053 2.63525,9.39095 8.32203,17.399 16.19603,22.93409 1.17122,0.82197 2.38831,1.59102 3.65125,2.30011 18.91948,10.62214 42.6332,4.94947 54.84637,-12.43189"
     style="fill:#9bd7a8;fill-opacity:1;fill-rule:nonzero;stroke:none;stroke-width:0.0352778"
     id="path108819" /><g
     id="g108821"
     transform="matrix(0.03527778,0,0,-0.03527778,-5.0620426e-6,1308.8056)"
     style="fill:url(#linearGradient113726);fill-opacity:1"><g
       id="g108823"
       clip-path="url(#clipPath108827)"
       style="fill:url(#linearGradient117438);fill-opacity:1"><path
         d="m 23552,4687.6 c -5.6,0 -11.2,0.1 -16.8,0.3 l -274.9,10.1 c -126.9,4.8 -248.1,60.5 -342.4,147.2 -112.1,103.2 -186.1,250.3 -186.1,408.1 v 13459.3 l 1301.3,110.1 V 11365 c -2591.6,-2942.9 -527,-6150.6 -229,-6580.3 3.3,-4.8 7,-9.4 10.9,-13.7 -75.7,-51.3 -165.4,-83.4 -263,-83.4 m 468.4,395.8 c -41.4,268.4 -65.5,660.3 12.7,1132 V 5206.2 c 0,-42.2 -4.3,-83.4 -12.7,-122.8 m -1288.6,16635 v 745.8 l 1301.3,108 v -743.6 l -1301.3,-110.2 m 0,3728.8 v 1132.3 l 1301.3,-201.5 v -822.7 l -1301.3,-108.1 m 1301.3,4042.1 -1301.3,201.6 v 574 l 1301.3,42.5 v -818.1"
         style="fill:url(#linearGradient117436);fill-opacity:1;fill-rule:nonzero;stroke:none"
         id="path108835" /></g></g><g
     id="g108837"
     transform="matrix(0.03527778,0,0,-0.03527778,-5.0620426e-6,1308.8056)"
     style="fill:#8b8675;fill-opacity:1"><g
       id="g108839"
       clip-path="url(#clipPath108843)"
       style="fill:#8b8675;fill-opacity:1"><path
         d="m 24556.4,31207.9 c 0,-423.6 -215.2,-802.7 -539.4,-1025.8 -182.4,-125.6 -399.2,-201.6 -631.3,-208.5 -115.2,-3.4 -226.7,10.2 -331.6,39.1 -79.1,21.6 -154.5,51.7 -225.6,89.4 -17.9,9.8 -35.9,19.5 -53.5,30.4 -331.5,199.7 -551.9,568.7 -551.9,997.4 0,658.3 519.7,1210.7 1162.6,1234.5 645.4,23.8 1170.7,-493.7 1170.7,-1156.5"
         style="fill:#8b8675;fill-opacity:1;fill-rule:nonzero;stroke:none"
         id="path108851" /></g></g><g
     id="g108853"
     transform="matrix(0.03527778,0,0,-0.03527778,-5.0620426e-6,1308.8056)"
     style="fill:#c9c4b1;fill-opacity:1"><g
       id="g108855"
       clip-path="url(#clipPath108859)"
       style="fill:#c9c4b1;fill-opacity:1"><path
         d="m 24020.4,31251.4 c 0,-329.3 -167.3,-624.2 -419.3,-797.5 -141.9,-97.7 -310.4,-156.8 -490.9,-162.2 -89.5,-2.7 -176.2,7.9 -257.8,30.4 -61.5,16.8 -120.1,40.3 -175.4,69.5 -13.9,7.6 -27.9,15.2 -41.5,23.7 -257.8,155.2 -429.2,442.1 -429.2,775.5 0,511.7 404.1,941.2 903.9,959.7 501.8,18.5 910.2,-383.8 910.2,-899.1"
         style="fill:#c9c4b1;fill-opacity:1;fill-rule:nonzero;stroke:none"
         id="path108867" /></g></g><g
     id="g108869"
     transform="matrix(0.03527778,0,0,-0.03527778,-5.0620426e-6,1308.8056)"
     style="fill:#282340;fill-opacity:1"><g
       id="g108871"
       clip-path="url(#clipPath108875)"
       style="fill:#282340;fill-opacity:1"><path
         d="m 26681.3,25968.2 c -1.9,0 -3.9,0.1 -5.8,0.4 l -1192.2,184.7 -1450.2,224.7 -1301.3,201.5 -6524.7,1010.8 c -26,4 -49.9,16.6 -68.4,35.9 l -406.7,425.8 -88.5,92.6 -996.6,1043.3 c -19.5,20.5 -29.8,48.8 -28.1,77.9 l 8.1,144.6 9.1,-4.7 c 0.4,-3.2 1.7,-6.2 4.1,-8.7 l 1560.4,-1580.3 c 21.5,-21.9 49.1,-36.1 79,-40.7 l 10469.8,-1621.9 c 0.5,-0.1 1.1,-0.1 1.6,-0.1 6.4,0 11.2,5.7 11.1,11.8 l 11.7,-15.5 -55.2,-155 c -5.9,-16.4 -20.9,-27.1 -37.2,-27.1 m -923,1786.1 -52.6,83.1 c -13.3,21 -7.9,49.4 12.1,64 l 1460.1,1068.2 -66.7,-211.1 c -1.9,-4.7 -52,-44 -132.8,-105.1 -282.1,-213.4 -938,-693.1 -1220.1,-899.1"
         style="fill:#282340;fill-opacity:1;fill-rule:nonzero;stroke:none"
         id="path108883" /></g></g><g
     id="g108885"
     transform="matrix(0.03527778,0,0,-0.03527778,-0.33866506,1309.1443)"
     style="fill:#4c4766;fill-opacity:1"><g
       id="g108887"
       clip-path="url(#clipPath108891)"
       style="fill:#4c4766;fill-opacity:1"><path
         d="m 26750.9,26154 c -0.5,0 -1.1,0 -1.6,0.1 L 16279.5,27776 c -29.9,4.6 -57.5,18.8 -79,40.7 L 14640.1,29397 c -2.4,2.5 -3.7,5.5 -4.1,8.7 -0.5,5.5 1.9,11.3 7.1,14.4 l 1987.1,1182.7 c 22.4,13.4 47.6,20.3 73,20.3 7.1,0 14.2,-0.6 21.3,-1.7 l 6007.3,-930.5 1301.3,-201.6 2394.8,-371 759.8,-117.7 c 9.7,-1.5 12.6,-14.7 4.4,-20.6 l -14.2,-10.4 -1460.1,-1068.2 c -20,-14.6 -25.4,-43 -12.1,-64 l 52.6,-83.1 1001.8,-1582.5 c 1.3,-1.9 1.8,-4 1.9,-6 0.1,-6.1 -4.7,-11.8 -11.1,-11.8 m -9760.5,2819.8 c -18.5,0 -34.9,-13.5 -37.9,-32.4 l -35.9,-227.7 c -3.3,-20.8 11.1,-40.5 31.9,-43.8 l 5049.7,-796.8 c 2,-0.3 3.9,-0.5 5.9,-0.5 18.5,0 34.9,13.6 37.9,32.4 l 35.9,227.7 c 3.3,20.8 -11,40.5 -31.9,43.8 l -5049.6,796.8 c -2,0.3 -4,0.5 -6,0.5 m 154,857.8 c -18.5,0 -34.9,-13.5 -37.8,-32.3 L 17068,29555 c -3.3,-20.8 11.1,-40.5 31.9,-43.8 l 5090.4,-803.2 c 2,-0.3 4,-0.5 5.9,-0.5 18.5,0 34.9,13.6 37.9,32.4 l 38.5,244.2 c 3.3,20.8 -11,40.6 -31.8,43.9 l -5090.4,803.2 c -2,0.3 -4,0.4 -6,0.4"
         style="fill:#4c4766;fill-opacity:1;fill-rule:nonzero;stroke:none"
         id="path108899" /></g></g><path
     d="m 548.11439,616.45095 3.74297,0.91722 53.65045,-54.09495 319.81428,-29.2982 42.6825,-5.33047 c 0.8855,-0.11289 1.6581,0.60678 1.6122,1.49931 l -0.3704,6.97794 c -0.134,0.9525 -40.6964,48.81739 -40.6964,48.81739 l 50.4296,41.03512 -0.5856,5.62328 c -0.071,0.67027 -0.5786,1.18886 -1.2136,1.24177 l -41.1974,3.48545 -320.52332,27.12155 c -0.89959,0.0741 -1.79564,-0.15169 -2.56822,-0.64911 L 550.5803,623.7217 c -0.81844,-0.52564 -1.38641,-1.38995 -1.56633,-2.3742 l -0.89958,-4.89655"
     style="fill:#dc578a;fill-opacity:1;fill-rule:nonzero;stroke:none;stroke-width:0.0352778"
     id="path108901" /><path
     d="m 608.16775,559.02225 360.46484,-30.50117 c 0.7408,-0.0635 1.1853,0.8008 0.7091,1.36878 l -39.6911,47.14875 c -0.5432,0.64558 -0.4903,1.65453 0.1129,2.24014 l 48.6058,47.10642 c 0.2398,0.2293 0.095,0.635 -0.2364,0.66322 l -361.76306,30.607 c -1.03363,0.0882 -2.06727,-0.16228 -2.96333,-0.71614 l -64.74531,-40.14611 c -0.27869,-0.17286 -0.32103,-0.56444 -0.0882,-0.79375 l 56.60319,-55.59073 c 0.81845,-0.80433 1.86973,-1.29116 2.99156,-1.38641"
     style="fill:#e06d9a;fill-opacity:1;fill-rule:nonzero;stroke:none;stroke-width:0.0352778"
     id="path108903" /><path
     d="m 621.23464,597.51031 c -0.69497,0 -1.29117,-0.53975 -1.34761,-1.24531 l -0.7232,-9.25336 c -0.06,-0.74436 0.50095,-1.397 1.24178,-1.45345 l 200.91758,-15.70566 c 0.035,-0.004 0.071,-0.004 0.1058,-0.004 0.695,0 1.2912,0.53975 1.3476,1.2453 l 0.7232,9.25337 c 0.06,0.74083 -0.5009,1.397 -1.2418,1.45344 l -200.91752,15.70567 c -0.0353,0.004 -0.0705,0.004 -0.10583,0.004"
     style="fill:#f5f1e2;fill-opacity:1;fill-rule:nonzero;stroke:none;stroke-width:0.0352778"
     id="path108905" /><path
     d="m 622.98089,629.0945 c -0.69497,0 -1.29117,-0.53975 -1.34761,-1.2453 l -0.67381,-8.636 c -0.06,-0.74437 0.50095,-1.397 1.24178,-1.45345 l 199.31244,-15.58219 c 0.035,0 0.071,-0.004 0.1058,-0.004 0.6985,0 1.2947,0.54328 1.3476,1.24883 l 0.6773,8.636 c 0.057,0.74084 -0.5044,1.39347 -1.2453,1.45345 L 623.08672,629.0905 c -0.0353,0.004 -0.0706,0.004 -0.10583,0.004"
     style="fill:#f5f1e2;fill-opacity:1;fill-rule:nonzero;stroke:none;stroke-width:0.0352778"
     id="path108907" /><g
     id="g108909"
     transform="matrix(0.03527778,0,0,-0.03527778,-5.0620426e-6,1308.8056)"
     style="fill:#30683d;fill-opacity:1"><g
       id="g108911"
       clip-path="url(#clipPath108915)"
       style="fill:#30683d;fill-opacity:1"><path
         d="m 18981.8,22152.8 c -18.3,0 -34.6,11.5 -39.7,28.6 l -45.6,153 14.1,14.6 c -0.6,-6.3 4.2,-12.5 11.1,-12.5 0.4,0 0.7,0 1,0.1 l 11222.9,932.2 c 32,2.6 62.4,14.7 87.1,34.5 l 1783.8,1431.6 c 2.7,2.2 4.3,5.1 4.9,8.1 l 10.2,4 -3.4,-140.1 c -0.7,-28.2 -13.9,-54.9 -36.3,-73.5 l -1211.4,-1004.6 -498.2,-413.2 c -21.2,-17.5 -47.6,-28.2 -75.4,-30.5 l -6173.8,-512.9 -1301.3,-108 -2468.4,-205.1 -1277.9,-106.1 c -1.3,-0.1 -2.5,-0.2 -3.7,-0.2 m 1123.7,1669.4 c -362.4,279.4 -1344.4,1038.1 -1351.6,1059.1 l -56.4,216.4 2.5,0.1 c -1.5,-7.1 0.7,-15 7.5,-20.2 l 1452.8,-1116.2 c 19.8,-15.1 23.1,-43.4 7.4,-62.7 l -62.2,-76.5"
         style="fill:#30683d;fill-opacity:1;fill-rule:nonzero;stroke:none"
         id="path108923" /></g></g><g
     id="g108925"
     transform="matrix(0.03527778,0,0,-0.03527778,-5.0620426e-6,1309.864)"
     style="fill:#4b925b;fill-opacity:1"><g
       id="g108927"
       clip-path="url(#clipPath108931)"
       style="fill:#4b925b;fill-opacity:1"><path
         d="m 18921.7,22336.5 c -6.9,0 -11.7,6.2 -11.1,12.5 0.3,2 1,4 2.5,5.8 l 1192.4,1467.4 62.2,76.5 c 15.7,19.3 12.4,47.6 -7.4,62.7 l -1452.8,1116.2 c -6.8,5.2 -9,13.1 -7.5,20.2 1.8,8.1 8.3,15.2 18.1,16 l 4013.7,333.4 1301.3,108.1 5333.6,443 543.9,45.2 c 4.5,0.4 9,0.6 13.5,0.6 30.2,0 59.7,-8.4 84.9,-24.3 l 2006.2,-1262.5 c 5.1,-3.2 7.2,-9 6.2,-14.3 -0.6,-3 -2.2,-5.9 -4.9,-8.1 l -1783.8,-1431.6 c -24.7,-19.8 -55.1,-31.9 -87.1,-34.5 l -11222.9,-932.2 c -0.3,-0.1 -0.6,-0.1 -1,-0.1 m 10818,2022.1 c -1,0 -2,-0.1 -3,-0.1 l -5518.2,-431.4 c -21,-1.6 -36.9,-20.2 -35.2,-41.2 l 19.9,-254.8 c 1.6,-20 18.4,-35.3 38.2,-35.3 1,0 2,0 3,0.1 l 5518.2,431.4 c 21.1,1.6 36.9,20.1 35.3,41.2 l -20,254.7 c -1.5,20.1 -18.4,35.4 -38.2,35.4 m -9.1,944.6 c -1,0 -2,-0.1 -3,-0.2 l -5562.7,-434.8 c -21,-1.6 -36.8,-20.2 -35.2,-41.2 l 21.3,-272.8 c 1.6,-20 18.5,-35.4 38.2,-35.4 1,0 2,0.1 3,0.2 l 5562.7,434.8 c 21,1.6 36.9,20.1 35.2,41.2 l -21.3,272.8 c -1.6,20 -18.4,35.4 -38.2,35.4"
         style="fill:#4b925b;fill-opacity:1;fill-rule:nonzero;stroke:none"
         id="path108939" /></g></g><g
     id="g108941"
     transform="matrix(0.03534106,1.1235939e-4,1.1539709e-4,-0.03629653,-4.6404551,1332.2724)"
     style="fill:#9bd7a8;fill-opacity:1"><g
       id="g108943"
       clip-path="url(#clipPath108947)"
       style="fill:#9bd7a8;fill-opacity:1"><path
         d="m 24189.2,24518.8 c -19.7,0 -36.6,15.4 -38.2,35.4 l -21.3,272.8 c -1.6,21 14.2,39.6 35.2,41.2 l 5562.7,434.8 c 1,0.1 2,0.2 3,0.2 19.8,0 36.6,-15.4 38.2,-35.4 l 21.3,-272.8 c 1.7,-21.1 -14.2,-39.6 -35.2,-41.2 L 24192.2,24519 c -1,-0.1 -2,-0.2 -3,-0.2"
         style="fill:#9bd7a8;fill-opacity:1;fill-rule:nonzero;stroke:none"
         id="path108955" /></g></g><g
     id="g108957"
     transform="matrix(0.03527776,4.1858234e-5,4.2523879e-5,-0.03583875,-0.30053506,1322.1099)"
     style="fill:#9bd7a8;fill-opacity:1"><g
       id="g108959"
       clip-path="url(#clipPath108963)"
       style="fill:#9bd7a8;fill-opacity:1"><path
         d="m 24241.4,23595.8 c -19.8,0 -36.6,15.3 -38.2,35.3 l -19.9,254.8 c -1.7,21 14.2,39.6 35.2,41.2 l 5518.2,431.4 c 1,0 2,0.1 3,0.1 19.8,0 36.7,-15.3 38.2,-35.4 l 20,-254.7 c 1.6,-21.1 -14.2,-39.6 -35.3,-41.2 l -5518.2,-431.4 c -1,-0.1 -2,-0.1 -3,-0.1"
         style="fill:#9bd7a8;fill-opacity:1;fill-rule:nonzero;stroke:none"
         id="path108971" /></g></g><g
     id="g108973"
     transform="matrix(0.03527778,0,0,-0.03527778,-5.0620426e-6,1308.8056)"
     style="fill:#8b8675;fill-opacity:1"><g
       id="g108975"
       clip-path="url(#clipPath108979)"
       style="fill:#8b8675;fill-opacity:1"><path
         d="m 23777.5,28080 c 0,-219.5 -177.9,-397.4 -397.4,-397.4 -219.4,0 -397.3,177.9 -397.3,397.4 0,219.4 177.9,397.3 397.3,397.3 219.5,0 397.4,-177.9 397.4,-397.3"
         style="fill:#8b8675;fill-opacity:1;fill-rule:nonzero;stroke:none"
         id="path108987" /></g></g><g
     id="g108989"
     transform="matrix(0.03527778,0,0,-0.03527778,-5.0620426e-6,1308.8056)"
     style="fill:#c9c4b1;fill-opacity:1"><g
       id="g108991"
       clip-path="url(#clipPath108995)"
       style="fill:#c9c4b1;fill-opacity:1"><path
         d="m 23651.1,28143.2 c 0,-134.7 -109.2,-243.8 -243.9,-243.8 -134.7,0 -243.8,109.1 -243.8,243.8 0,134.7 109.1,243.8 243.8,243.8 134.7,0 243.9,-109.1 243.9,-243.8"
         style="fill:#c9c4b1;fill-opacity:1;fill-rule:nonzero;stroke:none"
         id="path109003" /></g></g><g
     id="g109005"
     transform="matrix(0.03527778,0,0,-0.03527778,-5.0620426e-6,1308.8056)"
     style="fill:#8b8675;fill-opacity:1"><g
       id="g109007"
       clip-path="url(#clipPath109011)"
       style="fill:#8b8675;fill-opacity:1"><path
         d="m 23699.9,24043.9 c 0,-211.4 -171.3,-382.8 -382.7,-382.8 -211.4,0 -382.8,171.4 -382.8,382.8 0,211.3 171.4,382.7 382.8,382.7 211.4,0 382.7,-171.4 382.7,-382.7"
         style="fill:#8b8675;fill-opacity:1;fill-rule:nonzero;stroke:none"
         id="path109019" /></g></g><g
     id="g109021"
     transform="matrix(0.03527778,0,0,-0.03527778,-5.0620426e-6,1308.8056)"
     style="fill:#c9c4b1;fill-opacity:1"><g
       id="g109023"
       clip-path="url(#clipPath109027)"
       style="fill:#c9c4b1;fill-opacity:1"><path
         d="m 23578.1,24104.8 c 0,-129.8 -105.1,-234.9 -234.8,-234.9 -129.7,0 -234.9,105.1 -234.9,234.9 0,129.7 105.2,234.8 234.9,234.8 129.7,0 234.8,-105.1 234.8,-234.8"
         style="fill:#c9c4b1;fill-opacity:1;fill-rule:nonzero;stroke:none"
         id="path109035" /></g></g><g
     id="g109037"
     transform="matrix(0.03527778,0,0,-0.03527778,-5.0620426e-6,1308.8056)"
     style="fill:#8b8675;fill-opacity:1"><g
       id="g109039"
       clip-path="url(#clipPath109043)"
       style="fill:#8b8675;fill-opacity:1"><path
         d="m 23738.3,20423.8 c 0,-219.6 -178,-397.6 -397.6,-397.6 -219.6,0 -397.6,178 -397.6,397.6 0,219.6 178,397.6 397.6,397.6 219.6,0 397.6,-178 397.6,-397.6"
         style="fill:#8b8675;fill-opacity:1;fill-rule:nonzero;stroke:none"
         id="path109051" /></g></g><g
     id="g109053"
     transform="matrix(0.03527778,0,0,-0.03527778,-5.0620426e-6,1308.8056)"><g
       id="g109055"
       clip-path="url(#clipPath109059)"><path
         d="m 23611.8,20487 c 0,-134.7 -109.2,-243.9 -244,-243.9 -134.7,0 -244,109.2 -244,243.9 0,134.8 109.3,244 244,244 134.8,0 244,-109.2 244,-244"
         style="fill:url(#linearGradient109065);fill-opacity:1;fill-rule:nonzero;stroke:none"
         id="path109067" /></g></g><g
     id="g109069"
     transform="matrix(0.03527778,0,0,-0.03527778,-0.33866506,1309.1443)"
     style="fill:#f5f1e2;fill-opacity:1"><g
       id="g109071"
       clip-path="url(#clipPath109075)"
       style="fill:#f5f1e2;fill-opacity:1"><path
         d="m 22196.2,28707.5 c -1.9,0 -3.9,0.2 -5.9,0.5 l -5090.4,803.2 c -20.8,3.3 -35.2,23 -31.9,43.8 l 38.6,244.3 c 2.9,18.8 19.3,32.3 37.8,32.3 2,0 4,-0.1 6,-0.4 l 5090.4,-803.2 c 20.8,-3.3 35.1,-23.1 31.8,-43.9 l -38.5,-244.2 c -3,-18.8 -19.4,-32.4 -37.9,-32.4"
         style="fill:#f5f1e2;fill-opacity:1;fill-rule:nonzero;stroke:none"
         id="path109083" /></g></g><g
     id="g109085"
     transform="matrix(0.03527778,0,0,-0.03527778,-0.33866506,1309.1443)"
     style="fill:#f5f1e2;fill-opacity:1"><g
       id="g109087"
       clip-path="url(#clipPath109091)"
       style="fill:#f5f1e2;fill-opacity:1"><path
         d="m 22004.1,27872.6 c -2,0 -3.9,0.2 -5.9,0.5 l -5049.7,796.8 c -20.8,3.3 -35.2,23 -31.9,43.8 l 35.9,227.7 c 3,18.9 19.4,32.4 37.9,32.4 2,0 4,-0.2 6,-0.5 l 5049.6,-796.8 c 20.9,-3.3 35.2,-23 31.9,-43.8 L 22042,27905 c -3,-18.8 -19.4,-32.4 -37.9,-32.4"
         style="fill:#f5f1e2;fill-opacity:1;fill-rule:nonzero;stroke:none"
         id="path109099" /></g></g><g
     id="g109101"
     transform="matrix(0.03527778,0,0,-0.03527778,-5.0620426e-6,1308.8056)"
     style="fill:#6053a1;fill-opacity:1"><g
       id="g109103"
       clip-path="url(#clipPath109107)"
       style="fill:#6053a1;fill-opacity:1"><path
         d="m 14847.1,17390 c -3151.1,82.1 -6636.88,-764.3 -6636.88,-764.3 -829.86,-4579.3 -464.75,-9759 -323.47,-11327.8 26.46,-293.7 246.21,-532.3 536.33,-585.6 1628.32,-299.3 3345.52,-117.7 4209.42,13.8 336,51.1 604.7,304.9 676.1,637.2 570.8,2657.1 2201.6,8518.9 2201.6,8518.9 1541.6,176.4 2814.4,608.6 3864.6,1186 -788,931.2 -1152.5,2110 -1309,2806.3 -1117.5,-335.6 -2246.8,-509.8 -3218.7,-484.5"
         style="fill:#6053a1;fill-opacity:1;fill-rule:nonzero;stroke:none"
         id="path109115" /></g></g><g
     id="g109780"
     transform="translate(-220.00001)"><g
       id="g109117"
       transform="matrix(0.03527778,0,0,-0.03527778,214.58153,1308.8056)"><g
         id="g109119"
         clip-path="url(#clipPath109123)"><path
           d="m 24200.5,21943.2 c -306,376.9 -593.4,360.6 -593.4,360.6 -482.5,-1954.6 -3035.5,-3676.7 -5541.3,-4429.3 156.5,-696.3 521,-1875.1 1309,-2806.3 4168.4,2291.6 4825.7,6875 4825.7,6875"
           style="fill:url(#linearGradient109129);fill-opacity:1;fill-rule:nonzero;stroke:none"
           id="path109131" /></g></g><g
       id="g109133"
       transform="matrix(0.03527778,0,0,-0.03527778,214.58153,1308.8056)"><g
         id="g109135"
         clip-path="url(#clipPath109139)"><path
           d="m 24124.4,21848.9 c 31.4,-103.3 -345.2,-256.5 -562,166.8 -5.8,201.9 -120.3,1067.9 1.8,1231.2 650.8,869.7 1906.8,1955.7 1906.8,1955.7 208.6,-209.7 33.2,-412.1 33.2,-412.1 l -610.3,-623.7 c 124.3,-229.5 276.6,-423.8 346.2,-700.7 52.7,-209.7 17.1,-433 -90.4,-622.4 -107.9,-190 -254.9,-437 -393.6,-630.1 -262.4,-365.5 -631.7,-364.7 -631.7,-364.7"
           style="fill:url(#linearGradient109145);fill-opacity:1;fill-rule:nonzero;stroke:none"
           id="path109147" /></g></g><g
       id="g109149"
       transform="matrix(0.03527778,0,0,-0.03527778,214.58153,1308.8056)"><g
         id="g109151"
         clip-path="url(#clipPath109155)"><path
           d="m 24625.8,23761 -555.1,-461.6 -177.3,-463 485.7,-549.3 c 0,0 173.9,920.5 298.5,1118.9 124.6,198.4 61.9,295.5 -51.8,355"
           style="fill:url(#linearGradient109161);fill-opacity:1;fill-rule:nonzero;stroke:none"
           id="path109163" /></g></g></g><g
     id="g109165"
     transform="matrix(0.03527778,0,0,-0.03527778,-5.0620426e-6,1308.8056)"
     style="fill:#6053a1;fill-opacity:1"><g
       id="g109167"
       clip-path="url(#clipPath109171)"
       style="fill:#6053a1;fill-opacity:1"><path
         d="m 9389.91,13562.6 -1179.69,3063.1 c 0,0 -2962.82,-1972 -3471.13,-4503.3 555.84,-46.3 1566.58,-200.7 2552.51,-710.3 229.12,1195.3 2098.31,2150.5 2098.31,2150.5"
         style="fill:#6053a1;fill-opacity:1;fill-rule:nonzero;stroke:none"
         id="path109179" /></g></g><g
     id="g109181"
     transform="matrix(0.03527778,0,0,-0.03527778,-5.0620426e-6,1308.8056)"><g
       id="g109183"
       clip-path="url(#clipPath109187)"><path
         d="m 11935,10666.5 c 0,0 -3322.88,-1836.3 -4422.85,-230.7 -228.36,333.4 -280.59,663 -220.55,976.3 -985.93,509.6 -1996.67,664 -2552.51,710.3 -153.24,-763.2 -83.85,-1577 357.55,-2403.1 1919.34,-3592 7267.96,128.2 7267.96,128.2 l -429.6,819"
         style="fill:url(#linearGradient109193);fill-opacity:1;fill-rule:nonzero;stroke:none"
         id="path109195" /></g></g><g
     id="g109197"
     transform="matrix(0.03527778,0,0,-0.03527778,-5.0620426e-6,1308.8056)"><g
       id="g109199"
       clip-path="url(#clipPath109203)"><path
         d="m 11679.2,19979 -1030.5,-2890.4 c -17,-47.8 2.2,-101.2 46.5,-126.3 271.9,-153.7 1252.5,-599.9 2446.5,141.2 124.4,77.2 209.8,204.2 229.9,349.2 l 348.7,2506.9 -2041.1,19.4"
         style="fill:url(#linearGradient109209);fill-opacity:1;fill-rule:nonzero;stroke:none"
         id="path109211" /></g></g><g
     id="g109213"
     transform="matrix(0.03527778,0,0,-0.03527778,-5.0620426e-6,1308.8056)"><g
       id="g109215"
       clip-path="url(#clipPath109219)"><path
         d="m 13886.7,22643.7 c 0,0 1081.4,-2083.3 932.3,-2919.3 -149.2,-836 -1513.3,-762.8 -2698.5,-71.4 l -811.4,2246.1 2577.6,744.6"
         style="fill:url(#linearGradient109225);fill-opacity:1;fill-rule:nonzero;stroke:none"
         id="path109227" /></g></g><g
     id="g109229"
     transform="matrix(0.03527778,0,0,-0.03527778,-5.0620426e-6,1308.8056)"
     style="fill:#e17f54;fill-opacity:1"><g
       id="g109231"
       clip-path="url(#clipPath109235)"
       style="fill:#e17f54;fill-opacity:1"><path
         d="m 12183.6,20751.6 c 48.7,21 67.1,80.1 38.5,124.7 -86.9,135.6 -249.7,412.2 -300.1,653.4 0,0 -196.8,128.6 506.6,289.9 703.4,161.3 1752.4,412.1 1978.1,1007.3 220,580.4 -329.5,2050.4 -1239.7,892 -34.6,-44.1 -101.6,-44.5 -135.4,0.3 -145.5,193.2 -529.2,595.1 -1069.4,358.8 -505.6,-221 -565.8,-589.4 -560.7,-775.4 1.5,-54.7 -47.8,-96.8 -101.4,-86 -254.1,51 -864.5,98.5 -1155.5,-525.4 -239.78,-513.8 -89.9,-807.4 47.7,-951.6 44.6,-46.7 24.1,-122.8 -37.8,-141.1 -167.8,-49.6 -385.12,-189.4 -367.25,-581.5 24.73,-542.1 630.95,-500.1 803.65,-477 28.3,3.7 56.7,-6.3 75.6,-27.6 146.3,-165.1 805.9,-866.3 1526.2,-956.9 62.4,-7.9 111.4,53.3 91.5,113 l -303.4,910.1 c -14.1,42.3 6.5,88.3 47.4,106 l 155.4,67"
         style="fill:#e17f54;fill-opacity:1;fill-rule:nonzero;stroke:none"
         id="path109243" /></g></g><g
     id="g109245"
     transform="matrix(0.03527778,0,0,-0.03527778,-5.0620426e-6,1308.8056)"><g
       id="g109247"
       clip-path="url(#clipPath109251)"><path
         d="m 12307.8,20621.7 c 0,0 -778.8,545.4 -840.5,92.9 -61.5,-452.4 699.8,-662.9 1079.5,-497.6 l -239,404.7"
         style="fill:url(#linearGradient109257);fill-opacity:1;fill-rule:nonzero;stroke:none"
         id="path109259" /></g></g><g
     id="g109261"
     transform="matrix(0.03527778,0,0,-0.03527778,-5.0620426e-6,1308.8056)"
     style="fill:url(#linearGradient114156);fill-opacity:1"><g
       id="g109263"
       clip-path="url(#clipPath109267)"
       style="fill:url(#linearGradient117442);fill-opacity:1"><path
         d="m 11255.9,7764.4 1810.1,6321.4 c 20.6,71.7 81.8,124 155.9,132.7 328,38.2 1278.3,145.7 2375.5,238.5 1321.7,111.8 2856.5,202.4 3773.7,125.3 130.3,-10.9 209.1,-148.9 151.1,-266.2 C 19000.7,13261 16855.4,8968.8 15781,7562.7 c -35.6,-46.5 -90.6,-73.8 -149.2,-73.2 l -4199.8,39 c -122.2,1.2 -209.7,118.4 -176.1,235.9"
         style="fill:url(#linearGradient117440);fill-opacity:1;fill-rule:nonzero;stroke:none"
         id="path109275" /></g></g><g
     id="g109277"
     transform="matrix(0.03527778,0,0,-0.03527778,-5.0620426e-6,1308.8056)"><g
       id="g109279"
       clip-path="url(#clipPath109283)"><path
         d="m 11693.3,9291.7 c 0,0 -252.2,1036.8 -150.5,1404.6 101.7,367.9 298.8,840.8 955.7,735.7 656.8,-105.1 1431.7,-381.8 1431.7,-381.8 0,0 -39.2,-479.1 -538.4,-324.5 l 309.6,-239.6 c 0,0 -44.3,-383.6 -465.9,-178.7 l 287.9,-317.6 c 0,0 -181.1,-315.1 -491.4,-113 -310.2,202.1 -458.9,-710 -1338.7,-585.1"
         style="fill:url(#linearGradient109289);fill-opacity:1;fill-rule:nonzero;stroke:none"
         id="path109291" /></g></g><path
     d="m 545.98361,865.36743 c 0,10.3505 8.39258,18.74309 18.74661,18.74309 10.35403,0 18.74308,-8.39259 18.74308,-18.74309 0,-10.35403 -8.38905,-18.74661 -18.74308,-18.74661 -10.35403,0 -18.74661,8.39258 -18.74661,18.74661"
     style="fill:#f5f1e2;fill-opacity:1;fill-rule:nonzero;stroke:none;stroke-width:0.0352778"
     id="path109293" /><path
     d="m 468.16435,877.72171 13.00339,-44.10428 c 1.59456,-5.41514 5.94784,-9.48267 11.36298,-10.61156 40.74936,-8.50194 152.28359,-10.30463 153.40542,-10.32227 l -0.0741,-4.98475 c -4.60022,0.0706 -113.13584,1.83091 -154.35087,10.43164 -7.21078,1.50283 -13.00692,6.90033 -15.12359,14.07936 l -13.00339,44.10428 4.78014,1.40758"
     style="fill:#f5f1e2;fill-opacity:1;fill-rule:nonzero;stroke:none;stroke-width:0.0352778"
     id="path109295" /><path
     d="m 842.99079,1142.0616 c -1.3159,-0.2222 -2.4765,-0.956 -3.235,-2.0496 -11.0772,-15.9702 -91.3377,-140.7407 24.2429,-248.74715 109.7245,-102.53134 158.61951,-122.74198 167.02261,-184.77795 0.9808,-7.24253 10.8621,-8.67481 13.8854,-2.01789 22.5954,49.74519 56.5855,165.22348 -70.38981,236.24471 -140.0704,78.34138 -131.706,169.40038 -125.8852,195.38598 0.769,3.4361 -2.1696,6.5476 -5.6409,5.9619"
     style="fill:#68b77a;fill-opacity:1;fill-rule:nonzero;stroke:none;stroke-width:0.0352778"
     id="path109297" /><path
     d="m 859.95939,1144.9262 c -3.1115,-0.5256 -5.5139,-3.0162 -5.8949,-6.1489 -2.6035,-21.3325 -8.121,-100.9156 50.9905,-120.0821 28.3704,-9.1969 53.8797,-2.6811 77.6711,3.8312 30.78341,8.4314 58.69511,16.8593 86.21181,-8.7383 2.5682,-2.3848 6.6816,-0.1023 5.9796,3.3338 -4.9953,24.3593 -25.5552,80.5003 -109.33291,89.2492 -89.6655,9.3663 -100.0407,19.2864 -98.6437,32.0464 0.4303,3.937 -3.0798,7.1684 -6.9815,6.5087"
     style="fill:#9bd7a8;fill-opacity:1;fill-rule:nonzero;stroke:none;stroke-width:0.0352778"
     id="path109299" /><path
     d="m 835.01449,1120.9938 c -0.3704,0 -0.7197,-0.2188 -0.8714,-0.5751 -6.992,-16.8098 -12.0685,-34.5016 -14.5203,-52.6379 -1.263,-9.0559 -1.8451,-18.221 -1.7569,-27.3827 0.1447,-9.1616 0.8961,-18.3268 2.413,-27.3755 2.9528,-18.11163 8.6537,-35.76463 16.6688,-52.28522 8.0151,-16.52764 18.3868,-31.86289 30.3459,-45.76586 11.9874,-13.89239 25.6188,-26.34897 40.5095,-37.07695 7.4507,-5.35869 15.2188,-10.287 23.2975,-14.67555 l 5.9443,-3.24556 c 1.9826,-1.05128 3.9123,-2.19075 5.8384,-3.33375 l 2.8963,-1.70392 2.8434,-1.79564 2.8399,-1.79563 2.7869,-1.87325 c 7.426,-5.01298 14.598,-10.40342 21.3537,-16.29128 6.7592,-5.87728 13.1974,-12.14262 19.0923,-18.89831 5.96551,-6.69572 11.39471,-13.8677 16.33011,-21.37128 4.8824,-7.51064 9.2851,-15.46931 12.5166,-23.77722 l 0.018,-0.0565 c 0.134,-0.33866 0.4586,-0.5468 0.8008,-0.5468 0.1023,0 0.2081,0.0176 0.3104,0.06 0.4163,0.16228 0.6315,0.61736 0.508,1.04069 -1.3335,4.45206 -3.0409,8.67834 -4.9988,12.83053 -1.9403,4.14514 -4.0852,8.19503 -6.3924,12.1532 -2.3036,3.96169 -4.7695,7.83166 -7.44,11.56053 -2.6529,3.73591 -5.4116,7.4048 -8.35731,10.92552 -11.7017,14.14639 -25.5835,26.45128 -40.7177,36.82648 -7.5565,5.17878 -15.5433,9.86014 -23.5443,14.14286 -7.8811,4.24039 -15.4799,9.017 -22.7754,14.22047 -14.5873,10.414 -27.9717,22.54251 -39.7404,36.07153 -11.7793,13.52198 -21.8687,28.50798 -29.8909,44.53115 -8.0327,16.01258 -13.8324,33.16464 -16.9545,50.82826 -3.1362,17.66 -3.5912,35.7893 -1.5451,53.6575 2.0108,17.8893 6.6781,35.4506 13.0598,52.3452 0.187,0.4833 -0.056,1.023 -0.5362,1.21 -0.1094,0.042 -0.2223,0.06 -0.3316,0.06"
     style="fill:#fffef9;fill-opacity:1;fill-rule:nonzero;stroke:none;stroke-width:0.0352778"
     id="path109301" /><path
     d="m 857.92029,1131.189 c -0.2963,0 -0.5679,-0.2011 -0.642,-0.5009 -0.025,-0.099 -0.028,-0.2011 -0.011,-0.2928 0.1482,-0.7444 0.1235,-1.464 0.1199,-2.1943 l 0.011,-2.1837 c 0.018,-1.4534 0.056,-2.9104 0.1059,-4.3639 0.1093,-2.9068 0.2786,-5.8102 0.5115,-8.71 0.4692,-5.7997 1.1712,-11.5853 2.159,-17.325 2.0002,-11.4617 5.0271,-22.8388 10.0436,-33.4398 2.5012,-5.2916 5.5562,-10.354 9.2639,-14.933 3.6901,-4.5897 8.1457,-8.6008 13.1904,-11.7158 5.0588,-3.0762 10.7174,-5.1999 16.5558,-6.1842 2.914,-0.5045 5.8703,-0.7902 8.823,-0.8008 0.3493,-0.01 0.695,-0.011 1.0407,-0.011 2.607,0 5.207,0.1976 7.7858,0.501 2.9386,0.3598 5.775,0.8749 8.6466,1.3582 l 8.5795,1.5169 c 5.7186,1.0407 11.4195,2.1414 17.1133,3.2773 11.3912,2.2578 22.7365,4.7343 34.1207,6.8298 5.69031,1.0336 11.40171,1.9614 17.13441,2.5365 3.2208,0.3175 6.4593,0.5185 9.6837,0.5185 2.5048,0 4.9989,-0.1234 7.4789,-0.4092 5.6656,-0.6138 11.2148,-2.219 16.2172,-4.9318 5.0236,-2.6882 9.4615,-6.4065 13.4056,-10.5692 0.1517,-0.1588 0.3528,-0.2399 0.5574,-0.2399 0.1869,0 0.3739,0.071 0.5221,0.2081 0.3034,0.2858 0.3175,0.7655 0.035,1.0725 -3.9759,4.2968 -8.4985,8.1844 -13.6914,11.0454 -5.1752,2.8822 -10.9643,4.6285 -16.8204,5.3305 -2.6388,0.314 -5.2811,0.4445 -7.9234,0.4445 -3.2314,0 -6.4593,-0.1975 -9.659,-0.5009 -5.8173,-0.568 -11.5747,-1.4888 -17.30031,-2.5118 -11.4476,-2.0744 -22.7929,-4.5191 -34.1736,-6.7416 -11.3629,-2.2225 -22.807,-4.3674 -34.1982,-6.0607 -2.6106,-0.3246 -5.2423,-0.5398 -7.8705,-0.5398 -0.2223,0 -0.441,0 -0.6632,0 -0.063,0 -0.1306,0 -0.1941,0 -2.7834,0 -5.5633,0.2575 -8.3008,0.7126 -5.6092,0.9031 -11.0278,2.8927 -15.8997,5.8067 -4.8542,2.9492 -9.1758,6.7768 -12.7882,11.2077 -3.6301,4.4133 -6.6499,9.3381 -9.1511,14.5098 -5.0306,10.3575 -8.1456,21.59 -10.2411,32.9424 -1.0336,5.6868 -1.7921,11.43 -2.3142,17.1908 -0.2576,2.8822 -0.4551,5.768 -0.5927,8.6572 -0.067,1.4464 -0.1164,2.8893 -0.1482,4.3356 l -0.035,2.1696 c -0.01,0.7197 -0.025,1.4499 0.1552,2.1555 0.092,0.3563 -0.1235,0.7161 -0.4798,0.8079 -0.053,0.014 -0.1094,0.021 -0.1623,0.021"
     style="fill:#fffef9;fill-opacity:1;fill-rule:nonzero;stroke:none;stroke-width:0.0352778"
     id="path109303" /></svg>
