<?xml version="1.0" encoding="iso-8859-1"?>
<!-- Generator: Adobe Illustrator 19.0.0, SVG Export Plug-In . SVG Version: 6.00 Build 0)  -->
<svg version="1.1" id="Capa_1" xmlns="http://www.w3.org/2000/svg" xmlns:xlink="http://www.w3.org/1999/xlink" x="0px" y="0px"
	 viewBox="0 0 482.812 482.812" style="enable-background:new 0 0 482.812 482.812;" xml:space="preserve">
<g>
	<g>
		<path d="M472.143,1.403c-1.891-0.002-3.721,0.667-5.167,1.887c-2.613,2.208-5.248,4.395-7.904,6.56
			C331.984,114.201,175.096,175.599,10.937,185.225l-3.296,0.184c-4.41,0.275-7.761,4.073-7.486,8.483
			c0.121,1.945,0.949,3.779,2.326,5.157l88,88c1.497,1.506,3.532,2.355,5.656,2.36c0.559,0,1.116-0.057,1.664-0.168
			c2.651-0.563,4.837-2.43,5.808-4.96l36.192-94.12l87.536,65.648c3.534,2.652,8.548,1.937,11.2-1.597
			c0.588-0.784,1.027-1.669,1.296-2.611l28.928-101.264l94.824,65.648c3.627,2.523,8.613,1.627,11.135-2.001
			c0.836-1.202,1.326-2.61,1.417-4.071l7.2-115.944l85.224,42.64c2.485,1.225,5.427,1.076,7.776-0.392
			c2.362-1.457,3.8-4.033,3.8-6.808v-120C480.14,4.991,476.561,1.406,472.143,1.403z M93.089,267.049l-66.848-66.848
			c32.86-2.566,65.532-7.145,97.832-13.712L93.089,267.049z M227.641,236.033l-74.664-56c33.847-8.191,67.114-18.613,99.584-31.2
			L227.641,236.033z M361.033,194.761l-82.008-56.8c30.357-13.064,59.868-28.013,88.36-44.76L361.033,194.761z M464.137,116.465
			l-74.12-37.064c25.691-16.268,50.438-33.982,74.12-53.056V116.465z"/>
	</g>
</g>
<g>
	<g>
		<path d="M479.288,368.246c-1.541-1.041-3.396-1.512-5.247-1.333l-3.144,0.304c-157.306,15.573-315.389-20.725-450.144-103.36
			c-2.848-1.717-5.688-3.464-8.52-5.24c-3.749-2.338-8.684-1.193-11.021,2.556c-0.987,1.583-1.389,3.46-1.139,5.308l16.136,120
			c0.587,4.379,4.614,7.453,8.993,6.865c1.315-0.176,2.566-0.677,3.639-1.457l77.896-56.656l21.56,107.776
			c0.862,4.333,5.074,7.147,9.408,6.285c1.31-0.261,2.534-0.845,3.56-1.701l87.408-72.856l36,93.6
			c1.583,4.125,6.21,6.186,10.335,4.603c1.169-0.448,2.216-1.165,3.057-2.091l72.664-79.928l50.496,86.488
			c1.378,2.391,3.891,3.902,6.648,4h0.264c2.654,0,5.135-1.315,6.624-3.512l66.68-98.544
			C483.913,375.691,482.949,370.719,479.288,368.246z M30.281,371.049l-12.112-90.088c25.636,15.249,52.134,29,79.36,41.184
			L30.281,371.049z M141.345,426.657l-18.768-93.856c30.672,12.414,62.136,22.773,94.184,31.008L141.345,426.657z M274.945,450.425
			l-30.808-80.16c30.08,6.503,60.541,11.101,91.2,13.768L274.945,450.425z M408.633,458.425l-42.184-72.32
			c30.76,1.368,61.575,0.802,92.264-1.696L408.633,458.425z"/>
	</g>
</g>
<g>
	<g>
		<path d="M416.137,249.409c-13.255,0-24,10.745-24,24s10.745,24,24,24s24-10.745,24-24S429.391,249.409,416.137,249.409z
			 M416.137,281.409c-4.418,0-8-3.582-8-8s3.582-8,8-8s8,3.582,8,8S420.555,281.409,416.137,281.409z"/>
	</g>
</g>
<g>
	<g>
		<path d="M48.137,417.409c-13.255,0-24,10.745-24,24s10.745,24,24,24s24-10.745,24-24S61.391,417.409,48.137,417.409z
			 M48.137,449.409c-4.418,0-8-3.582-8-8s3.582-8,8-8s8,3.582,8,8S52.555,449.409,48.137,449.409z"/>
	</g>
</g>
<g>
	<g>
		<path d="M112.137,41.409c-13.255,0-24,10.745-24,24s10.745,24,24,24s24-10.745,24-24S125.391,41.409,112.137,41.409z
			 M112.137,73.409c-4.418,0-8-3.582-8-8s3.582-8,8-8s8,3.582,8,8S116.555,73.409,112.137,73.409z"/>
	</g>
</g>
<g>
	<g>
		<rect x="16.136" y="78.096" transform="matrix(0.7071 -0.7071 0.7071 0.7071 -56.1517 43.2541)" width="16" height="22.624"/>
	</g>
</g>
<g>
	<g>
		<rect x="328.137" y="33.409" width="16" height="24"/>
	</g>
</g>
<g>
	<g>
		<rect x="220.824" y="17.41" transform="matrix(0.7071 -0.7071 0.7071 0.7071 50.0237 171.588)" width="22.624" height="16"/>
	</g>
</g>
<g>
	<g>
		<rect x="148.828" y="121.406" transform="matrix(0.7071 -0.7071 0.7071 0.7071 -44.5997 151.138)" width="22.624" height="16"/>
	</g>
</g>
<g>
	<g>
		<rect x="432.142" y="150.098" transform="matrix(0.7071 -0.7071 0.7071 0.7071 14.7798 358.5023)" width="16" height="22.624"/>
	</g>
</g>
<g>
	<g>
		<rect x="288.137" y="225.409" width="16" height="24"/>
	</g>
</g>
<g>
	<g>
		<rect x="332.829" y="313.398" transform="matrix(0.7071 -0.7071 0.7071 0.7071 -126.4664 337.4791)" width="22.624" height="16"/>
	</g>
</g>
<g>
	<g>
		<rect x="152.141" y="270.094" transform="matrix(0.7071 -0.7071 0.7071 0.7071 -152.08 195.6576)" width="16" height="22.624"/>
	</g>
</g>
<g>
	<g>
		<rect x="200.137" y="433.409" width="16" height="24"/>
	</g>
</g>
<g>
	<g>
		<rect x="80.097" y="382.098" transform="matrix(0.7071 -0.7071 0.7071 0.7071 -252.3808 177.5221)" width="16" height="22.624"/>
	</g>
</g>
<g>
	<g>
		<rect x="84.794" y="457.41" transform="matrix(0.7071 -0.7071 0.7071 0.7071 -300.9456 204.2723)" width="22.624" height="16"/>
	</g>
</g>
<g>
	<g>
		<rect x="332.828" y="449.405" transform="matrix(0.7071 -0.7071 0.7071 0.7071 -222.638 377.3137)" width="22.624" height="16"/>
	</g>
</g>
<g>
</g>
<g>
</g>
<g>
</g>
<g>
</g>
<g>
</g>
<g>
</g>
<g>
</g>
<g>
</g>
<g>
</g>
<g>
</g>
<g>
</g>
<g>
</g>
<g>
</g>
<g>
</g>
<g>
</g>
</svg>
