<?xml version="1.0" encoding="UTF-8" standalone="no"?>
<!-- Created with Inkscape (http://www.inkscape.org/) -->

<svg
   width="980.56348mm"
   height="657.35602mm"
   viewBox="0 0 980.56349 657.35602"
   version="1.1"
   id="svg5"
   xml:space="preserve"
   inkscape:version="1.2 (dc2aedaf03, 2022-05-15)"
   sodipodi:docname="drawing.svg"
   xmlns:inkscape="http://www.inkscape.org/namespaces/inkscape"
   xmlns:sodipodi="http://sodipodi.sourceforge.net/DTD/sodipodi-0.dtd"
   xmlns="http://www.w3.org/2000/svg"
   xmlns:svg="http://www.w3.org/2000/svg"><sodipodi:namedview
     id="namedview7"
     pagecolor="#ffffff"
     bordercolor="#000000"
     borderopacity="0.25"
     inkscape:showpageshadow="2"
     inkscape:pageopacity="0.0"
     inkscape:pagecheckerboard="0"
     inkscape:deskcolor="#d1d1d1"
     inkscape:document-units="mm"
     showgrid="false"
     inkscape:zoom="0.1577064"
     inkscape:cx="2070.3028"
     inkscape:cy="-906.74824"
     inkscape:window-width="1920"
     inkscape:window-height="1137"
     inkscape:window-x="1912"
     inkscape:window-y="-8"
     inkscape:window-maximized="1"
     inkscape:current-layer="svg5" /><defs
     id="defs2" /><path
     d="m 239.44205,142.1628 c 0,0 -12.091,-8.2267 -29.772,-1.89048 -17.683,6.33622 -21.656,30.15002 -17.299,49.47653 4.354,19.3265 -19.991,85.31043 -19.991,85.31043 0,0 12.653,17.79543 56.878,10.98348 0,0 32.975,-59.92609 30.526,-102.94798 -2.447,-43.02189 -20.342,-40.93198 -20.342,-40.93198"
     style="fill:#1b3540;fill-opacity:1;fill-rule:nonzero;stroke:none;stroke-width:0.207745"
     id="path60580" /><path
     d="m 253.40205,216.50015 c 16.62,-5.31411 26.791,8.52586 36.314,34.27999 9.521,25.75621 12.724,28.33848 12.724,28.33848 l 36.757,23.61644 -3.054,13.76518 c 0,0 -34.982,-13.6987 -43.44,-22.40945 -8.457,-8.71282 -32.788,-52.84199 -32.788,-52.84199 l -6.513,-24.74865"
     style="fill:#f9a897;fill-opacity:1;fill-rule:nonzero;stroke:none;stroke-width:0.207745"
     id="path60582" /><path
     d="m 172.39705,382.89342 c 0,0 -7.21,36.51948 -6.022,91.49085 0,0 -28.415,41.90215 -4.965,161.45518 h 12.301 c 0,0 10.049,-101.71606 17.738,-129.27965 7.688,-27.56151 36.079,-36.01881 37.616,-119.82102 l -56.668,-3.84536"
     style="fill:#f9a897;fill-opacity:1;fill-rule:nonzero;stroke:none;stroke-width:0.207745"
     id="path60584" /><path
     d="m 116.17905,490.27676 c -7.148,-23.55619 -25.519001,-63.00903 -72.647001,-116.48672 0,0 -2.811,-1.44798 -6.61,0.87253 -4.012,2.45139 -4.012,5.33281 -4.012,5.33281 0,0 23.632,51.49996 38.702,89.23267 5.073,12.7036 17.347,21.04871 31.025001,21.04871 h 13.542"
     style="fill:#f9a897;fill-opacity:1;fill-rule:nonzero;stroke:none;stroke-width:0.207745"
     id="path60586" /><path
     d="m 201.98105,535.8269 c 0,0 0.16,17.57522 -11.372,17.87437 -16.283,0.43834 -16.883,-17.29891 -35.335,-16.72138 -18.452,0.57545 -56.509001,5.18946 -68.618001,-23.64137 -6.251,-14.90154 2.306,-34.02238 -17.875,-48.4378 -20.182,-14.41542 -10.38,-30.56135 0,-39.20977 10.379,-8.62557 -4.475,-18.08419 6.342,-22.48838 2.583,-1.03873 5.12,-0.92239 7.473,-0.13919 1.384,0.48404 2.676,1.15298 3.921,1.98396 5.72,3.80589 9.734,10.42464 9.734,10.42464 30.561001,-83.7025 84.970001,-94.75037 84.970001,-94.75037 l 53.812,18.56824 c 1.29,130.22488 -33.052,196.53705 -33.052,196.53705"
     style="fill:#30683d;fill-opacity:1;fill-rule:nonzero;stroke:none;stroke-width:0.207745"
     id="path60588" /><path
     d="m 253.40205,216.50015 c 0,0 -12.554,4.23592 -30.412,1.52485 -17.855,-2.71315 -23.662,-13.92306 -36.214,-6.706 -18.843,10.83182 -10.026,48.12202 -5.295,67.51085 1.766,7.22745 4.001,26.22156 -0.256,41.89592 0,0 25.092,19.52178 53.81,18.55369 l 15.669,-34.07847 c 0,0 34.074,-40.76993 2.698,-88.70084"
     style="fill:#9bd7a8;fill-opacity:1;fill-rule:nonzero;stroke:none;stroke-width:0.207745"
     id="path60590" /><path
     d="m 221.51805,185.22208 c 0,0 2.087,17.6417 -4.438,33.68792 0,0 9.315,13.75478 18.207,4.70334 0,0 0.814,-16.16671 10.8,-34.45657 6.69,-12.24864 -24.569,-3.93469 -24.569,-3.93469"
     style="fill:#f9a897;fill-opacity:1;fill-rule:nonzero;stroke:none;stroke-width:0.207745"
     id="path60592" /><path
     d="m 207.23905,185.82247 c 0,0 -7.859,-4.97134 -6.972,2.6986 1.029,8.88733 9.696,10.61992 10.62,7.51206 0.923,-3.10579 -3.648,-10.21066 -3.648,-10.21066"
     style="fill:#f9a897;fill-opacity:1;fill-rule:nonzero;stroke:none;stroke-width:0.207745"
     id="path60594" /><path
     d="m 252.32405,176.2018 c 0,0 4.99,-7.8486 7.458,-0.53183 2.861,8.47807 -4.242,13.74025 -6.403,11.32418 -2.158,-2.41607 -1.055,-10.79235 -1.055,-10.79235"
     style="fill:#f9a897;fill-opacity:1;fill-rule:nonzero;stroke:none;stroke-width:0.207745"
     id="path60596" /><path
     d="m 236.09705,212.38681 c -14.255,3.19096 -24.385,-4.31694 -30.636,-32.24201 -3.226,-14.40503 2.125,-24.88161 18.09,-28.45482 15.966,-3.57529 24.668,3.75395 27.894,18.15898 6.719,30.0046 -0.623,39.24093 -15.348,42.53785"
     style="fill:#f9a897;fill-opacity:1;fill-rule:nonzero;stroke:none;stroke-width:0.207745"
     id="path60598" /><path
     d="m 248.95405,180.86567 c 0.57,1.37528 -0.363,3.07047 -2.083,3.78512 -1.723,0.71256 -3.582,0.17658 -4.153,-1.20077 -0.569,-1.37735 0.363,-3.07255 2.086,-3.78511 1.72,-0.71464 3.579,-0.17658 4.15,1.20076"
     style="fill:#f9a897;fill-opacity:1;fill-rule:nonzero;stroke:none;stroke-width:0.207745"
     id="path60600" /><path
     d="m 219.81005,188.20946 c 0.23,1.47291 -1.076,2.90011 -2.917,3.18888 -1.841,0.28669 -3.521,-0.67309 -3.752,-2.146 -0.228,-1.47292 1.076,-2.90012 2.917,-3.18681 1.843,-0.28877 3.521,0.67101 3.752,2.14393"
     style="fill:#f9a897;fill-opacity:1;fill-rule:nonzero;stroke:none;stroke-width:0.207745"
     id="path60602" /><path
     d="m 239.02805,167.85253 c -0.139,0 -0.278,-0.0395 -0.403,-0.12257 -2.437,-1.62664 -5.891,-0.76034 -5.929,-0.75411 -0.397,0.10387 -0.787,-0.13503 -0.889,-0.52559 -0.1,-0.39056 0.135,-0.78736 0.526,-0.88915 0.168,-0.0416 4.128,-1.03249 7.103,0.95562 0.334,0.22229 0.425,0.67518 0.201,1.01172 -0.141,0.20982 -0.372,0.32408 -0.609,0.32408"
     style="fill:#1b3540;fill-opacity:1;fill-rule:nonzero;stroke:none;stroke-width:0.207745"
     id="path60604" /><path
     d="m 212.19005,173.86259 c -0.127,0 -0.258,-0.0332 -0.376,-0.10595 -0.345,-0.20566 -0.457,-0.65439 -0.247,-0.99925 1.842,-3.06631 5.848,-3.8599 6.018,-3.89314 0.388,-0.0623 0.775,0.18282 0.852,0.57961 0.07,0.39472 -0.183,0.77697 -0.58,0.85383 -0.03,0.008 -3.538,0.71257 -5.042,3.21174 -0.135,0.22644 -0.378,0.35316 -0.625,0.35316"
     style="fill:#1b3540;fill-opacity:1;fill-rule:nonzero;stroke:none;stroke-width:0.207745"
     id="path60606" /><path
     d="m 239.65405,175.67413 c 0.394,1.76999 -0.08,3.38416 -1.064,3.6023 -0.985,0.22021 -2.102,-1.03457 -2.499,-2.80456 -0.397,-1.76999 0.08,-3.38416 1.063,-3.60437 0.983,-0.22021 2.103,1.03664 2.5,2.80663"
     style="fill:#000000;fill-opacity:1;fill-rule:nonzero;stroke:none;stroke-width:0.207745"
     id="path60608" /><path
     d="m 219.84905,179.93705 c 0.397,1.76999 -0.08,3.38209 -1.063,3.6023 -0.983,0.22021 -2.103,-1.03457 -2.5,-2.80663 -0.394,-1.76999 0.08,-3.38209 1.064,-3.6023 0.985,-0.22021 2.103,1.03457 2.499,2.80663"
     style="fill:#000000;fill-opacity:1;fill-rule:nonzero;stroke:none;stroke-width:0.207745"
     id="path60610" /><path
     d="m 226.25205,196.69999 c 0,0 9.155,-0.7458 13.19,-4.15282 0,0 -1.11,7.15266 -6.091,7.64917 -4.982,0.49651 -7.099,-3.49635 -7.099,-3.49635"
     style="fill:#ffffff;fill-opacity:1;fill-rule:nonzero;stroke:none;stroke-width:0.207745"
     id="path60612" /><path
     d="m 234.66405,175.86733 c 0,0 0.322,-4.64933 2.104,-4.72204 1.783,-0.0686 3.918,3.37378 3.918,3.37378 l 2.229,-1.9071 -2.455,0.89746 c 0,0 -2.19,-3.60022 -3.885,-3.22836 -2.412,0.52975 -1.911,5.58626 -1.911,5.58626"
     style="fill:#000000;fill-opacity:1;fill-rule:nonzero;stroke:none;stroke-width:0.207745"
     id="path60614" /><path
     d="m 220.94205,179.50079 c 0,0 -2.275,-4.06972 -3.916,-3.37378 -1.643,0.69595 -2.104,4.72204 -2.104,4.72204 l -2.832,-0.77488 2.605,-0.23476 c 0,0 0.445,-4.19021 2.138,-4.57662 2.408,-0.55052 4.109,4.238 4.109,4.238"
     style="fill:#000000;fill-opacity:1;fill-rule:nonzero;stroke:none;stroke-width:0.207745"
     id="path60616" /><path
     d="m 230.87005,188.44213 -0.733,-1.39189 c 1.186,-0.62531 1.286,-1.46876 1.163,-2.06498 -0.174,-0.84345 -0.862,-1.51239 -1.358,-1.55186 -0.285,-0.0145 -0.53,0.22852 -0.721,0.73542 l -1.475,-0.54845 c 0.631,-1.69935 1.828,-1.79076 2.316,-1.75544 1.253,0.0935 2.472,1.32333 2.78,2.79832 0.322,1.54562 -0.416,2.95829 -1.972,3.77888"
     style="fill:#f9a897;fill-opacity:1;fill-rule:nonzero;stroke:none;stroke-width:0.207745"
     id="path60618" /><path
     d="m 208.36705,190.84989 c 0,0 -4.396,-16.17501 -1.786,-27.61345 0,0 12.4,-17.26775 36.334,-8.73152 0,0 7.099,11.43013 10.616,27.42649 0,0 0.893,-5.74623 -1.487,-18.54331 -2.383,-12.79709 -13.737,-20.74749 -29.305,-18.18599 -15.568,2.55942 -32.229,18.04887 -14.372,45.64778"
     style="fill:#1b3540;fill-opacity:1;fill-rule:nonzero;stroke:none;stroke-width:0.207745"
     id="path60620" /><path
     d="m 233.46305,150.91717 c 0,0 0.949,4.22138 -3.158,15.09267 0,0 -2.954,-3.08709 -6.413,0 -3.459,3.08709 -10.485,2.05667 -12.882,3.72486 -2.398,1.66819 -2.398,5.48447 -2.398,5.48447 0,0 -2.077,-4.75113 0,-10.44749 0,0 -4.668,5.93319 -4.049,13.26243 0,0 -6.33,-1.02418 -6.043,-11.46752 0.289,-10.44333 15.134,-27.33922 31.785,-26.24233 16.653,1.09481 20.617,27.4618 20.617,27.4618 0,0 -1.519,-1.19454 -3.895,-0.66271 0,0 -0.368,-5.58418 -4.112,-12.61843 0,0 1.727,5.07729 0,10.55552 0,0 -4.639,-2.43269 -8.295,-1.67234 0,0 2.258,-4.41666 -1.157,-12.47093"
     style="fill:#1b3540;fill-opacity:1;fill-rule:nonzero;stroke:none;stroke-width:0.207745"
     id="path60622" /><path
     d="m 182.54905,214.65123 c 8.106,-6.39024 14.415,1.73674 15.963,12.97782 1.545,11.239 -13.109,77.55117 -24.411,75.10601 -4.362,-0.94316 -6.141,-18.31271 -6.141,-18.31271 0,0 4.42,-18.64511 7.28,-46.70729 1.315,-12.8968 3.083,-19.73368 7.309,-23.06383"
     style="fill:#f9a897;fill-opacity:1;fill-rule:nonzero;stroke:none;stroke-width:0.207745"
     id="path60624" /><path
     d="m 158.96905,293.36369 c -10.911,-10.39971 -30.474,-44.89575 -35.444,-62.46889 l 8.281,-3.33223 c 0,0 24.934,35.6698 36.3,44.66515 11.366,8.99328 15.363,19.01074 10.287,27.58852 -5.077,8.57779 -17.129,-4.265 -19.424,-6.45255"
     style="fill:#f9a897;fill-opacity:1;fill-rule:nonzero;stroke:none;stroke-width:0.207745"
     id="path60626" /><path
     d="m 126.92605,207.8829 c -0.572,11.28054 8.623,13.95422 4.543,22.61303 -0.842,1.78868 -2.122,2.73808 -3.454,3.20966 -2.526,0.8933 -5.334,0.0499 -7.218,-1.85517 -4.37,-4.41665 -11.126,-9.09714 -14.722,-11.14966 -4.09,-2.35791 -1.773,-3.00192 -1.773,-3.00192 -0.396,-0.18697 -0.782,-0.34278 -1.167,-0.49858 -2.918,-1.22154 -5.251001,-1.68274 -3.134,-2.97907 2.379,-1.48122 10.819,1.60172 10.819,1.60172 -10.984001,-7.3147 -13.965001,-5.53225 -11.959001,-7.08618 2.736001,-2.12731 13.178001,2.76716 13.492001,2.91466 -5.804,-5.48862 -10.012,-6.73094 -7.71,-7.55776 2.334,-0.83929 13.815,7.47674 18.006,10.59707 0.945,0.7001 1.522,1.1509 1.522,1.1509 -0.143,-9.22179 2.755,-7.9587 2.755,-7.9587"
     style="fill:#f9a897;fill-opacity:1;fill-rule:nonzero;stroke:none;stroke-width:0.207745"
     id="path60628" /><path
     d="m 122.64905,214.6907 c 0.945,0.7001 1.522,1.1509 1.522,1.1509 0,0 -1.965,3.30522 0.581,7.591 0,0 -4.674,-3.06839 -2.103,-8.7419"
     style="fill:#f9a897;fill-opacity:1;fill-rule:nonzero;stroke:none;stroke-width:0.207745"
     id="path60630" /><path
     d="m 113.01905,221.16818 c -0.971,-0.5339 -6.513,-3.65423 -8.717,-3.46934 -0.396,-0.18697 -0.782,-0.34278 -1.167,-0.49858 1.481,-1.95281 8.782,3.1681 9.884,3.96792"
     style="fill:#f9a897;fill-opacity:1;fill-rule:nonzero;stroke:none;stroke-width:0.207745"
     id="path60632" /><g
     id="g72970"
     transform="translate(-13243.39,776.6952)"><path
       d="m 13399.961,-388.13657 c 0,1.22569 -0.994,2.21871 -2.218,2.21871 -1.224,0 -2.217,-0.99302 -2.217,-2.21871 0,-1.22362 0.993,-2.21664 2.217,-2.21664 1.224,0 2.218,0.99302 2.218,2.21664"
       style="fill:#9bd7a8;fill-opacity:1;fill-rule:nonzero;stroke:none;stroke-width:0.207745"
       id="path60634" /><path
       d="m 13439.515,-372.87563 c 0,1.22361 -0.993,2.21664 -2.217,2.21664 -1.225,0 -2.219,-0.99303 -2.219,-2.21664 0,-1.2257 0.994,-2.21872 2.219,-2.21872 1.224,0 2.217,0.99302 2.217,2.21872"
       style="fill:#9bd7a8;fill-opacity:1;fill-rule:nonzero;stroke:none;stroke-width:0.207745"
       id="path60636" /><path
       d="m 13473.219,-364.69464 c 0,1.2257 -0.993,2.21872 -2.216,2.21872 -1.226,0 -2.217,-0.99302 -2.217,-2.21872 0,-1.22362 0.991,-2.21664 2.217,-2.21664 1.223,0 2.216,0.99302 2.216,2.21664"
       style="fill:#9bd7a8;fill-opacity:1;fill-rule:nonzero;stroke:none;stroke-width:0.207745"
       id="path60638" /><path
       d="m 13421.433,-417.08582 c 0,1.22361 -0.993,2.21664 -2.218,2.21664 -1.224,0 -2.218,-0.99303 -2.218,-2.21664 0,-1.2257 0.994,-2.21872 2.218,-2.21872 1.225,0 2.218,0.99302 2.218,2.21872"
       style="fill:#9bd7a8;fill-opacity:1;fill-rule:nonzero;stroke:none;stroke-width:0.207745"
       id="path60640" /><path
       d="m 13428.899,-396.01841 c 0,1.22361 -0.993,2.21663 -2.217,2.21663 -1.225,0 -2.218,-0.99302 -2.218,-2.21663 0,-1.2257 0.993,-2.21872 2.218,-2.21872 1.224,0 2.217,0.99302 2.217,2.21872"
       style="fill:#9bd7a8;fill-opacity:1;fill-rule:nonzero;stroke:none;stroke-width:0.207745"
       id="path60642" /><path
       d="m 13463.973,-384.01076 c 0,1.2257 -0.993,2.21664 -2.217,2.21664 -1.226,0 -2.219,-0.99094 -2.219,-2.21664 0,-1.22362 0.993,-2.21664 2.219,-2.21664 1.224,0 2.217,0.99302 2.217,2.21664"
       style="fill:#9bd7a8;fill-opacity:1;fill-rule:nonzero;stroke:none;stroke-width:0.207745"
       id="path60644" /><path
       d="m 13468.786,-420.35157 c 0,1.22362 -0.993,2.21664 -2.219,2.21664 -1.223,0 -2.216,-0.99302 -2.216,-2.21664 0,-1.2257 0.993,-2.21872 2.216,-2.21872 1.226,0 2.219,0.99302 2.219,2.21872"
       style="fill:#9bd7a8;fill-opacity:1;fill-rule:nonzero;stroke:none;stroke-width:0.207745"
       id="path60646" /><path
       d="m 13445.803,-427.91556 c 0,1.22361 -0.991,2.21663 -2.216,2.21663 -1.224,0 -2.217,-0.99302 -2.217,-2.21663 0,-1.2257 0.993,-2.21872 2.217,-2.21872 1.225,0 2.216,0.99302 2.216,2.21872"
       style="fill:#9bd7a8;fill-opacity:1;fill-rule:nonzero;stroke:none;stroke-width:0.207745"
       id="path60648" /><path
       d="m 13380.341,-344.88409 c 0,1.22362 -0.992,2.21664 -2.217,2.21664 -1.225,0 -2.218,-0.99302 -2.218,-2.21664 0,-1.22569 0.993,-2.21871 2.218,-2.21871 1.225,0 2.217,0.99302 2.217,2.21871"
       style="fill:#9bd7a8;fill-opacity:1;fill-rule:nonzero;stroke:none;stroke-width:0.207745"
       id="path60650" /><path
       d="m 13348.742,-354.31155 c 0,1.22362 -0.993,2.21664 -2.217,2.21664 -1.225,0 -2.218,-0.99302 -2.218,-2.21664 0,-1.22569 0.993,-2.21871 2.218,-2.21871 1.224,0 2.217,0.99302 2.217,2.21871"
       style="fill:#9bd7a8;fill-opacity:1;fill-rule:nonzero;stroke:none;stroke-width:0.207745"
       id="path60652" /><path
       d="m 13329.907,-371.64786 c -0.392,0.60038 -1.083,0.99094 -1.868,0.99094 -1.222,0 -2.214,-0.99094 -2.214,-2.21248 0,-0.27838 0.05,-0.53183 0.161,-0.76242 1.384,0.48404 2.676,1.15298 3.921,1.98396"
       style="fill:#9bd7a8;fill-opacity:1;fill-rule:nonzero;stroke:none;stroke-width:0.207745"
       id="path60654" /><path
       d="m 13391.663,-315.96807 c 0,1.22361 -0.993,2.21663 -2.218,2.21663 -1.224,0 -2.218,-0.99302 -2.218,-2.21663 0,-1.2257 0.994,-2.21872 2.218,-2.21872 1.225,0 2.218,0.99302 2.218,2.21872"
       style="fill:#9bd7a8;fill-opacity:1;fill-rule:nonzero;stroke:none;stroke-width:0.207745"
       id="path60656" /><path
       d="m 13334.95,-284.54251 c 0,1.22362 -0.992,2.21664 -2.217,2.21664 -1.224,0 -2.218,-0.99302 -2.218,-2.21664 0,-1.22569 0.994,-2.21663 2.218,-2.21663 1.225,0 2.217,0.99094 2.217,2.21663"
       style="fill:#9bd7a8;fill-opacity:1;fill-rule:nonzero;stroke:none;stroke-width:0.207745"
       id="path60658" /><path
       d="m 13358.119,-303.59271 c 0,1.22569 -0.993,2.21871 -2.217,2.21871 -1.225,0 -2.218,-0.99302 -2.218,-2.21871 0,-1.22362 0.993,-2.21664 2.218,-2.21664 1.224,0 2.217,0.99302 2.217,2.21664"
       style="fill:#9bd7a8;fill-opacity:1;fill-rule:nonzero;stroke:none;stroke-width:0.207745"
       id="path60660" /><path
       d="m 13323.614,-320.44705 c 0,1.22569 -0.993,2.21871 -2.217,2.21871 -1.226,0 -2.218,-0.99302 -2.218,-2.21871 0,-1.22362 0.992,-2.21664 2.218,-2.21664 1.224,0 2.217,0.99302 2.217,2.21664"
       style="fill:#9bd7a8;fill-opacity:1;fill-rule:nonzero;stroke:none;stroke-width:0.207745"
       id="path60662" /><path
       d="m 13351.467,-254.07879 c 0,1.22569 -0.993,2.21871 -2.217,2.21871 -1.226,0 -2.218,-0.99302 -2.218,-2.21871 0,-1.22362 0.992,-2.21664 2.218,-2.21664 1.224,0 2.217,0.99302 2.217,2.21664"
       style="fill:#9bd7a8;fill-opacity:1;fill-rule:nonzero;stroke:none;stroke-width:0.207745"
       id="path60664" /><path
       d="m 13372.577,-370.65899 c 0,1.22361 -0.993,2.21663 -2.218,2.21663 -1.224,0 -2.217,-0.99302 -2.217,-2.21663 0,-1.2257 0.993,-2.21664 2.217,-2.21664 1.225,0 2.218,0.99094 2.218,2.21664"
       style="fill:#9bd7a8;fill-opacity:1;fill-rule:nonzero;stroke:none;stroke-width:0.207745"
       id="path60666" /><path
       d="m 13393.88,-408.00114 c 0,1.2257 -0.992,2.21872 -2.217,2.21872 -1.225,0 -2.218,-0.99302 -2.218,-2.21872 0,-1.22362 0.993,-2.21664 2.218,-2.21664 1.225,0 2.217,0.99302 2.217,2.21664"
       style="fill:#9bd7a8;fill-opacity:1;fill-rule:nonzero;stroke:none;stroke-width:0.207745"
       id="path60668" /><path
       d="m 13417.988,-439.0777 c 0,1.22362 -0.993,2.21664 -2.218,2.21664 -1.224,0 -2.217,-0.99302 -2.217,-2.21664 0,-1.22569 0.993,-2.21871 2.217,-2.21871 1.225,0 2.218,0.99302 2.218,2.21871"
       style="fill:#9bd7a8;fill-opacity:1;fill-rule:nonzero;stroke:none;stroke-width:0.207745"
       id="path60670" /><path
       d="m 13369.132,-393.80178 c 0,1.2257 -0.993,2.21664 -2.217,2.21664 -1.225,0 -2.218,-0.99094 -2.218,-2.21664 0,-1.22361 0.993,-2.21663 2.218,-2.21663 1.224,0 2.217,0.99302 2.217,2.21663"
       style="fill:#9bd7a8;fill-opacity:1;fill-rule:nonzero;stroke:none;stroke-width:0.207745"
       id="path60672" /><path
       d="m 13396.098,-430.13428 c 0,1.2257 -0.993,2.21872 -2.218,2.21872 -1.225,0 -2.217,-0.99302 -2.217,-2.21872 0,-1.22362 0.992,-2.21664 2.217,-2.21664 1.225,0 2.218,0.99302 2.218,2.21664"
       style="fill:#9bd7a8;fill-opacity:1;fill-rule:nonzero;stroke:none;stroke-width:0.207745"
       id="path60674" /><path
       d="m 13353.684,-330.29624 c 0,1.22569 -0.993,2.21872 -2.217,2.21872 -1.225,0 -2.217,-0.99303 -2.217,-2.21872 0,-1.22362 0.992,-2.21664 2.217,-2.21664 1.224,0 2.217,0.99302 2.217,2.21664"
       style="fill:#9bd7a8;fill-opacity:1;fill-rule:nonzero;stroke:none;stroke-width:0.207745"
       id="path60676" /><path
       d="m 13325.831,-349.87827 c 0,1.22569 -0.993,2.21871 -2.217,2.21871 -1.225,0 -2.217,-0.99302 -2.217,-2.21871 0,-1.22362 0.992,-2.21664 2.217,-2.21664 1.224,0 2.217,0.99302 2.217,2.21664"
       style="fill:#9bd7a8;fill-opacity:1;fill-rule:nonzero;stroke:none;stroke-width:0.207745"
       id="path60678" /><path
       d="m 13406.613,-356.53026 c 0,1.22569 -0.993,2.21871 -2.217,2.21871 -1.225,0 -2.218,-0.99302 -2.218,-2.21871 0,-1.22362 0.993,-2.21664 2.218,-2.21664 1.224,0 2.217,0.99302 2.217,2.21664"
       style="fill:#9bd7a8;fill-opacity:1;fill-rule:nonzero;stroke:none;stroke-width:0.207745"
       id="path60680" /><path
       d="m 13452.457,-344.88409 c 0,1.22362 -0.993,2.21664 -2.218,2.21664 -1.224,0 -2.217,-0.99302 -2.217,-2.21664 0,-1.22569 0.993,-2.21871 2.217,-2.21871 1.225,0 2.218,0.99302 2.218,2.21871"
       style="fill:#9bd7a8;fill-opacity:1;fill-rule:nonzero;stroke:none;stroke-width:0.207745"
       id="path60682" /><path
       d="m 13450.239,-408.00114 c 0,1.2257 -0.993,2.21872 -2.217,2.21872 -1.226,0 -2.219,-0.99302 -2.219,-2.21872 0,-1.22362 0.993,-2.21664 2.219,-2.21664 1.224,0 2.217,0.99302 2.217,2.21664"
       style="fill:#9bd7a8;fill-opacity:1;fill-rule:nonzero;stroke:none;stroke-width:0.207745"
       id="path60684" /><path
       d="m 13476.89,-403.35181 c 0,1.2257 -0.993,2.21872 -2.216,2.21872 -1.226,0 -2.219,-0.99302 -2.219,-2.21872 0,-1.22362 0.993,-2.21664 2.219,-2.21664 1.223,0 2.216,0.99302 2.216,2.21664"
       style="fill:#9bd7a8;fill-opacity:1;fill-rule:nonzero;stroke:none;stroke-width:0.207745"
       id="path60686" /><path
       d="m 13423.649,-328.07752 c 0,1.22361 -0.993,2.21663 -2.216,2.21663 -1.225,0 -2.218,-0.99302 -2.218,-2.21663 0,-1.2257 0.993,-2.21872 2.218,-2.21872 1.223,0 2.216,0.99302 2.216,2.21872"
       style="fill:#9bd7a8;fill-opacity:1;fill-rule:nonzero;stroke:none;stroke-width:0.207745"
       id="path60688" /><path
       d="m 13404.396,-288.63508 c 0,1.22362 -0.993,2.21664 -2.218,2.21664 -1.225,0 -2.217,-0.99302 -2.217,-2.21664 0,-1.22569 0.992,-2.21872 2.217,-2.21872 1.225,0 2.218,0.99303 2.218,2.21872"
       style="fill:#9bd7a8;fill-opacity:1;fill-rule:nonzero;stroke:none;stroke-width:0.207745"
       id="path60690" /><path
       d="m 13370.359,-282.32587 c 0,1.2257 -0.992,2.21872 -2.217,2.21872 -1.225,0 -2.217,-0.99302 -2.217,-2.21872 0,-1.22361 0.992,-2.21664 2.217,-2.21664 1.225,0 2.217,0.99303 2.217,2.21664"
       style="fill:#9bd7a8;fill-opacity:1;fill-rule:nonzero;stroke:none;stroke-width:0.207745"
       id="path60692" /><path
       d="m 13463.973,-315.96807 c 0,1.22361 -0.993,2.21663 -2.217,2.21663 -1.226,0 -2.219,-0.99302 -2.219,-2.21663 0,-1.2257 0.993,-2.21872 2.219,-2.21872 1.224,0 2.217,0.99302 2.217,2.21872"
       style="fill:#9bd7a8;fill-opacity:1;fill-rule:nonzero;stroke:none;stroke-width:0.207745"
       id="path60694" /><path
       d="m 13433.334,-299.15736 c 0,1.22362 -0.993,2.21664 -2.216,2.21664 -1.226,0 -2.219,-0.99302 -2.219,-2.21664 0,-1.22569 0.993,-2.21664 2.219,-2.21664 1.223,0 2.216,0.99095 2.216,2.21664"
       style="fill:#9bd7a8;fill-opacity:1;fill-rule:nonzero;stroke:none;stroke-width:0.207745"
       id="path60696" /><path
       d="m 13387.227,-249.64344 c 0,1.22569 -0.992,2.21871 -2.217,2.21871 -1.224,0 -2.217,-0.99302 -2.217,-2.21871 0,-1.22362 0.993,-2.21664 2.217,-2.21664 1.225,0 2.217,0.99302 2.217,2.21664"
       style="fill:#9bd7a8;fill-opacity:1;fill-rule:nonzero;stroke:none;stroke-width:0.207745"
       id="path60698" /><path
       d="m 13421.433,-261.1899 c 0,1.22569 -0.993,2.21871 -2.218,2.21871 -1.224,0 -2.218,-0.99302 -2.218,-2.21871 0,-1.22362 0.994,-2.21664 2.218,-2.21664 1.225,0 2.218,0.99302 2.218,2.21664"
       style="fill:#9bd7a8;fill-opacity:1;fill-rule:nonzero;stroke:none;stroke-width:0.207745"
       id="path60700" /><path
       d="m 13454.383,-274.2529 c 0,1.22569 -0.993,2.21871 -2.216,2.21871 -1.226,0 -2.219,-0.99302 -2.219,-2.21871 0,-1.22362 0.993,-2.21664 2.219,-2.21664 1.223,0 2.216,0.99302 2.216,2.21664"
       style="fill:#9bd7a8;fill-opacity:1;fill-rule:nonzero;stroke:none;stroke-width:0.207745"
       id="path60702" /><path
       d="m 13439.515,-236.10678 c 0,1.22569 -0.993,2.21871 -2.217,2.21871 -1.225,0 -2.219,-0.99302 -2.219,-2.21871 0,-1.22362 0.994,-2.21664 2.219,-2.21664 1.224,0 2.217,0.99302 2.217,2.21664"
       style="fill:#9bd7a8;fill-opacity:1;fill-rule:nonzero;stroke:none;stroke-width:0.207745"
       id="path60704" /></g><path
     d="m 193.70005,657.356 h -36.419 c -2.376,-6.781 2.007,-13.58464 1.268,-19.5596 -1.268,-10.10263 4.614,-4.52052 4.614,-4.52052 1.037,-10.86298 16.307,-12.91758 16.145,-8.07297 -0.254,7.12773 1.13,11.53192 3.16,14.48418 4.105,5.92883 10.84,5.88334 11.993,10.12507 0.116,0.41549 0.208,0.83098 0.276,1.20097 1.13,5.30415 -1.037,6.34287 -1.037,6.34287"
     style="fill:#6053a1;fill-opacity:1;fill-rule:nonzero;stroke:none;stroke-width:0.207745"
     id="path60706" /><path
     d="m 194.73705,651.01313 c -7.541,1.75379 -24.932,-0.53141 -25.624,-4.91358 -0.669,-4.24423 8.696,-6.22757 13.355,-6.41246 4.105,5.92883 10.84,5.88334 11.993,10.12507 0.116,0.41549 0.208,0.83098 0.276,1.20097"
     style="fill:#897fbd;fill-opacity:1;fill-rule:nonzero;stroke:none;stroke-width:0.207745"
     id="path60708" /><path
     d="m 43.985049,375.24841 c -3.875,-3.52958 -10.171,2.30597 -10.171,2.30597 0,0 3.39,5.02743 1.199,7.05709 -2.191,2.02967 -4.728,-2.60512 -9.042,-0.57545 -0.345,0.15997 -0.714,0.36771 -1.06,0.59831 -3.368,2.00681 -6.874,6.22819 -9.711,9.43369 -0.576,0.64609 -1.13,1.24647 -1.637,1.77622 -3.298,3.46103 -11.8090004,5.4907 -13.4010004,-3.73525 -1.592,-9.22595 8.787,-20.04531 20.1820004,-29.9859 11.394,-9.94059 18.752,-4.03648 18.752,-4.03648 0,0 2.583,4.17567 2.583,6.78079 0,2.58435 2.306,3.87652 3.598,6.34453 1.292,2.44308 -1.292,4.03648 -1.292,4.03648"
     style="fill:#6053a1;fill-opacity:1;fill-rule:nonzero;stroke:none;stroke-width:0.207745"
     id="path60710" /><path
     d="m 24.911049,384.63433 c -3.368,2.00681 -6.874,6.22819 -9.711,9.43369 -4.267,1.01587 -8.0950004,0.71464 -8.6950004,-3.29691 -1.453,-9.68922 17.8750004,-22.00434 16.3300004,-15.20069 -0.784,3.41325 0.553,6.66653 2.076,9.06391"
     style="fill:#897fbd;fill-opacity:1;fill-rule:nonzero;stroke:none;stroke-width:0.207745"
     id="path60712" /><path
     d="m 699.31605,641.60624 c -1.795,-0.94296 -3.45,-3.01625 -4.938,-5.63799 0,-0.002 -1.28,-7.75512 0,-15.90079 1.282,-8.14776 -2.266,-14.79975 -13.798,-17.29892 -11.212,-2.42854 -17.864,2.97283 -15.276,25.51315 0,0.002 0,0.004 0,0.008 -1.705,9.36306 -2.058,20.05569 1.831,29.066 h 34.512 c 0,0 5.443,-11.66716 -2.333,-15.74976"
     style="fill:#4c4766;fill-opacity:1;fill-rule:nonzero;stroke:none;stroke-width:0.207745"
     id="path60714" /><path
     d="m 729.59305,520.11931 c 0,0 0,22.48839 -12.687,45.55222 -12.918,23.48764 -28.887,55.72342 -28.887,55.72342 0,0 -10.641,10.38101 -17.403,-6.81404 0,0 4.774,-59.86376 15.729,-81.7767 10.956,-21.91085 43.248,-12.6849 43.248,-12.6849"
     style="fill:#f78f78;fill-opacity:1;fill-rule:nonzero;stroke:none;stroke-width:0.207745"
     id="path60716" /><path
     d="m 895.08505,446.88716 c 0,0 20.554,86.44265 33.629,109.24473 0,0 -3.008,9.53964 -17.166,12.42314 0,0 -44.719,-65.73464 -47.602,-93.41249 -2.884,-27.67785 31.139,-28.25538 31.139,-28.25538"
     style="fill:#f78f78;fill-opacity:1;fill-rule:nonzero;stroke:none;stroke-width:0.207745"
     id="path60718" /><path
     d="m 905.02505,467.20669 c -5.468,13.17102 -47.698,13.88567 -47.698,13.88567 l -3.23,-4.75113 -0.854,-1.24439 -6.596,-9.73493 c 0,0 -69.979,-68.64099 -83.611,-62.87399 h -0.02 c -0.391,0.18282 -0.783,0.39056 -1.153,0.66894 -9.363,6.68731 -10.24,43.33766 -21.313,104.853 -1.059,5.83556 -3.413,12.6392 -5.189,17.34462 -0.208,0.5069 -0.391,0.99095 -0.576,1.45214 -1.015,2.6072 -1.73,4.26708 -1.73,4.26708 -42.717,17.29892 -56.81,-16.88343 -56.81,-16.88343 0,0 0.509,-0.99094 1.246,-2.58227 0.162,-0.34693 0.347,-0.73749 0.53,-1.15298 2.238,-4.93602 5.813,-13.49303 5.767,-18.01356 -0.05,-4.95887 -0.09,-9.73493 -0.114,-14.32401 0,-0.41549 0,-0.80813 -0.02,-1.19869 -0.07,-14.7852 -0.05,-27.63215 0.05,-38.79636 v -1.17583 c 0.05,-4.86747 0.114,-9.41085 0.208,-13.65507 v -1.19869 c 0.367,-19.44492 0.99,-32.42898 1.659,-41.07948 0.02,-0.39056 0.07,-0.80605 0.09,-1.17583 1.178,-14.55461 2.422,-15.98389 2.422,-15.98389 l -8.557,-59.48568 h 93.367 c 0,0 14.023,14.04771 32.221,32.59102 0.393,0.36979 0.763,0.73957 1.13,1.13013 6.598,6.71224 13.724,14.00201 20.874,21.40604 0.302,0.29915 0.578,0.57545 0.831,0.85175 2.813,2.90635 5.628,5.8127 8.418,8.6962 0.347,0.34486 0.669,0.71465 1.016,1.06158 9.365,9.71 18.452,19.2808 26.226,27.655 0.276,0.2763 0.53,0.5526 0.783,0.8289 10.632,11.51115 18.728,20.71217 21.52,25.0021 7.404,11.32625 13.169,26.06367 16.352,35.17536 0,0 0,0 0,0.0229 0.162,0.41549 0.301,0.78527 0.438,1.17583 1.5,4.42912 2.331,7.24199 2.331,7.24199"
     style="fill:#30683d;fill-opacity:1;fill-rule:nonzero;stroke:none;stroke-width:0.207745"
     id="path60720" /><path
     d="m 702.05205,372.75547 c -3.806,4.49768 -9.34,7.26692 -16.491,8.25786 0.02,-0.39056 0.07,-0.80605 0.09,-1.17583 6.735,-0.96809 11.947,-3.59814 15.523,-7.84237 6.413,-7.56607 5.374,-17.78296 5.351,-17.87437 l 1.153,-0.13919 c 0.05,0.43834 1.107,10.81727 -5.628,18.7739"
     style="fill:#254a2d;fill-opacity:1;fill-rule:nonzero;stroke:none;stroke-width:0.207745"
     id="path60722" /><path
     d="m 806.23605,338.08908 c -0.367,0.0229 -0.714,0.0478 -1.082,0.0478 -10.379,0 -21.221,-11.34911 -21.774,-11.92456 l 0.831,-0.80813 c 0.137,0.16204 10.932,11.46336 20.895,11.55477 0.393,0.36979 0.763,0.73957 1.13,1.13013"
     style="fill:#254a2d;fill-opacity:1;fill-rule:nonzero;stroke:none;stroke-width:0.207745"
     id="path60724" /><path
     d="m 735.35805,525.35448 c -0.208,0.5069 -0.391,0.99095 -0.576,1.45214 -6.92,2.53864 -13.262,3.57529 -19.052,3.57529 -18.452,0 -31.23,-10.67809 -38.242,-18.77391 0.162,-0.34693 0.347,-0.73749 0.53,-1.15298 8.973,10.51812 28.141,26.04082 57.34,14.89946"
     style="fill:#254a2d;fill-opacity:1;fill-rule:nonzero;stroke:none;stroke-width:0.207745"
     id="path60726" /><path
     d="m 760.43105,381.05904 c 1.545,6.62083 2.536,13.83996 2.582,21.42888 -0.391,0.18282 -0.783,0.39056 -1.153,0.66894 -0.05,-34.82843 -20.205,-61.99938 -20.436,-62.29854 l 0.922,-0.69179 c 0.185,0.2306 12.133,16.37446 17.783,39.69382 2.354,-1.54562 3.945,-3.76018 4.614,-6.61875 2.907,-12.22579 -10.31,-32.20046 -10.424,-32.40613 l 0.945,-0.64608 c 0.553,0.85175 13.607,20.59582 10.61,33.30566 -0.784,3.32184 -2.631,5.83555 -5.443,7.56399"
     style="fill:#254a2d;fill-opacity:1;fill-rule:nonzero;stroke:none;stroke-width:0.207745"
     id="path60728" /><path
     d="m 864.38405,398.58855 c -3.436,3.73733 -6.666,6.91998 -6.966,7.19628 l -0.623,0.62324 -0.299,-0.83098 c -4.521,-11.83107 -33.582,-37.47926 -33.883,-37.73271 l -0.345,-0.32408 4.842,-8.02518 c 0.302,0.29915 0.578,0.57545 0.831,0.85175 l -4.059,6.73509 c 5.651,1.96111 9.664,2.30597 12.477,1.96111 0.347,0.34486 0.669,0.71465 1.016,1.06158 -0.945,0.15996 -1.961,0.25345 -3.023,0.25345 -2.605,0 -5.58,-0.53183 -8.924,-1.54562 6.596,5.94981 27.1,24.95639 31.805,35.54307 1.822,-1.79907 4.13,-4.17567 6.368,-6.5959 0.276,0.2763 0.53,0.5526 0.783,0.8289"
     style="fill:#254a2d;fill-opacity:1;fill-rule:nonzero;stroke:none;stroke-width:0.207745"
     id="path60730" /><path
     d="m 704.91305,477.9097 -0.461,0.0935 c -0.439,0.11426 -5.674,1.19869 -11.694,1.19869 -3.023,0 -6.206,-0.2763 -9.087,-1.08443 0,-0.41549 0,-0.80813 -0.02,-1.19869 7.612,2.18963 17.783,0.5069 20.091,0.0686 l -1.938,-47.99738 c -1.085,2.62797 -3.229,6.22611 -7.242,8.21008 -1.916,0.96809 -4.06,1.42928 -6.413,1.42928 -1.407,0 -2.882,-0.15996 -4.45,-0.5069 v -1.17583 c 3.988,0.92238 7.45,0.66894 10.333,-0.78528 4.888,-2.42023 6.827,-7.60969 7.427,-9.66429 -3.854,0.57753 -11.625,-1.38358 -17.552,-3.2055 v -1.19869 c 6.388,1.93618 15.036,4.17359 18.15,3.09124 l 0.74,-0.25552 2.121,52.98117"
     style="fill:#254a2d;fill-opacity:1;fill-rule:nonzero;stroke:none;stroke-width:0.207745"
     id="path60732" /><path
     d="m 902.69405,459.9647 c -6.71,6.62083 -20.458,16.74632 -41.609,16.74632 -2.237,0 -4.566,-0.11634 -6.988,-0.36979 l -0.854,-1.24439 c 25.719,2.95205 41.842,-9.11169 49.013,-16.30797 0.162,0.41549 0.301,0.78527 0.438,1.17583"
     style="fill:#254a2d;fill-opacity:1;fill-rule:nonzero;stroke:none;stroke-width:0.207745"
     id="path60734" /><path
     d="m 790.13805,51.46761 c 0,0 -2.568,-5.90826 -13.406,-5.91034 -8.353,-0.002 -11.55,4.61194 -11.55,4.61194 -4.999,14.60862 -10.369,70.53978 -12.293,72.53205 -0.974,1.00756 -62.936,42.73936 -62.936,42.73936 33.626,0.63154 54.606,42.07872 54.606,42.07872 1.086,-13.61975 39.062,-67.59187 39.469,-72.40532 0.769,-9.07845 16.834,-49.6261 6.11,-83.64641"
     style="fill:#8b8675;fill-opacity:1;fill-rule:nonzero;stroke:none;stroke-width:0.207745"
     id="path60736" /><path
     d="m 682.56805,343.91841 c 0,0 -0.312,11.66903 3.463,12.43976 3.775,0.76866 34.527,9.85749 69.894,-6.21988 35.366,-16.07738 41.517,-27.99363 31.138,-36.83525 -10.381,-8.84162 -104.495,30.61537 -104.495,30.61537"
     style="fill:#8b8675;fill-opacity:1;fill-rule:nonzero;stroke:none;stroke-width:0.207745"
     id="path60738" /><path
     d="m 668.39805,173.51774 c 0,0 -32.178,-3.81212 -50.63,4.17359 0,0 -5.146,22.83324 20.203,73.93641 25.349,51.10316 19.47,83.28908 48.06,95.40476 25.345,10.74041 100.071,-21.22322 102.418,-31.82444 5.908,-26.68691 -39.787,-73.52299 -42.671,-100.66278 -2.883,-27.1398 -29.408,-67.94297 -77.38,-41.02754"
     style="fill:#c9c4b1;fill-opacity:1;fill-rule:nonzero;stroke:none;stroke-width:0.207745"
     id="path60740" /><path
     d="m 617.76805,177.69133 c -22.488,7.98572 -47.788,33.23503 -47.825,45.40473 -0.03,12.16969 21.101,16.86057 21.101,16.86057 l 34.654,-16.86057 c 0,0 9.913,-6.92206 3.602,-27.09202 -6.309,-20.17202 -11.532,-18.31271 -11.532,-18.31271"
     style="fill:#8b8675;fill-opacity:1;fill-rule:nonzero;stroke:none;stroke-width:0.207745"
     id="path60742" /><path
     d="m 710.16905,200.19426 c -6.719,0 -15.053,-2.42023 -20.23,-6.11186 -2.855,-2.03382 -4.558,-4.32732 -4.924,-6.63537 -1.271,-7.98779 6.507,-12.04712 6.839,-12.2154 l 1.049,2.05252 c -0.272,0.13919 -6.614,3.48388 -5.609,9.80141 0.266,1.68273 1.643,3.45064 3.982,5.11883 5.799,4.13205 15.826,6.55851 22.356,5.40552 2.942,-0.51728 4.867,-1.57678 5.721,-3.14318 1.045,-1.91748 0.152,-4.08634 0.144,-4.10919 l 2.119,-0.90992 c 0.06,0.1288 1.346,3.18265 -0.223,6.09315 -1.201,2.23118 -3.677,3.69163 -7.36,4.33979 -1.195,0.2119 -2.497,0.3137 -3.864,0.3137"
     style="fill:#d2dadc;fill-opacity:1;fill-rule:nonzero;stroke:none;stroke-width:0.207745"
     id="path60744" /><path
     d="m 681.65205,224.52949 c -4.976,0 -13.238,-2.07329 -14.397,-10.2439 -0.59,-4.15697 -0.208,-7.62423 0.125,-10.68224 0.494,-4.50391 0.883,-8.0605 -1.741,-12.3255 -4.334,-7.03632 -10.234,-7.50998 -10.483,-7.5266 l 0.139,-2.30181 c 0.295,0.0166 7.315,0.51313 12.307,8.61933 3.039,4.9381 2.568,9.23634 2.071,13.78595 -0.336,3.06632 -0.683,6.23651 -0.133,10.10679 1.251,8.81462 12.486,8.26202 12.961,8.23709 l 0.137,2.30181 c -0.311,0.0187 -0.641,0.0291 -0.986,0.0291"
     style="fill:#d2dadc;fill-opacity:1;fill-rule:nonzero;stroke:none;stroke-width:0.207745"
     id="path60746" /><path
     d="m 688.65305,183.13425 c 0,0 17.01,-11.58593 12.973,-24.12749 -4.036,-12.54156 -58.816,-11.67527 -72.943,3.31561 -14.127,14.99294 30.561,24.94392 30.561,24.94392 3.459,-6.97191 25.563,-7.74057 29.409,-4.13204"
     style="fill:#8b8675;fill-opacity:1;fill-rule:nonzero;stroke:none;stroke-width:0.207745"
     id="path60748" /><path
     d="m 658.06805,181.17314 c -8.07,-2.74224 -12.855,-8.5674 -11.124,-15.29418 1.728,-6.72678 36.428,-6.90544 43.009,-1.53108 6.579,5.37436 -2.69,26.73677 -31.885,16.82526"
     style="fill:#524f45;fill-opacity:1;fill-rule:nonzero;stroke:none;stroke-width:0.207745"
     id="path60750" /><path
     d="m 654.22705,162.2642 c 0,0 7.14,12.20085 3.841,18.90894 0,0 24.5,8.45729 24.5,-5.24972 0,0 -4.618,-10.27506 -2.877,-16.91666 l -25.464,3.25744"
     style="fill:#f56453;fill-opacity:1;fill-rule:nonzero;stroke:none;stroke-width:0.207745"
     id="path60752" /><path
     d="m 646.05905,151.61104 c 0,0 -12.037,-19.27873 -10.921,-37.69116 0.558,-9.20725 5.293,-12.8137 5.293,-12.8137 0,0 -3.823,-5.31412 0.274,-13.43486 0,0 5.67,6.5585 25.567,4.48936 19.188,-1.99435 21.101,11.68358 21.101,11.68358 13.713,2.03797 4.462,43.52671 -5.108,47.76678 h -36.206"
     style="fill:#f1cc6e;fill-opacity:1;fill-rule:nonzero;stroke:none;stroke-width:0.207745"
     id="path60754" /><path
     d="m 640.95205,133.80938 c 0,0 -6.918,-6.90336 -7.769,1.16753 -0.987,9.35059 7.503,13.11701 9.165,10.1421 1.658,-2.97283 -1.396,-11.30963 -1.396,-11.30963"
     style="fill:#f78f78;fill-opacity:1;fill-rule:nonzero;stroke:none;stroke-width:0.207745"
     id="path60756" /><path
     d="m 689.39605,134.29758 c 0,0 6.918,-6.90544 7.77,1.16545 0.987,9.3506 -7.506,13.11701 -9.166,10.14418 -1.66,-2.97491 1.396,-11.30963 1.396,-11.30963"
     style="fill:#f78f78;fill-opacity:1;fill-rule:nonzero;stroke:none;stroke-width:0.207745"
     id="path60758" /><path
     d="m 664.44405,167.67803 c -15.35,0 -24.013,-10.02785 -24.013,-40.09892 0,-15.51231 7.892,-25.02703 25.085,-25.02703 17.195,0 24.437,9.51264 24.437,25.02703 0,32.31264 -9.65,40.09892 -25.509,40.09892"
     style="fill:#f78f78;fill-opacity:1;fill-rule:nonzero;stroke:none;stroke-width:0.207745"
     id="path60760" /><path
     d="m 684.87005,138.30498 c 0.268,1.54147 -1.079,3.06631 -3.009,3.40286 -1.927,0.33655 -3.71,-0.64193 -3.98,-2.18548 -0.268,-1.54146 1.078,-3.06631 3.006,-3.40286 1.93,-0.33654 3.713,0.64193 3.983,2.18548"
     style="fill:#e05b43;fill-opacity:1;fill-rule:nonzero;stroke:none;stroke-width:0.207745"
     id="path60762" /><path
     d="m 653.29405,139.14427 c -0.101,1.56432 -1.767,2.72769 -3.722,2.59889 -1.955,-0.12673 -3.457,-1.49784 -3.355,-3.06009 0.103,-1.56224 1.77,-2.72769 3.724,-2.59888 1.955,0.12672 3.455,1.49784 3.353,3.06008"
     style="fill:#e05b43;fill-opacity:1;fill-rule:nonzero;stroke:none;stroke-width:0.207745"
     id="path60764" /><path
     d="m 678.11005,122.17982 c -0.202,0.0312 -0.412,-0.0166 -0.584,-0.14958 -2.445,-1.87801 -6.112,-1.21323 -6.168,-1.20492 -0.407,0.0665 -0.817,-0.19528 -0.893,-0.61284 -0.08,-0.41549 0.195,-0.81644 0.612,-0.89538 0.16,-0.0353 4.4,-0.79567 7.382,1.49784 0.336,0.2576 0.398,0.73957 0.141,1.07611 -0.125,0.16205 -0.303,0.25969 -0.49,0.28877"
     style="fill:#f9ad63;fill-opacity:1;fill-rule:nonzero;stroke:none;stroke-width:0.207745"
     id="path60766" /><path
     d="m 648.73005,122.28785 c -0.189,-0.0249 -0.369,-0.11634 -0.498,-0.27423 -0.268,-0.32823 -0.22,-0.81228 0.106,-1.08027 2.908,-2.38283 7.165,-1.75129 7.331,-1.72428 0.418,0.0665 0.704,0.45704 0.64,0.87668 -0.07,0.41757 -0.474,0.69595 -0.877,0.63986 -0.03,-0.008 -3.762,-0.54222 -6.12,1.39396 -0.172,0.13919 -0.382,0.19321 -0.582,0.16828"
     style="fill:#f9ad63;fill-opacity:1;fill-rule:nonzero;stroke:none;stroke-width:0.207745"
     id="path60768" /><path
     d="m 676.52205,130.84486 c 0,1.9071 -0.858,3.45272 -1.917,3.45272 -1.06,0 -1.918,-1.54562 -1.918,-3.45272 0,-1.9071 0.858,-3.45272 1.918,-3.45272 1.057,0 1.917,1.54562 1.917,3.45272"
     style="fill:#000000;fill-opacity:1;fill-rule:nonzero;stroke:none;stroke-width:0.207745"
     id="path60770" /><path
     d="m 656.02205,130.84486 c 0,1.9071 -0.858,3.45272 -1.917,3.45272 -1.06,0 -1.918,-1.54562 -1.918,-3.45272 0,-1.9071 0.858,-3.45272 1.918,-3.45272 1.059,0 1.917,1.54562 1.917,3.45272"
     style="fill:#000000;fill-opacity:1;fill-rule:nonzero;stroke:none;stroke-width:0.207745"
     id="path60772" /><path
     d="m 645.14005,105.88223 c 0,0 16.358,5.98929 39.813,4.30448 0,0 5,6.23442 4.394,28.2263 0,0 13.731,-39.61695 -26.359,-39.61695 -40.091,0 -22.029,38.73818 -22.029,38.73818 0,0 -3.277,-24.22928 4.181,-31.65201"
     style="fill:#f1cc6e;fill-opacity:1;fill-rule:nonzero;stroke:none;stroke-width:0.207745"
     id="path60774" /><path
     d="m 665.41605,141.09499 -1.148,-1.15714 3.035,-3.01645 c -2.944,-4.16321 -2.927,-13.79634 -2.925,-14.22637 l 1.63,0.0104 c 0,0.10388 -0.02,10.46827 2.99,13.72571 l 0.534,0.57753 -4.116,4.08634"
     style="fill:#e05b43;fill-opacity:1;fill-rule:nonzero;stroke:none;stroke-width:0.207745"
     id="path60776" /><path
     d="m 655.22905,146.11619 c 0,0 15.107,0.63777 22.735,-1.37943 0,0 1.348,10.98555 -10.36,11.53192 -12.375,0.57545 -12.375,-10.15249 -12.375,-10.15249"
     style="fill:#ffffff;fill-opacity:1;fill-rule:nonzero;stroke:none;stroke-width:0.207745"
     id="path60778" /><path
     d="m 719.78905,187.6527 c 2.884,-0.5339 2.595,7.00931 0,4.82384 -2.594,-2.18756 -2.883,-4.28786 0,-4.82384"
     style="fill:#d2dadc;fill-opacity:1;fill-rule:nonzero;stroke:none;stroke-width:0.207745"
     id="path60780" /><path
     d="m 685.02105,224.21372 c -0.44,2.90012 -7.472,0.15373 -4.556,-1.58094 2.915,-1.73467 4.995,-1.31918 4.556,1.58094"
     style="fill:#d2dadc;fill-opacity:1;fill-rule:nonzero;stroke:none;stroke-width:0.207745"
     id="path60782" /><path
     d="m 654.07405,239.95663 c 0,0 -4.579,11.74174 -4.317,18.37296 0.261,6.63329 2.43,5.767 2.43,5.767 0,0 -3.471,1.36696 -4.13,5.18946 -0.656,3.82459 8.996,6.63122 9.658,6.63122 0.665,0 7.477,-2.59473 7.477,-2.59473 l 1.427,-21.6948 -6.029,-3.78719 -6.516,-7.88392"
     style="fill:#f75e51;fill-opacity:1;fill-rule:nonzero;stroke:none;stroke-width:0.207745"
     id="path60784" /><path
     d="m 657.71505,238.43802 c 0,0 8.335,5.18946 11.563,8.35965 3.229,3.17226 1.386,27.67785 0,28.83291 -1.385,1.15299 -12.011,3.52959 -14.049,2.19794 -2.04,-1.33372 0.793,-8.54247 0.793,-8.54247 0,0 5.337,-1.15298 4.568,0.8663 -0.77,2.0172 0,3.74772 0,3.74772 l 2.192,-0.86422 c 0,0 -1.076,-5.47823 0,-9.51472 1.074,-4.03648 -7.514,-8.29317 -8.555,-15.68058 -1.038,-7.38533 3.488,-9.40253 3.488,-9.40253"
     style="fill:#f78f78;fill-opacity:1;fill-rule:nonzero;stroke:none;stroke-width:0.207745"
     id="path60786" /><path
     d="m 571.32905,226.49892 c -2.67,-11.52569 8.767,-15.60164 24.678,-13.63638 18.452,2.27896 56.346,7.10488 64.583,27.09409 0,0 2.691,7.88392 -4.273,11.67111 -19.463,10.58668 -79.977,-3.48596 -84.988,-25.12882"
     style="fill:#8b8675;fill-opacity:1;fill-rule:nonzero;stroke:none;stroke-width:0.207745"
     id="path60788" /><path
     d="m 629.05105,218.86221 c 0,0 -21.992,-9.13662 -32.947,-10.06108 -10.956,-0.92447 15.149,8.64842 32.947,10.06108"
     style="fill:#524f45;fill-opacity:1;fill-rule:nonzero;stroke:none;stroke-width:0.207745"
     id="path60790" /><path
     d="m 793.89805,20.87718 c -1.662,1.89048 -4.406,9.2488 -4.406,9.2488 -1.153,6.18041 -1.822,9.59574 -3.991,12.43146 -2.144,2.83779 -1.014,7.84237 -1.014,7.84237 0,0 -8.397,4.31278 -15.454,-1.0138 0,0 0.738,-4.95887 0,-6.36738 -1.452,-2.81287 -6.112,-4.31278 -7.703,-9.9863 -1.591,-5.69636 -6.367,-12.04089 -6.367,-12.04089 0,0 1.363,-2.95206 3.853,-1.15299 2.514,1.82193 4.105,6.36739 5.466,6.82858 0.276,0.0914 0.553,0.15996 0.831,0.18489 0,0 0.02,0 0.07,0.0229 1.038,0.13712 2.098,-0.0935 2.744,-0.71672 0.05,-0.0228 0.116,-0.0685 0.162,-0.13711 2.283,-2.6529 2.813,-10.44957 2.722,-13.93137 -0.14,-4.84461 0.05,-11.53192003 2.997,-10.40179 2.952,1.12806 0.254,3.82874 2.539,14.50683 l 1.105,0.13919 c 0.208,0.76034 2.238,-6.48164 2.724,-13.28529 0.345,-4.68257 3.413,-2.95205003 4.082,-1.47706 0.692,1.47706 -0.347,6.1347 -0.555,9.5251 -0.16,2.23741 -0.345,4.56831 -0.461,5.95189 l 1.292,0.71464 c 4.66,-8.11867 3.069,-11.48621 5.79,-11.64825 2.699,-0.15997 1.728,6.68938 0.276,9.29658 -0.623,1.13013 -1.223,3.48181 -1.707,5.78777 4.776,-5.51147 4.244,-8.39497 6.436,-8.04803 2.26,0.36771 0.23,5.83347 -1.43,7.72603"
     style="fill:#f78f78;fill-opacity:1;fill-rule:nonzero;stroke:none;stroke-width:0.207745"
     id="path60792" /><path
     d="m 773.27805,33.58493 c -1.615,-4.44989 -7.382,-6.47956 -8.096,-6.71016 1.038,0.13712 2.098,-0.0935 2.744,-0.71672 5.651,2.53865 5.352,7.42688 5.352,7.42688"
     style="fill:#ef5640;fill-opacity:1;fill-rule:nonzero;stroke:none;stroke-width:0.207745"
     id="path60794" /><path
     d="m 673.08205,623.52433 c 0,0 -3.191,-6.5128 -0.345,-9.31113 2.844,-2.79832 6.195,2.39115 11.054,1.23816 4.862,-1.15298 5.988,-4.60778 7.251,0.0976 1.263,4.7075 -0.277,19.50725 -17.96,7.97533"
     style="fill:#352f55;fill-opacity:1;fill-rule:nonzero;stroke:none;stroke-width:0.207745"
     id="path60796" /><path
     d="m 691.37805,623.23557 c 0,0 -13.054,4.6244 -19.823,0 l 1.72,5.65066 c 0,0 14.189,1.50407 16.146,-2.0733 l 1.957,-3.57736"
     style="fill:#282340;fill-opacity:1;fill-rule:nonzero;stroke:none;stroke-width:0.207745"
     id="path60798" /><path
     d="m 691.20205,630.25734 c 0,0 -11.952,-1.65988 -17.719,1.3088 v 2.80247 c 0,0 15.583,-3.63761 20.621,0 l -2.902,-4.11127"
     style="fill:#282340;fill-opacity:1;fill-rule:nonzero;stroke:none;stroke-width:0.207745"
     id="path60800" /><path
     d="m 672.91005,640.18526 c 0,0 2.318,-5.64837 9.589,-6.05348 7.271,-0.4051 12.178,3.59815 12.178,3.59815 0,0 -11.532,-4.75113 -21.767,2.45533"
     style="fill:#282340;fill-opacity:1;fill-rule:nonzero;stroke:none;stroke-width:0.207745"
     id="path60802" /><path
     d="m 980.56305,561.70568 c -22.949,30.62991 -54.18,36.51117 -54.18,36.51117 -9.066,-7.24199 -9.296,-15.82185 -9.296,-15.82185 0,0 -8.742,-7.79667 -9.895,-11.534 -1.153,-3.73525 7.497,-14.99087 12.687,-13.83789 3.575,0.7832 5.651,3.64385 6.596,5.32866 -4.29,-9.66429 -0.854,-13.03184 5.235,-12.20293 6.345,0.85383 0.347,2.35375 4.89,7.44973 0.324,0.36978 0.692,0.66894 1.085,0.94731 0.831,0.57546 1.822,0.9681 2.952,1.17584 0.991,0.18489 2.098,0.2306 3.253,0.16204 0.598,-0.0249 1.222,-0.0935 1.845,-0.18489 1.176,-0.18489 2.374,-0.48405 3.621,-0.87669 1.913,-0.60038 3.897,-1.45421 5.835,-2.51371 7.934,-4.33771 11.279,-5.8127 17.322,-4.26708 6.021,1.52069 5.927,6.089 5.927,6.089 l 2.123,3.57529"
     style="fill:#4c4766;fill-opacity:1;fill-rule:nonzero;stroke:none;stroke-width:0.207745"
     id="path60804" /><path
     d="m 980.56305,561.70568 c -22.949,30.62991 -54.18,36.51117 -54.18,36.51117 15.939,-6.84935 30.585,-15.82185 40.594,-26.8718 9.988,-11.04788 13.586,-9.63937 13.586,-9.63937"
     style="fill:#282340;fill-opacity:1;fill-rule:nonzero;stroke:none;stroke-width:0.207745"
     id="path60806" /><path
     d="m 937.68505,558.54588 c 0.831,0.57546 1.822,0.9681 2.952,1.17584 -6.066,1.22154 -6.505,6.6416 -6.505,6.6416 l -2.582,-0.8289 c 0.553,-6.50449 5.696,-6.96568 6.135,-6.98854"
     style="fill:#282340;fill-opacity:1;fill-rule:nonzero;stroke:none;stroke-width:0.207745"
     id="path60808" /><path
     d="m 941.76705,567.00941 -2.699,0.0935 c -1.013,-3.82874 0.3,-6.11394 1.569,-7.38118 0.991,0.18489 2.098,0.2306 3.253,0.16204 -3.207,3.1598 -2.123,7.12565 -2.123,7.12565"
     style="fill:#282340;fill-opacity:1;fill-rule:nonzero;stroke:none;stroke-width:0.207745"
     id="path60810" /><path
     d="m 948.43305,565.53442 -2.675,0.34486 c -1.039,-2.72146 -0.738,-4.75113 -0.02,-6.18041 1.176,-0.18489 2.374,-0.48405 3.621,-0.87669 -2.215,3.29692 -0.923,6.71224 -0.923,6.71224"
     style="fill:#282340;fill-opacity:1;fill-rule:nonzero;stroke:none;stroke-width:0.207745"
     id="path60812" /><path
     d="m 691.61505,281.10882 c 0,0 5.923,31.96362 -6.054,44.70046 -11.976,12.73892 -4.055,2.27066 -0.482,-14.15158 3.574,-16.42223 0.852,-33.71907 6.536,-30.54888"
     style="fill:#8b8675;fill-opacity:1;fill-rule:nonzero;stroke:none;stroke-width:0.207745"
     id="path60814" /><path
     d="m 746.89205,266.84297 c 0,0 18.88,6.20327 28.756,23.64137 0,0 -13.188,-28.39041 -28.756,-23.64137"
     style="fill:#8b8675;fill-opacity:1;fill-rule:nonzero;stroke:none;stroke-width:0.207745"
     id="path60816" /><path
     d="m 256.51205,29.36564 c 2.518,0.0395 9.812,2.94374 9.812,2.94374 5.356,3.29691 8.335,5.09183 11.893,5.39098 3.542,0.3137 4.997,6.40062 4.997,6.40062 0,0 13.97,3.05593 14.76,-5.75246 0,0 -7.811,-11.0541 -8.358,-12.54571 -1.111,-2.96452 0.906,-7.4248 -2.231,-12.41276 -3.153,-5.00457 -4.649,-12.80124003 -4.649,-12.80124003 0,0 -3.102,-0.97432 -3.44,2.07953003 -0.337,3.08709 1.961,7.31677 1.389,8.63595 -0.116,0.26592 -0.251,0.51937 -0.419,0.7375 0,0 -0.02,0.0187 -0.03,0.0685 -0.595,0.86215 -1.478,1.49369 -2.373,1.55394 -0.05,0.0187 -0.129,0.0395 -0.21,0.027 -3.498,-0.0893 -9.633,-4.92978 -12.153,-7.33547 -3.496,-3.35508 -8.578,-7.70941 -9.722,-4.76151 -1.145,2.94582 2.667,2.75677 9.049,11.61917 l -0.64,0.91408 c 0.424,0.66478 -6.307,-2.69445 -11.675,-6.90129 -3.702,-2.88765 -4.479,0.54637 -3.835,2.03383 0.632,1.50407 4.78,3.86197 7.433,5.98513 1.766,1.3815 3.617,2.80871 4.72,3.65215 l -0.339,1.4376 c -9.144,-1.99643 -10.572,-5.43669 -12.518,-3.52751 -1.932,1.89048 3.795,5.77115 6.704,6.44424 1.254,0.29708 3.4,1.43344 5.436,2.62174 -7.291,-0.16204 -9.072,-2.49086 -10.287,-0.63362 -1.242,1.92164 4.171,4.08634 6.687,4.12582"
     style="fill:#e99676;fill-opacity:1;fill-rule:nonzero;stroke:none;stroke-width:0.207745"
     id="path60818" /><path
     d="m 279.77505,22.616 c -2.216,-4.18606 0.152,-9.82217 0.46,-10.50566 -0.595,0.86215 -1.478,1.49369 -2.373,1.55394 -1.913,5.89164 1.913,8.95172 1.913,8.95172"
     style="fill:#ef5640;fill-opacity:1;fill-rule:nonzero;stroke:none;stroke-width:0.207745"
     id="path60820" /><path
     d="m 667.54805,29.36564 c -2.518,0.0395 -9.814,2.94374 -9.814,2.94374 -5.356,3.29691 -8.335,5.09183 -11.891,5.39098 -3.544,0.3137 -4.997,6.40062 -4.997,6.40062 0,0 -13.97,3.05593 -14.76,-5.75246 0,0 7.811,-11.0541 8.358,-12.54571 1.109,-2.96452 -0.906,-7.4248 2.231,-12.41276 3.153,-5.00457 4.649,-12.80124003 4.649,-12.80124003 0,0 3.102,-0.97432 3.44,2.07953003 0.337,3.08709 -1.961,7.31677 -1.389,8.63595 0.116,0.26592 0.251,0.51937 0.419,0.7375 0,0 0.02,0.0187 0.03,0.0685 0.595,0.86215 1.48,1.49369 2.373,1.55394 0.05,0.0187 0.129,0.0395 0.212,0.027 3.498,-0.0893 9.633,-4.92978 12.153,-7.33547 3.496,-3.35508 8.578,-7.70941 9.722,-4.76151 1.145,2.94582 -2.667,2.75677 -9.049,11.61917 l 0.64,0.91408 c -0.424,0.66478 6.305,-2.69445 11.673,-6.90129 3.704,-2.88765 4.481,0.54637 3.835,2.03383 -0.63,1.50407 -4.778,3.86197 -7.431,5.98513 -1.766,1.3815 -3.617,2.80871 -4.72,3.65215 l 0.336,1.4376 c 9.145,-1.99643 10.575,-5.43669 12.521,-3.52751 1.93,1.89048 -3.797,5.77115 -6.704,6.44424 -1.254,0.29708 -3.403,1.43344 -5.436,2.62174 7.291,-0.16204 9.072,-2.49086 10.285,-0.63362 1.244,1.92164 -4.169,4.08634 -6.685,4.12582"
     style="fill:#e99676;fill-opacity:1;fill-rule:nonzero;stroke:none;stroke-width:0.207745"
     id="path60822" /><path
     d="m 644.28505,22.616 c 2.214,-4.18606 -0.152,-9.82217 -0.462,-10.50566 0.595,0.86215 1.48,1.49369 2.373,1.55394 1.913,5.89164 -1.911,8.95172 -1.911,8.95172"
     style="fill:#ef5640;fill-opacity:1;fill-rule:nonzero;stroke:none;stroke-width:0.207745"
     id="path60824" /><path
     d="m 544.77505,452.84528 -26.839,-166.17721 -53.741,6.00175 -53.74,-6.00175 -26.838,166.17721 -12.891,161.17057 c 0,0 4.099,13.35592 30.908,4.12997 0,0 19.888,-149.48907 22.965,-152.78183 3.074,-3.29276 34.658,-100.93493 34.658,-100.93493 h 9.878 c 0,0 31.581,97.64217 34.658,100.93493 3.075,3.29276 22.964,152.78183 22.964,152.78183 26.81,9.22595 30.906,-4.12997 30.906,-4.12997 l -12.888,-161.17057"
     style="fill:#8b8675;fill-opacity:1;fill-rule:nonzero;stroke:none;stroke-width:0.207745"
     id="path60826" /><path
     d="m 447.26605,125.74472 c 3.394,3.30315 20.095,9.26335 28.914,0 l 5.98,5.87295 c 0,0 -6.818,16.03375 -18.784,16.59466 -11.964,0.56091 -20.614,-14.26584 -20.614,-14.26584 l 4.504,-8.20177"
     style="fill:#30683d;fill-opacity:1;fill-rule:nonzero;stroke:none;stroke-width:0.207745"
     id="path60828" /><path
     d="m 494.56305,123.93526 c 19.989,-8.60687 84.571,-31.48373 84.571,-31.48373 0,0 43.414,-54.39177 52.268,-62.46474 0,0 9.611,1.73052 12.421,13.69662 0,0 -27.954,59.85962 -43.15,76.99649 -15.197,17.13688 -92.16,54.20064 -92.16,54.20064 l -13.95,-50.94528"
     style="fill:#30683d;fill-opacity:1;fill-rule:nonzero;stroke:none;stroke-width:0.207745"
     id="path60830" /><path
     d="m 425.01805,128.15377 c 5.945,-3.76226 35.802,16.21241 35.802,16.21241 0,0 38.815,-20.61245 47.925,-16.61959 0,0 8.208,10.98347 11.507,39.22431 3.299,28.24292 3.517,144.45749 3.517,144.45749 0,0 -26.097,9.23218 -61.395,9.23218 -40.24,0 -61.889,-11.54023 -61.889,-11.54023 0,0 -7.182,-160.9088 24.533,-180.96657"
     style="fill:#f5f1e2;fill-opacity:1;fill-rule:nonzero;stroke:none;stroke-width:0.207745"
     id="path60832" /><path
     d="m 448.84205,119.68273 c 0,0 4.299,13.52003 0,18.73028 0,0 4.465,9.36929 12.49,9.7827 9.27,0.47782 12.488,-9.7827 12.488,-9.7827 0,0 -4.903,-13.05885 0,-17.65001 l -24.978,-1.08027"
     style="fill:#e37b53;fill-opacity:1;fill-rule:nonzero;stroke:none;stroke-width:0.207745"
     id="path60834" /><path
     d="m 438.12505,106.37251 c 0,0 -9.047,-17.41525 -7.255,-36.02296 1.791,-18.60979 29.828,-22.87479 48.725,-13.73402 0,0 -5.609,-5.48446 -3.415,-7.00931 2.195,-1.52277 5.98,8.22878 5.98,8.22878 0,0 5.969,-1.82816 6.883,0 0.914,1.83023 -6.116,2.82948 -6.116,2.82948 0,0 12.195,6.7621 0.802,42.74974 l -45.604,2.95829"
     style="fill:#872b39;fill-opacity:1;fill-rule:nonzero;stroke:none;stroke-width:0.207745"
     id="path60836" /><path
     d="m 436.76405,95.34334 c 0,0 -6.745,-6.73094 -7.576,1.13844 -0.962,9.11792 7.318,12.79085 8.937,9.89073 1.618,-2.90219 -1.361,-11.02917 -1.361,-11.02917"
     style="fill:#e99676;fill-opacity:1;fill-rule:nonzero;stroke:none;stroke-width:0.207745"
     id="path60838" /><path
     d="m 484.00105,95.81907 c 0,0 6.748,-6.73301 7.577,1.13637 0.961,9.11792 -7.319,12.79085 -8.938,9.89073 -1.618,-2.90012 1.361,-11.0271 1.361,-11.0271"
     style="fill:#e99676;fill-opacity:1;fill-rule:nonzero;stroke:none;stroke-width:0.207745"
     id="path60840" /><path
     d="m 459.67205,128.36854 c -14.968,0 -23.415,-9.77647 -23.415,-39.10174 0,-15.12383 7.695,-24.4038 24.46,-24.4038 16.765,0 23.828,9.27789 23.828,24.4038 0,31.51074 -9.41,39.10174 -24.873,39.10174"
     style="fill:#e99676;fill-opacity:1;fill-rule:nonzero;stroke:none;stroke-width:0.207745"
     id="path60842" /><path
     d="m 479.58705,99.72675 c 0.263,1.50408 -1.05,2.98945 -2.932,3.31769 -1.88,0.32824 -3.619,-0.62531 -3.88,-2.12939 -0.264,-1.50407 1.049,-2.99152 2.931,-3.31768 1.88,-0.32824 3.619,0.62531 3.881,2.12938"
     style="fill:#e99676;fill-opacity:1;fill-rule:nonzero;stroke:none;stroke-width:0.207745"
     id="path60844" /><path
     d="m 448.80105,100.54527 c -0.1,1.52484 -1.727,2.65913 -3.632,2.53448 -1.905,-0.12464 -3.369,-1.46044 -3.269,-2.98529 0.1,-1.52277 1.724,-2.65706 3.629,-2.53241 1.907,0.12257 3.372,1.45837 3.272,2.98322"
     style="fill:#e99676;fill-opacity:1;fill-rule:nonzero;stroke:none;stroke-width:0.207745"
     id="path60846" /><path
     d="m 472.74105,84.50944 c -0.197,0 -0.394,-0.0748 -0.54,-0.2306 -2.075,-2.17509 -5.707,-2.0816 -5.761,-2.0816 -0.405,0.004 -0.758,-0.30954 -0.77,-0.72503 -0.02,-0.41134 0.309,-0.75619 0.723,-0.77073 0.158,-0.0104 4.358,-0.10803 6.888,2.54487 0.285,0.30123 0.275,0.77281 -0.02,1.05742 -0.146,0.13919 -0.333,0.20567 -0.518,0.20567"
     style="fill:#872b39;fill-opacity:1;fill-rule:nonzero;stroke:none;stroke-width:0.207745"
     id="path60848" /><path
     d="m 444.55905,84.50944 c -0.185,0 -0.37,-0.0665 -0.516,-0.20567 -0.299,-0.28461 -0.309,-0.75619 -0.03,-1.05742 2.529,-2.6529 6.725,-2.55111 6.889,-2.54487 0.414,0.0145 0.736,0.35939 0.723,0.77073 -0.01,0.41341 -0.374,0.73126 -0.771,0.72503 -0.03,-0.006 -3.706,-0.0748 -5.756,2.0816 -0.15,0.15581 -0.345,0.2306 -0.542,0.2306"
     style="fill:#872b39;fill-opacity:1;fill-rule:nonzero;stroke:none;stroke-width:0.207745"
     id="path60850" /><path
     d="m 471.44705,92.4536 c 0,1.85724 -0.835,3.36547 -1.868,3.36547 -1.034,0 -1.871,-1.50823 -1.871,-3.36547 0,-1.85931 0.837,-3.36754 1.871,-3.36754 1.033,0 1.868,1.50823 1.868,3.36754"
     style="fill:#000000;fill-opacity:1;fill-rule:nonzero;stroke:none;stroke-width:0.207745"
     id="path60852" /><path
     d="m 451.46005,92.4536 c 0,1.85724 -0.837,3.36547 -1.87,3.36547 -1.034,0 -1.869,-1.50823 -1.869,-3.36547 0,-1.85931 0.835,-3.36754 1.869,-3.36754 1.033,0 1.87,1.50823 1.87,3.36754"
     style="fill:#000000;fill-opacity:1;fill-rule:nonzero;stroke:none;stroke-width:0.207745"
     id="path60854" /><path
     d="m 451.46005,112.34102 c 0,0 13.198,1.69728 19.987,-1.56016 0,0 -3.837,8.98704 -11.048,8.18099 -7.209,-0.80605 -8.939,-6.62083 -8.939,-6.62083"
     style="fill:#ffffff;fill-opacity:1;fill-rule:nonzero;stroke:none;stroke-width:0.207745"
     id="path60856" /><path
     d="m 482.98505,99.14091 c 0,0 -0.467,-16.27889 -6.805,-28.79136 0,0 -11.173,5.16246 -13.631,3.943 -2.459,-1.21739 2.344,-3.943 2.344,-3.943 0,0 -18.436,6.07654 -19.543,4.85915 -1.109,-1.21946 6.11,-4.85915 6.11,-4.85915 l -11.484,3.943 c 0,0 -3.54,14.64809 -2.076,24.84836 0,0 -4.936,-8.51546 -5.544,-14.39464 -0.611,-5.88126 1.973,-22.64419 19.272,-23.86158 17.299,-1.21946 27.013,2.70484 31.299,10.64693 4.286,7.94208 3.754,17.7144 0.06,27.60929"
     style="fill:#872b39;fill-opacity:1;fill-rule:nonzero;stroke:none;stroke-width:0.207745"
     id="path60858" /><path
     d="m 462.28105,107.63768 c -1.454,0 -2.933,-0.37602 -3.38,-0.50067 l 0.426,-1.53108 c 1.571,0.43211 4.033,0.69179 4.571,0.0582 0.185,-0.22021 0.112,-0.73126 -0.206,-1.40228 -2.163,-4.60155 -2.613,-16.2498 -2.632,-16.74216 l 1.591,-0.0582 c 0,0.11842 0.455,11.81653 2.481,16.12308 0.619,1.31295 0.612,2.35791 -0.02,3.10371 -0.613,0.72711 -1.716,0.9494 -2.832,0.9494"
     style="fill:#e99676;fill-opacity:1;fill-rule:nonzero;stroke:none;stroke-width:0.207745"
     id="path60860" /><path
     d="m 478.84305,130.02842 c 0,0 27.09,84.09513 29.67,152.52007 0,0 9.776,2.69237 20.787,-12.30058 11.008,-14.99295 4.46,-133.74408 -16.632,-153.51724 0,0 -9.569,-2.18132 -33.825,13.29775"
     style="fill:#4b925b;fill-opacity:1;fill-rule:nonzero;stroke:none;stroke-width:0.207745"
     id="path60862" /><path
     d="m 483.25705,144.73676 c 0,0 4.849,-11.26808 2.695,-18.99204 -2.154,-7.72603 -9.772,0 -9.772,0 0,0 3.078,12.64959 7.077,18.99204"
     style="fill:#30683d;fill-opacity:1;fill-rule:nonzero;stroke:none;stroke-width:0.207745"
     id="path60864" /><path
     d="m 428.88205,123.93526 c -19.987,-8.60687 -84.571,-31.48373 -84.571,-31.48373 0,0 -43.522,-55.97686 -52.376,-64.04983 0,0 -10.957,6.19911 -11.7,19.02943 0,0 27.343,56.1119 42.537,73.24877 15.197,17.13688 92.162,54.20064 92.162,54.20064 l 13.948,-50.94528"
     style="fill:#30683d;fill-opacity:1;fill-rule:nonzero;stroke:none;stroke-width:0.207745"
     id="path60866" /><path
     d="m 444.60405,130.02842 c 0,0 -27.09,84.09513 -29.67,152.52007 0,0 -9.778,2.69237 -20.787,-12.30058 -11.008,-14.99295 -4.46,-133.74408 16.63,-153.51724 0,0 9.569,-2.18132 33.827,13.29775"
     style="fill:#4b925b;fill-opacity:1;fill-rule:nonzero;stroke:none;stroke-width:0.207745"
     id="path60868" /><path
     d="m 440.18805,144.73676 c 0,0 -4.849,-11.26808 -2.695,-18.99204 2.155,-7.72603 9.773,0 9.773,0 0,0 -3.077,12.64959 -7.078,18.99204"
     style="fill:#30683d;fill-opacity:1;fill-rule:nonzero;stroke:none;stroke-width:0.207745"
     id="path60870" /><path
     d="m 581.56005,657.356 h -53.787 c -3.758,-21.38152 2.237,-42.78547 2.237,-42.78547 l 24.589,-4.22138 c 2.235,13.51588 4.936,18.84454 8.671,21.58885 0.02,0 0.02,0 0.02,0 2.722,1.98396 5.975,2.63005 10.034,4.03648 4.635,1.61418 7.08,4.54359 8.304,7.72624 2.422,6.31919 -0.07,13.65528 -0.07,13.65528"
     style="fill:#d53875;fill-opacity:1;fill-rule:nonzero;stroke:none;stroke-width:0.207745"
     id="path60872" /><path
     d="m 581.63105,643.70072 c -13.263,1.66196 -42.395,4.49747 -40.618,-3.18265 1.477,-6.41121 13.769,-8.14173 22.257,-8.58007 0.02,0 0.02,0 0.02,0 2.722,1.98396 5.975,2.63005 10.034,4.03648 4.635,1.61418 7.08,4.54359 8.304,7.72624"
     style="fill:#dc578a;fill-opacity:1;fill-rule:nonzero;stroke:none;stroke-width:0.207745"
     id="path60874" /><path
     d="m 401.42305,657.356 h -53.788 c 0,0 -1.705,-5.02826 -0.922,-10.3565 0.646,-4.33584 2.952,-8.88109 9.157,-11.02502 4.66,-1.61418 8.235,-2.21456 11.164,-4.95887 3.183,-2.99983 5.558,-8.53416 7.564,-20.66646 l 24.589,4.22138 c 0,0 5.973,21.40395 2.236,42.78547"
     style="fill:#d53875;fill-opacity:1;fill-rule:nonzero;stroke:none;stroke-width:0.207745"
     id="path60876" /><path
     d="m 346.71305,646.9995 c 0.646,-4.33584 2.952,-8.88109 9.157,-11.02502 4.66,-1.61418 8.235,-2.21456 11.164,-4.95887 6.804,2.09822 16.329,5.94982 19.281,11.78516 4.107,8.00462 -27.331,6.73551 -39.602,4.19873"
     style="fill:#dc578a;fill-opacity:1;fill-rule:nonzero;stroke:none;stroke-width:0.207745"
     id="path60878" /><path
     d="m 787.57905,653.50379 c 0,2.26068 -0.233,3.85221 -0.233,3.85221 h -65.342 c 0,-1.29279 0.02,-2.58476 0.09,-3.85221 0.74,-17.09097 6.137,-31.92187 6.137,-31.92187 l 16.329,-7.01139 c 1.406,8.41782 5.029,13.79218 9.573,17.29891 1.199,0.94524 2.445,1.72844 3.735,2.39738 0.6,0.32408 1.201,0.62323 1.822,0.89953 1.363,0.62324 2.769,1.13014 4.176,1.54563 5.767,1.75336 11.602,2.12294 15.684,2.74451 6.966,1.08422 8.028,9.13434 8.028,14.0473"
     style="fill:#d2dadc;fill-opacity:1;fill-rule:nonzero;stroke:none;stroke-width:0.207745"
     id="path60880" /><path
     d="m 787.57905,653.50379 c 0,2.26068 -0.233,3.85221 -0.233,3.85221 h -65.342 c 0,-1.29279 0.02,-2.58476 0.09,-3.85221 h 65.484"
     style="fill:#4b925b;fill-opacity:1;fill-rule:nonzero;stroke:none;stroke-width:0.207745"
     id="path60882" /><path
     d="m 757.86905,634.26682 -9.064,2.90635 -1.913,-3.32184 7.242,-1.98189 c 1.199,0.94524 2.445,1.72844 3.735,2.39738"
     style="fill:#4b925b;fill-opacity:1;fill-rule:nonzero;stroke:none;stroke-width:0.207745"
     id="path60884" /><path
     d="m 763.86705,636.71198 -6.112,4.05933 -3.76,-1.4754 5.696,-4.12956 c 1.363,0.62324 2.769,1.13014 4.176,1.54563"
     style="fill:#4b925b;fill-opacity:1;fill-rule:nonzero;stroke:none;stroke-width:0.207745"
     id="path60886" /><path
     d="m 537.92105,653.50379 c -0.16,2.21456 -0.737,3.85221 -0.737,3.85221 h -43.523 c -0.554,-1.27015 -0.947,-2.53677 -1.223,-3.85221 -4.29,-20.8283 24.634,-46.31444 24.634,-46.31444 l 9.18,12.24656 c 0,0 -1.061,19.60676 6.71,23.68957 4.66,2.44495 5.261,7.05667 4.959,10.37831"
     style="fill:#d2dadc;fill-opacity:1;fill-rule:nonzero;stroke:none;stroke-width:0.207745"
     id="path60888" /><path
     d="m 492.43805,653.50379 h 45.483 c -0.16,2.21456 -0.737,3.85221 -0.737,3.85221 h -43.523 c -0.554,-1.27015 -0.947,-2.53677 -1.223,-3.85221"
     style="fill:#4b925b;fill-opacity:1;fill-rule:nonzero;stroke:none;stroke-width:0.207745"
     id="path60890" /><path
     d="m 530.97405,641.5624 c 0,0 -18.337,-4.17941 -26.697,1.23276 v -3.02705 c 0,0 15.423,-7.49564 26.697,1.79429"
     style="fill:#4b925b;fill-opacity:1;fill-rule:nonzero;stroke:none;stroke-width:0.207745"
     id="path60892" /><path
     d="m 527.34105,636.91141 c 0,0 -11.709,-5.35358 -23.064,0 l 1.296,-3.05385 c 0,0 13.564,-5.12922 21.768,3.05385"
     style="fill:#4b925b;fill-opacity:1;fill-rule:nonzero;stroke:none;stroke-width:0.207745"
     id="path60894" /><path
     d="m 767.85705,468.33682 c 0.02,17.50666 -15.522,160.23363 -15.522,160.23363 -15.546,1.54563 -28.002,-1.56847 -28.002,-1.56847 -4.267,-72.33262 -4.683,-134.53767 -4.683,-134.53767 l -74.499,-55.84182 -0.185,-0.13712 c 0,0 -0.276,1.26725 -0.783,3.52959 -3.692,16.37445 -19.306,84.96974 -25.81,100.67733 -7.404,17.8993 -88.356,93.16527 -88.356,93.16527 -15.039,-2.07537 -27.799,-12.96743 -27.799,-12.96743 29.062,-48.20721 68.687,-96.55152 68.687,-96.55152 3.091,-17.36747 5.306,-56.00179 6.621,-84.87833 0.02,-0.43834 0.05,-0.89953 0.07,-1.33788 0.877,-19.55918 1.315,-34.31945 1.315,-34.31945 l -13.655,-28.00194 86.748,-31.87637 19.443,24.88784 c 0,0 4.452,4.12789 11.464,10.72586 0.324,0.29916 0.646,0.59831 0.968,0.89954 26.04,24.56376 83.98,80.05865 83.98,87.89894"
     style="fill:#4c4766;fill-opacity:1;fill-rule:nonzero;stroke:none;stroke-width:0.207745"
     id="path60896" /><path
     d="m 577.52605,439.46028 c 0.02,-0.43834 0.05,-0.89953 0.07,-1.33788 18.267,-9.91774 15.199,-25.73959 15.153,-25.90163 l 1.13,-0.2306 c 0.05,0.16204 3.322,17.15973 -16.351,27.47011"
     style="fill:#282340;fill-opacity:1;fill-rule:nonzero;stroke:none;stroke-width:0.207745"
     id="path60898" /><path
     d="m 643.81305,425.4375 c 0.623,3.45895 1.084,7.19628 1.338,11.18499 l -0.185,-0.13712 c 0,0 -0.276,1.26725 -0.783,3.52959 -0.808,-27.12525 -11.993,-43.15485 -12.133,-43.33974 l 0.946,-0.66894 c 0.116,0.13711 7.173,10.33323 10.586,28.1162 13.194,-11.71682 0.277,-35.72797 0.14,-35.95857 l 1.013,-0.5526 c 0.14,0.25345 13.818,25.67104 -0.922,37.82619"
     style="fill:#282340;fill-opacity:1;fill-rule:nonzero;stroke:none;stroke-width:0.207745"
     id="path60900" /><path
     d="m 683.87705,380.43788 c -0.02,0.0229 -0.07,0.0229 -0.09,0.0457 -0.53,0.20775 -1.153,0.29916 -1.799,0.29916 -6.388,0 -17.114,-8.94965 -17.621,-9.388 l 0.761,-0.8746 c 3.483,2.95205 13.193,10.032 17.783,9.0182 0.324,0.29916 0.646,0.59831 0.968,0.89954"
     style="fill:#282340;fill-opacity:1;fill-rule:nonzero;stroke:none;stroke-width:0.207745"
     id="path60902" /><path
     d="m 571.32905,226.49892 c 0,0 26.385,-4.24631 39.608,4.1819 13.221,8.42821 30.58,30.42632 30.58,30.42632 0,0 -20.61,2.72146 -22.943,16.72138 0,0 -14.97,-35.65525 -47.245,-51.3296"
     style="fill:#c9c4b1;fill-opacity:1;fill-rule:nonzero;stroke:none;stroke-width:0.207745"
     id="path60904" /><path
     d="m 531.63305,240.26202 c -11.162,6.03291 -29.822,28.68749 -30.663,42.62094 -0.823,13.58859 9.242,26.08652 16.029,36.7106 21.176,33.15608 43.471,62.44811 52.944,101.3338 0.06,0.24722 48.436,19.44492 105.21,-48.80135 0,0 -32.08,-43.16316 -43.163,-79.91115 -4.512,-14.95763 -9.101,-30.84804 -17.766,-44.03153 -9.546,-14.52137 -25.891,-23.06384 -42.895,-21.68441 -14.389,1.16545 -28.7,7.81744 -39.696,13.7631"
     style="fill:#e1dccb;fill-opacity:1;fill-rule:nonzero;stroke:none;stroke-width:0.207745"
     id="path60906" /><path
     d="m 526.94805,226.3535 c 0,0 7.14,12.19878 3.841,18.90686 0,0 24.498,8.45729 24.498,-5.24972 0,0 -4.616,-10.27298 -2.878,-16.91458 l -25.461,3.25744"
     style="fill:#ef5640;fill-opacity:1;fill-rule:nonzero;stroke:none;stroke-width:0.207745"
     id="path60908" /><path
     d="m 581.38605,309.88564 c 0,0 -13.626,3.87236 -17.067,8.6962 -3.438,4.82384 -6.498,15.64527 -6.498,15.64527 h 23.565 l 4.431,-8.15399 5.187,-10.86506 -9.618,-5.32242"
     style="fill:#ef5640;fill-opacity:1;fill-rule:nonzero;stroke:none;stroke-width:0.207745"
     id="path60910" /><path
     d="m 558.85805,212.75244 c 0,0 9.569,-4.01363 3.378,-32.79046 -4.101,-19.06682 -10.007,-21.90877 -13.826,-22.07705 0,0 -4.67,-7.03424 -20.868,-3.66669 -11.095,2.30597 -19.945,9.04521 -23.843,21.51198 -4.067,13.01314 4.068,40.90705 14.782,43.68252 l 40.377,-6.6603"
     style="fill:#150d06;fill-opacity:1;fill-rule:nonzero;stroke:none;stroke-width:0.207745"
     id="path60912" /><path
     d="m 561.12005,193.30544 c 0,0 6.031,-8.3929 8.308,-0.12049 2.638,9.58327 -5.574,14.97425 -7.815,12.15723 -2.244,-2.81702 -0.493,-12.03674 -0.493,-12.03674"
     style="fill:#f57559;fill-opacity:1;fill-rule:nonzero;stroke:none;stroke-width:0.207745"
     id="path60914" /><path
     d="m 510.67105,202.14914 c 0,0 -8.405,-6.01006 -7.904,2.55526 0.579,9.92397 10.088,12.39198 11.307,9.00366 1.22,-3.38832 -3.403,-11.55892 -3.403,-11.55892"
     style="fill:#f57559;fill-opacity:1;fill-rule:nonzero;stroke:none;stroke-width:0.207745"
     id="path60916" /><path
     d="m 542.44405,232.67725 c 16.011,-2.64252 23.323,-14.592 18.148,-45.96148 -2.669,-16.18125 -12.539,-24.74865 -30.474,-21.79036 -17.936,2.96036 -23.853,14.13081 -21.183,30.31206 5.561,33.7066 16.966,40.16747 33.509,37.43978"
     style="fill:#f57559;fill-opacity:1;fill-rule:nonzero;stroke:none;stroke-width:0.207745"
     id="path60918" /><path
     d="m 516.08305,205.54992 c -0.01,1.65781 1.652,3.01438 3.723,3.03515 2.071,0.0166 3.762,-1.30879 3.777,-2.96451 0.01,-1.65573 -1.652,-3.01438 -3.723,-3.03308 -2.069,-0.0187 -3.76,1.30879 -3.777,2.96244"
     style="fill:#dc4b44;fill-opacity:1;fill-rule:nonzero;stroke:none;stroke-width:0.207745"
     id="path60920" /><path
     d="m 549.16405,200.99408 c 0.374,1.6121 2.315,2.53864 4.332,2.07121 2.015,-0.4695 3.347,-2.15847 2.971,-3.77057 -0.374,-1.6121 -2.315,-2.54072 -4.332,-2.07121 -2.015,0.4695 -3.347,2.15847 -2.971,3.77057"
     style="fill:#dc4b44;fill-opacity:1;fill-rule:nonzero;stroke:none;stroke-width:0.207745"
     id="path60922" /><path
     d="m 520.59105,188.07858 c -0.158,0 -0.318,-0.0457 -0.457,-0.14127 -0.37,-0.25345 -0.467,-0.75827 -0.214,-1.12598 2.238,-3.28652 6.731,-3.91599 6.924,-3.94092 0.47,-0.054 0.848,0.25345 0.91,0.69595 0.06,0.44249 -0.253,0.85175 -0.696,0.912 -0.04,0.004 -3.974,0.56714 -5.796,3.24497 -0.158,0.2306 -0.413,0.35525 -0.671,0.35525"
     style="fill:#150d06;fill-opacity:1;fill-rule:nonzero;stroke:none;stroke-width:0.207745"
     id="path60924" /><path
     d="m 550.73905,183.10309 c -0.17,0 -0.343,-0.0519 -0.488,-0.16412 -2.593,-1.95696 -6.488,-1.21739 -6.525,-1.21115 -0.447,0.0976 -0.867,-0.19736 -0.954,-0.63778 -0.09,-0.43834 0.2,-0.8663 0.638,-0.95147 0.187,-0.0374 4.645,-0.88707 7.817,1.50615 0.36,0.26799 0.428,0.77904 0.16,1.13428 -0.16,0.2119 -0.403,0.32409 -0.648,0.32409"
     style="fill:#150d06;fill-opacity:1;fill-rule:nonzero;stroke:none;stroke-width:0.207745"
     id="path60926" /><path
     d="m 523.50805,196.33228 c 0.328,1.9902 1.489,3.4548 2.593,3.27198 1.105,-0.18281 1.734,-1.94241 1.406,-3.93053 -0.326,-1.98812 -1.489,-3.45272 -2.593,-3.2699 -1.105,0.18073 -1.734,1.94033 -1.406,3.92845"
     style="fill:#000000;fill-opacity:1;fill-rule:nonzero;stroke:none;stroke-width:0.207745"
     id="path60928" /><path
     d="m 544.89105,192.80685 c 0.328,1.98812 1.49,3.45272 2.595,3.2699 1.105,-0.18281 1.735,-1.94241 1.406,-3.93053 -0.328,-1.99019 -1.489,-3.45272 -2.594,-3.2699 -1.106,0.18073 -1.735,1.94033 -1.407,3.93053"
     style="fill:#000000;fill-opacity:1;fill-rule:nonzero;stroke:none;stroke-width:0.207745"
     id="path60930" /><path
     d="m 550.89505,210.85988 c 0,0 -13.892,3.72694 -21.595,2.2478 0,0 5.324,6.70601 12.926,4.7719 7.603,-1.9341 8.669,-7.0197 8.669,-7.0197"
     style="fill:#ffffff;fill-opacity:1;fill-rule:nonzero;stroke:none;stroke-width:0.207745"
     id="path60932" /><path
     d="m 551.55105,172.15701 c 0,0 -18.073,13.08793 -40.761,14.08302 l 0.644,20.19489 c 0,0 -21.144,-38.96048 20.675,-45.85969 41.819,-6.89921 29.647,36.61711 29.647,36.61711 0,0 -1.296,-18.76975 -10.205,-25.03533"
     style="fill:#150d06;fill-opacity:1;fill-rule:nonzero;stroke:none;stroke-width:0.207745"
     id="path60934" /><path
     d="m 536.76805,205.43566 -0.116,-1.74713 c 0.02,-0.002 2.437,-0.18905 3.064,-1.68274 0.26,-0.61492 -0.768,-2.57396 -1.676,-4.30447 -1.259,-2.40153 -2.824,-5.39306 -3.49,-8.7149 l 1.716,-0.34278 c 0.614,3.07463 2.116,5.94151 3.323,8.24747 1.345,2.56358 2.317,4.41666 1.739,5.79401 -1.047,2.49294 -4.416,2.74015 -4.56,2.75054"
     style="fill:#dc4b44;fill-opacity:1;fill-rule:nonzero;stroke:none;stroke-width:0.207745"
     id="path60936" /><path
     d="m 561.35705,172.20687 c -30.401,-13.19388 -59.093,14.16197 -59.093,14.16197 0,0 -3.345,-22.16638 2.514,-27.35585 1.522,-1.36073 3.159,-2.55942 4.867,-3.62099 13.423,-8.46561 31.276,-8.30357 39.463,-5.39722 1.685,0.60039 2.975,1.31503 3.715,2.07537 4.842,5.02951 8.534,20.13672 8.534,20.13672"
     style="fill:#9bd7a8;fill-opacity:1;fill-rule:nonzero;stroke:none;stroke-width:0.207745"
     id="path60938" /><path
     d="m 557.66505,167.27085 c 0,0 -25.531,-5.05236 -49.335,10.70094 0,0 -1.523,-14.29908 1.315,-22.57979 13.423,-8.46561 31.276,-8.30357 39.463,-5.39722 4.774,5.44292 8.557,17.27607 8.557,17.27607"
     style="fill:#d2dadc;fill-opacity:1;fill-rule:nonzero;stroke:none;stroke-width:0.207745"
     id="path60940" /><path
     d="m 504.77805,183.76164 c 0,0 4.047,-17.19089 9.5,-22.03343 9.072,-8.05426 34.56,-10.81935 47.958,-5.97682 13.397,4.84254 0,19.48024 0,19.48024 0,0 -21.352,-15.29625 -57.458,8.53001"
     style="fill:#4b925b;fill-opacity:1;fill-rule:nonzero;stroke:none;stroke-width:0.207745"
     id="path60942" /><path
     d="m 544.20305,297.99432 c 0,0 10.436,16.16255 28.206,25.67104 0,0 22.231,-19.29743 51.055,-17.56068 0,0 -23.89,43.10291 -44.405,47.87689 -10.778,2.50748 -49.759,-23.30482 -49.759,-23.30482 0,0 7.782,-27.43272 14.903,-32.68243"
     style="fill:#f57559;fill-opacity:1;fill-rule:nonzero;stroke:none;stroke-width:0.207745"
     id="path60944" /><path
     d="m 505.77705,268.6919 c 9.548,-15.54555 31.579,7.43519 39.077,23.84704 7.495,16.41392 12.967,19.89365 12.967,19.89365 0,0 -22.01,9.19687 -21.855,25.69389 0,0 -51.028,-35.51191 -30.189,-69.43458"
     style="fill:#c9c4b1;fill-opacity:1;fill-rule:nonzero;stroke:none;stroke-width:0.207745"
     id="path60946" /><path
     d="m 572.40905,316.56464 c 0,0 13.408,-13.15441 57.495,-30.32245 l -5.694,-17.90761 c 5.059,-6.65407 14.357,-6.65407 14.357,-6.65407 0,0 22.589,31.89508 18.7,41.42226 -2.429,5.95189 -49.543,12.1967 -84.858,13.46187"
     style="fill:#ef5640;fill-opacity:1;fill-rule:nonzero;stroke:none;stroke-width:0.207745"
     id="path60948" /><path
     d="m 620.69105,290.54043 c 0,0 0.349,-1.88632 1.978,-4.18606 1.628,-2.29973 1.188,-6.48579 1.772,-7.78212 0.586,-1.2984 4.053,-6.60005 6.355,-7.63255 2.302,-1.03249 5.322,-2.71938 5.964,0.20359 0.642,2.9209 -4.124,2.09199 -6.263,6.29467 0,0 4.682,-1.51446 8.395,-0.6357 3.714,0.88084 4.767,4.27539 0.178,4.16321 -3.66,-0.0914 -8.374,2.51995 -8.374,2.51995 0,0 4.77,0.71672 3.999,2.91466 -1.064,3.04138 -6.88,1.1696 -14.004,4.14035"
     style="fill:#f57559;fill-opacity:1;fill-rule:nonzero;stroke:none;stroke-width:0.207745"
     id="path60950" /><path
     d="m 294.62505,350.59117 c 3.941,10.09017 20.085,27.38909 20.085,27.38909 0,0 39.438,-23.64137 57.632,-13.69455 18.195,9.94683 32.654,16.01506 44.454,11.68358 11.797,-4.33148 -38.799,-96.35208 -38.799,-96.35208 l -65.604,-25.03326 c 0,0 -1.431,16.59258 -8.926,19.54048 -7.496,2.9479 -15.488,30.33699 -14.952,35.52646 0.536,5.18946 6.11,40.94028 6.11,40.94028"
     style="fill:#463c75;fill-opacity:1;fill-rule:nonzero;stroke:none;stroke-width:0.207745"
     id="path60952" /><path
     d="m 368.43705,378.58272 c 0,0 -16.915,33.15816 -51.841,75.62537 0,0 -3.579,50.50071 -95.934,129.95689 l -9.669,-7.60554 c 0,0 55.001,-86.15388 66.001,-112.56864 11.002,-26.41477 -6.081,-50.61705 44.53,-117.42988 l 46.913,32.0218"
     style="fill:#f7824e;fill-opacity:1;fill-rule:nonzero;stroke:none;stroke-width:0.207745"
     id="path60954" /><path
     d="m 314.59605,319.9031 c -14.563,27.89598 -19.45,63.55539 -19.45,63.55539 l -6.631,16.7297 c 0,0 23.521,12.6849 50.682,17.29891 l 10.894,-28.83083 -35.495,-68.75317"
     style="fill:#d53875;fill-opacity:1;fill-rule:nonzero;stroke:none;stroke-width:0.207745"
     id="path60956" /><path
     d="m 390.54505,375.96929 c 0,0 7.211,36.51947 6.023,91.49085 0,0 28.415,41.90214 4.965,161.45517 h -12.301 c 0,0 -10.049,-101.71605 -17.737,-129.27964 -7.689,-27.56152 -36.079,-36.01881 -37.617,-119.82102 l 56.667,-3.84536"
     style="fill:#f9a876;fill-opacity:1;fill-rule:nonzero;stroke:none;stroke-width:0.207745"
     id="path60958" /><path
     d="m 397.75605,415.17283 c 0,0 -23.135,4.15282 -63.89,2.23741 l -0.646,-4.58909 -0.16,-1.17791 -4.221,-29.70752 c 0,0 -3.923,-4.84253 -7.959,-12.73061 -0.484,-0.92238 -0.945,-1.8697 -1.407,-2.86064 -5.488,-11.69396 -10.356,-28.69373 -4.89,-46.42891 l 8.605,0.39056 1.199,0.0706 28.785,1.31295 1.221,0.0706 9.457,0.43834 1.477,0.0685 6.135,0.2763 c 0,0 31.184,28.07049 25.625,79.96724 l 0.393,7.21914 0.05,1.17584 0.231,4.26708"
     style="fill:#dc578a;fill-opacity:1;fill-rule:nonzero;stroke:none;stroke-width:0.207745"
     id="path60960" /><path
     d="m 324.38705,320.37675 c -0.809,2.37453 -6.252,19.99753 -3.507,48.82836 -0.484,-0.92238 -0.945,-1.8697 -1.407,-2.86064 -2.052,-26.36283 2.676,-42.80792 3.715,-46.03835 0.137,-0.39056 0.208,-0.57545 0.208,-0.5983 l 1.082,0.39056 c 0,0.0229 -0.05,0.11633 -0.09,0.27837"
     style="fill:#d53875;fill-opacity:0.929412;fill-rule:nonzero;stroke:none;stroke-width:0.207745"
     id="path60962" /><path
     d="m 397.52505,410.90575 c -8.187,2.09822 -22.073,2.67575 -35.267,2.67575 -11.831,0 -23.063,-0.48405 -29.038,-0.76035 l -0.16,-1.17791 c 10.356,0.50897 37.618,1.56847 55.194,-0.34486 l -1.131,-18.56823 c 0.277,-21.65741 -6.273,-40.15501 -12.593,-52.9334 -16.007,-2.90635 -20.413,-14.76235 -21.358,-18.10705 -0.14,-0.52975 -0.208,-0.85175 -0.208,-0.8746 l 1.13,-0.1849 c 0,0.0229 0.09,0.43835 0.299,1.13014 1.039,3.45895 5.329,13.76933 19.468,16.72138 -4.267,-8.32641 -8.304,-14.02278 -10.011,-16.28304 -0.507,-0.69179 -0.829,-1.08443 -0.852,-1.10728 l 0.877,-0.7375 c 0.05,0.0457 0.575,0.69179 1.452,1.91333 5.351,7.26484 23.411,34.59784 22.949,70.41721 l 1.131,18.47475 c 3.068,-0.3677 5.812,-0.8289 8.073,-1.42928 l 0.05,1.17584"
     style="fill:#d53875;fill-opacity:0.929412;fill-rule:nonzero;stroke:none;stroke-width:0.207745"
     id="path60964" /><path
     d="m 338.59405,194.76796 c -9.18,-5.05443 -75.332,20.88667 -75.332,20.88667 0,0 -9.787,17.45888 -3.688,24.302 6.102,6.84519 27.747,3.82666 34.378,0 6.631,-3.82666 24.196,-6.72055 24.196,-6.72055 l 20.446,-38.46812"
     style="fill:#897fbd;fill-opacity:1;fill-rule:nonzero;stroke:none;stroke-width:0.207745"
     id="path60966" /><path
     d="m 397.09305,139.69687 c 0,0 13.666,5.27464 18.664,21.01755 4.998,15.74291 -9.945,55.60084 -4.78,73.92186 5.164,18.32103 4.362,52.91678 -11.767,60.22109 -16.129,7.30431 -49.206,-5.76492 -56.309,-25.75621 -7.103,-19.98921 -4.037,-95.71846 9.614,-121.47467 13.651,-25.75621 41.292,-12.78254 44.578,-7.92962"
     style="fill:#512f22;fill-opacity:1;fill-rule:nonzero;stroke:none;stroke-width:0.207745"
     id="path60968" /><path
     d="m 381.39005,207.62114 c 3.604,3.88483 12.869,-3.03931 12.869,-3.03931 0,0 -0.189,34.35477 -10.173,36.9869 -9.982,2.63421 -35.431,-27.06085 -34.384,-35.13381 1.047,-8.07297 23.696,-7.43104 31.688,1.18622"
     style="fill:#897fbd;fill-opacity:1;fill-rule:nonzero;stroke:none;stroke-width:0.207745"
     id="path60970" /><path
     d="m 342.60405,199.32539 c 0,0 10.1,8.57571 27.694,12.65582 17.596,4.07803 27.132,-4.19437 36.131,7.15058 13.506,17.02885 -8.467,48.42118 -20.031,64.68968 -4.308,6.06407 -13.405,22.88518 -15.242,39.0228 0,0 -30.53,8.87071 -56.857,-2.64459 l -1.966,-37.45433 c 0,0 -16.596,-50.47578 30.271,-83.41996"
     style="fill:#282340;fill-opacity:1;fill-rule:nonzero;stroke:none;stroke-width:0.207745"
     id="path60972" /><path
     d="m 374.46605,235.46934 c 0,0 13.95,-33.24541 17.988,-35.36857 4.041,-2.12315 14.285,2.97283 16.343,7.52037 2.057,4.54753 0,14.46735 0,14.46735 0,0 -11.002,-12.55818 -34.331,13.38085"
     style="fill:#897fbd;fill-opacity:1;fill-rule:nonzero;stroke:none;stroke-width:0.207745"
     id="path60974" /><path
     d="m 441.28005,375.96306 c -6.342,12.98405 -21.912,16.72138 -21.912,16.72138 0,0 -1.176,-1.79907 -3.16,-5.02743 -0.208,-0.32408 -0.439,-0.69179 -0.646,-1.06157 -12.247,-19.85834 -49.683,-83.40334 -48.943,-116.45555 0.854,-39.48608 26.616,-61.16841 26.616,-61.16841 13.078,3.1141 17.208,6.68939 17.208,6.68939 0,0 4.404,22.46553 0.367,49.49729 -4.036,27.00892 -11.369,34.1595 -7.68,36.18916 3.667,2.00682 0,6.0433 0,6.0433 0,0 21.705,30.23727 25.765,39.64811 2.628,6.13471 7.102,16.56143 9.895,23.06592 0.182,0.46119 0.367,0.92239 0.552,1.33788 1.176,2.74431 1.938,4.52053 1.938,4.52053"
     style="fill:#6053a1;fill-opacity:1;fill-rule:nonzero;stroke:none;stroke-width:0.207745"
     id="path60976" /><path
     d="m 403.58105,215.65463 c 0,0 -15.541,11.51946 -6.488,29.1196 l 43.074,44.59245 c -23.641,25.19322 -25.985,35.53476 -43.074,47.14978 l 6.488,10.04446 c 0,0 59.851,-45.9968 59.941,-57.19424 0.04,-4.79268 -36.559,-62.76805 -59.941,-73.71205"
     style="fill:#f9a876;fill-opacity:1;fill-rule:nonzero;stroke:none;stroke-width:0.207745"
     id="path60978" /><path
     d="m 396.15005,336.51853 c 0,0 -8.21,0.912 -13.381,2.20418 -5.171,1.29217 -12.064,2.58434 -12.28,3.66254 -0.214,1.07612 11.418,0 11.418,0 0,0 -9.477,3.89314 -9.693,5.39306 -0.216,1.49991 12.063,-1.08443 12.063,-1.08443 0,0 -7.755,4.73866 -7.325,6.03083 0.432,1.29217 9.984,-1.93826 9.984,-1.93826 0,0 -1.776,4.52261 -3.618,6.67692 0,0 1.851,1.01795 5.604,-3.15356 3.757,-4.16944 9.752,-2.83157 14.497,-6.5315 4.745,-3.70202 -2.948,-11.81653 -7.269,-11.25978"
     style="fill:#f9a876;fill-opacity:1;fill-rule:nonzero;stroke:none;stroke-width:0.207745"
     id="path60980" /><path
     d="m 352.13505,204.56106 c 0,0 -11.823,7.64085 -19.289,26.09275 -7.469,18.45191 -31.027,53.17439 -36.547,62.14481 -5.517,8.9725 -1.674,57.79255 -1.674,57.79255 0,0 -6.92,-29.59949 -9.995,-41.13349 -3.076,-11.53192 9.931,-40.02828 11.885,-41.54066 1.953,-1.51239 11.948,1.25477 10.026,-10.31662 -1.921,-11.57139 24.896,-61.42808 32.053,-62.83244 0,0 11.468,2.15432 13.541,9.7931"
     style="fill:#6053a1;fill-opacity:1;fill-rule:nonzero;stroke:none;stroke-width:0.207745"
     id="path60982" /><path
     d="m 315.57605,207.05815 c -0.208,0.39056 -0.438,0.7832 -0.715,1.15298 -2.675,3.85159 -7.657,6.91999 -7.657,6.91999 0,0 -9.02,12.6392 -9.112,14.09133 -0.09,1.24647 -15.662,12.54779 -22.58,12.3172 h -0.02 c -0.948,-0.0229 -1.731,-0.2763 -2.286,-0.7832 -4.105,-3.87652 13.98,-36.39691 17.968,-43.4083 0.254,-0.46327 0.461,-0.80812 0.601,-1.03872 0.09,-0.18489 0.162,-0.29915 0.162,-0.29915 0,0 -3.185,-11.856 10.102,-9.64144 11.048,1.82192 13.238,10.60953 14.393,16.49079 0.276,1.40643 -0.116,2.83779 -0.854,4.19852"
     style="fill:#6053a1;fill-opacity:1;fill-rule:nonzero;stroke:none;stroke-width:0.207745"
     id="path60984" /><path
     d="m 269.18705,219.34834 c 9.126,-11.99727 41.239,-35.2647 58.154,-42.15352 l 4.229,7.86107 c 0,0 -32.686,28.73527 -40.364,41.02961 -7.679,12.29227 -17.191,17.37579 -26.278,13.28114 -9.089,-4.09258 2.339,-17.4942 4.259,-20.0183"
     style="fill:#f9a876;fill-opacity:1;fill-rule:nonzero;stroke:none;stroke-width:0.207745"
     id="path60986" /><path
     d="m 312.39305,204.59014 -1.73,1.98396 -0.877,1.0138 -2.86,3.27614 c 0,0 -7.197,8.71697 -6.918,12.22371 0.205,2.51371 -13.655,13.76933 -24.496,18.4519 -4.406,1.9154 -8.326,2.74431 -10.611,1.42928 -7.84,-4.52053 -6.089,-18.10497 -1.637,-27.30806 3.874,-8.02727 21.013,-18.38335 25.417,-20.91991 0.555,-0.34694 0.9,-0.55261 1.016,-0.60039 0.02,-0.0229 0.02,-0.0229 0.02,-0.0229 l 1.637,-6.3653 c 0,0 5.975,-3.59814 10.68,-1.38358 0,0 -10.381,0.43834 -8.673,4.47482 1.753,4.05934 16.146,13.60729 19.029,13.74648"
     style="fill:#897fbd;fill-opacity:1;fill-rule:nonzero;stroke:none;stroke-width:0.207745"
     id="path60988" /><path
     d="m 350.08005,171.30733 c -10.447,4.28993 -8.949,13.74648 -18.52,13.74648 -5.929,0 -6.712,-6.78079 -6.712,-6.78079 2.675,-5.78985 4.381,-15.66189 4.751,-20.36731 0.393,-4.70542 1.961,-2.8835 1.961,-2.8835 0,-0.43834 -0.02,-0.85175 -0.05,-1.26724 -0.139,-3.1598 -0.716,-5.46785 1.361,-4.10504 2.352,1.52069 3.16,10.47034 3.16,10.47034 1.936,-13.05469 -0.945,-14.99295 1.315,-13.83997 3.089,1.57056 3.112,13.10247 3.112,13.44733 2.491,-7.58892 1.824,-11.92456 3.552,-10.19404 1.754,1.75337 -0.876,15.68474 -1.913,20.80565 -0.231,1.15298 -0.393,1.86763 -0.393,1.86763 8.281,-4.05934 8.372,-0.89954 8.372,-0.89954"
     style="fill:#f9a876;fill-opacity:1;fill-rule:nonzero;stroke:none;stroke-width:0.207745"
     id="path60990" /><path
     d="m 342.10105,170.33924 c -0.231,1.15298 -0.393,1.86763 -0.393,1.86763 0,0 -3.828,-0.36979 -6.618,3.76018 0,0 0.783,-5.5364 7.011,-5.62781"
     style="fill:#f7824e;fill-opacity:1;fill-rule:nonzero;stroke:none;stroke-width:0.207745"
     id="path60992" /><path
     d="m 332.13505,164.38735 c 0.07,-1.10728 0.532,-7.44973 -0.575,-9.36514 0,-0.43834 -0.02,-0.85175 -0.05,-1.26724 2.398,0.50689 0.877,9.2945 0.621,10.63238"
     style="fill:#f7824e;fill-opacity:1;fill-rule:nonzero;stroke:none;stroke-width:0.207745"
     id="path60994" /><path
     d="m 338.61905,219.41274 c 0,0 7.061,-19.13746 9.307,-23.4087 2.248,-4.27331 13.946,-3.53997 22.8,-1.8884 8.854,1.65157 10.664,13.5055 10.664,13.5055 0,0 -26.937,-12.70983 -42.771,11.7916"
     style="fill:#897fbd;fill-opacity:1;fill-rule:nonzero;stroke:none;stroke-width:0.207745"
     id="path60996" /><path
     d="m 384.08605,181.74859 c 0,0 -8.459,15.62034 -8.324,32.94211 0,0 -13.74,9.33813 -18.658,-2.35791 0,0 5.219,-15.32326 2.697,-36.00842 -1.689,-13.85243 24.285,5.42422 24.285,5.42422"
     style="fill:#f7824e;fill-opacity:1;fill-rule:nonzero;stroke:none;stroke-width:0.207745"
     id="path60998" /><path
     d="m 357.10405,160.07457 c 0,0 -2.513,-8.95381 -6.988,-2.65914 -5.183,7.29185 0.1,14.3801 2.865,12.68906 2.765,-1.69104 4.123,-10.02992 4.123,-10.02992"
     style="fill:#f9a876;fill-opacity:1;fill-rule:nonzero;stroke:none;stroke-width:0.207745"
     id="path61000" /><path
     d="m 397.04505,183.09893 c 0,0 8.958,-2.49501 5.898,4.59532 -3.548,8.21423 -12.348,7.37079 -12.336,4.12997 0.01,-3.24082 6.438,-8.72529 6.438,-8.72529"
     style="fill:#f9a876;fill-opacity:1;fill-rule:nonzero;stroke:none;stroke-width:0.207745"
     id="path61002" /><path
     d="m 360.77105,199.12645 c -12.729,-7.1672 -15.23,-19.52594 -1.188,-44.46156 7.242,-12.86149 18.229,-17.06417 32.485,-9.0369 14.255,8.02726 15.817,19.29742 8.573,32.1589 -15.086,26.79286 -26.722,28.74359 -39.87,21.33956"
     style="fill:#f9a876;fill-opacity:1;fill-rule:nonzero;stroke:none;stroke-width:0.207745"
     id="path61004" /><path
     d="m 391.42005,184.30801 c -0.499,1.40435 -2.325,2.04005 -4.083,1.41682 -1.757,-0.62116 -2.777,-2.26442 -2.281,-3.66878 0.497,-1.40643 2.325,-2.04005 4.083,-1.4189 1.757,0.62324 2.777,2.26442 2.281,3.67086"
     style="fill:#f97c57;fill-opacity:1;fill-rule:nonzero;stroke:none;stroke-width:0.207745"
     id="path61006" /><path
     d="m 364.84705,170.26237 c -0.812,1.24855 -2.738,1.43552 -4.3,0.41757 -1.561,-1.02003 -2.167,-2.85649 -1.353,-4.10504 0.815,-1.24854 2.74,-1.43551 4.301,-0.41756 1.562,1.01795 2.166,2.85649 1.352,4.10503"
     style="fill:#f97c57;fill-opacity:1;fill-rule:nonzero;stroke:none;stroke-width:0.207745"
     id="path61008" /><path
     d="m 393.24205,168.18493 c -0.329,0 -0.626,-0.22021 -0.709,-0.55053 -0.721,-2.83987 -3.868,-4.51222 -3.899,-4.52676 -0.358,-0.18697 -0.497,-0.62947 -0.31,-0.98679 0.185,-0.35524 0.623,-0.49651 0.985,-0.30954 0.154,0.081 3.76,1.99851 4.639,5.46577 0.1,0.38848 -0.137,0.78735 -0.528,0.88499 -0.06,0.0166 -0.12,0.0229 -0.178,0.0229"
     style="fill:#512f22;fill-opacity:1;fill-rule:nonzero;stroke:none;stroke-width:0.207745"
     id="path61010" /><path
     d="m 375.76205,155.75139 c -0.129,0 -0.26,-0.0353 -0.378,-0.10595 -0.03,-0.0187 -3.098,-1.84062 -5.896,-0.98678 -0.386,0.12049 -0.794,-0.0976 -0.91,-0.48405 -0.116,-0.3864 0.1,-0.79358 0.486,-0.912 3.422,-1.04911 6.928,1.04496 7.076,1.13429 0.345,0.20774 0.455,0.65439 0.245,1.00133 -0.135,0.22644 -0.376,0.35316 -0.623,0.35316"
     style="fill:#512f22;fill-opacity:1;fill-rule:nonzero;stroke:none;stroke-width:0.207745"
     id="path61012" /><path
     d="m 387.98105,174.22615 c -0.891,1.58094 -2.324,2.4597 -3.201,1.96526 -0.879,-0.49443 -0.868,-2.17716 0.02,-3.75602 0.891,-1.58094 2.324,-2.46178 3.201,-1.96735 0.879,0.49444 0.871,2.17717 -0.02,3.75811"
     style="fill:#000000;fill-opacity:1;fill-rule:nonzero;stroke:none;stroke-width:0.207745"
     id="path61014" /><path
     d="m 370.13605,164.65326 c -0.891,1.58094 -2.325,2.46178 -3.201,1.96735 -0.879,-0.49444 -0.869,-2.17717 0.02,-3.75811 0.891,-1.57886 2.324,-2.4597 3.203,-1.96526 0.877,0.49443 0.866,2.17716 -0.02,3.75602"
     style="fill:#000000;fill-opacity:1;fill-rule:nonzero;stroke:none;stroke-width:0.207745"
     id="path61016" /><path
     d="m 363.95405,180.88229 c 0,0 7.302,5.5738 12.579,5.74207 0,0 -5.612,4.57039 -9.646,1.60587 -4.032,-2.96452 -2.933,-7.34794 -2.933,-7.34794"
     style="fill:#ffffff;fill-opacity:1;fill-rule:nonzero;stroke:none;stroke-width:0.207745"
     id="path61018" /><path
     d="m 384.14405,171.03103 c 0,0 3.353,-3.24082 4.724,-2.1003 1.372,1.14052 0.655,5.12922 0.655,5.12922 l 2.931,0.0748 -2.424,-0.9764 c 0,0 0.781,-4.14243 -0.727,-4.99834 -2.146,-1.22362 -5.159,2.87103 -5.159,2.87103"
     style="fill:#000000;fill-opacity:1;fill-rule:nonzero;stroke:none;stroke-width:0.207745"
     id="path61020" /><path
     d="m 371.51805,164.54939 c 0,0 1.032,-4.54754 -0.655,-5.12922 -1.685,-0.58169 -4.722,2.1003 -4.722,2.1003 l -1.585,-2.47009 2.092,1.56848 c 0,0 3.137,-2.81495 4.651,-1.9715 2.159,1.20284 0.219,5.90203 0.219,5.90203"
     style="fill:#000000;fill-opacity:1;fill-rule:nonzero;stroke:none;stroke-width:0.207745"
     id="path61022" /><path
     d="m 395.44805,150.95872 c 0,0 -4.56,-6.33622 -10.857,-1.30464 -6.297,5.02951 -20.5,13.0817 -27.487,10.42049 -6.988,-2.65914 15.286,-32.42898 34.625,-23.71201 19.339,8.71906 17.598,37.09701 9.554,46.11937 -8.044,9.02236 -4.238,0.617 -4.238,0.617 0,0 0.536,-12.80124 3.225,-21.28346 2.688,-8.4843 -4.822,-10.85675 -4.822,-10.85675"
     style="fill:#512f22;fill-opacity:1;fill-rule:nonzero;stroke:none;stroke-width:0.207745"
     id="path61024" /><path
     d="m 374.01305,177.9801 c -0.354,0 -0.723,-0.0478 -1.103,-0.14335 l 0.386,-1.52692 c 1.3,0.33031 1.94,-0.22852 2.248,-0.75412 0.434,-0.74372 0.372,-1.70143 0.03,-2.06082 -0.202,-0.20983 -0.544,-0.18905 -1.026,0.0644 l -0.732,-1.39813 c 1.604,-0.83929 2.56,-0.10802 2.898,0.24722 0.867,0.90784 0.95,2.63836 0.191,3.94092 -0.619,1.0595 -1.657,1.6308 -2.891,1.6308"
     style="fill:#f97c57;fill-opacity:1;fill-rule:nonzero;stroke:none;stroke-width:0.207745"
     id="path61026" /><path
     d="m 467.22805,287.60084 c -0.761,11.18707 -28.438,47.60475 -33.052,48.89692 -1.199,0.32408 -2.423,0.99302 -3.576,1.77622 -0.484,0.34693 -0.968,0.71464 -1.429,1.08443 -2.63,2.12107 -4.614,4.56623 -4.614,4.56623 -8.073,-0.52975 -30.744,-11.02502 -23.457,-13.33099 0.439,-0.13919 0.923,-0.39264 1.455,-0.76035 0.299,-0.20774 0.621,-0.43834 0.945,-0.73957 8.58,-7.19628 25.278,-36.3969 25.395,-38.60939 0.09,-2.4223 2.975,-2.8835 2.975,-2.8835 0,0 -15.754,-23.13447 -24.888,-25.92448 -9.133,-2.79209 -13.747,-13.83997 -13.747,-13.83997 -9.018,-38.17312 17.208,-32.17552 17.208,-32.17552 19.328,11.50906 57.545,60.73006 56.785,71.93997"
     style="fill:#897fbd;fill-opacity:1;fill-rule:nonzero;stroke:none;stroke-width:0.207745"
     id="path61028" /><path
     d="m 430.60005,338.27398 c -0.484,0.34693 -0.968,0.71464 -1.429,1.08443 -12.386,-0.85384 -22.765,-6.94284 -26.616,-9.52511 0.299,-0.20774 0.621,-0.43834 0.945,-0.73957 4.128,2.69861 14.692,8.71905 27.1,9.18025"
     style="fill:#463c75;fill-opacity:1;fill-rule:nonzero;stroke:none;stroke-width:0.207745"
     id="path61030" /><path
     d="m 315.57605,207.05815 c -0.208,0.39056 -0.438,0.7832 -0.715,1.15298 -1.776,-0.0686 -3.461,-0.2763 -5.075,-0.62323 -8.187,-1.65988 -14.484,-6.25104 -18.614,-10.23975 -0.945,-0.92446 -1.776,-1.79907 -2.491,-2.60719 0.555,-0.34694 0.9,-0.55261 1.016,-0.60039 0.599,0.66894 1.29,1.40851 2.076,2.16886 4.105,4.03648 10.495,8.7419 18.89,10.26467 1.568,0.29916 3.205,0.4612 4.913,0.48405"
     style="fill:#463c75;fill-opacity:1;fill-rule:nonzero;stroke:none;stroke-width:0.207745"
     id="path61032" /><path
     d="m 439.34205,371.44253 c -3.806,6.43386 -10.84,14.20767 -23.134,16.21448 -0.208,-0.32408 -0.439,-0.69179 -0.646,-1.06157 12.616,-1.89048 19.607,-10.07978 23.228,-16.49079 0.182,0.46119 0.367,0.92239 0.552,1.33788"
     style="fill:#3d6174;fill-opacity:1;fill-rule:nonzero;stroke:none;stroke-width:0.207745"
     id="path61034" /><path
     d="m 229.42805,581.31057 c 0,0 -2.883,2.83572 -5.881,8.05011 -3,5.21232 0.299,10.00915 -14.21,22.09575 0,0 -29.269,-17.13688 -42.484,-39.16407 0,0 0.231,-6.29674 6.62,-7.77381 3.436,-0.7832 12.892,3.64384 21.981,5.35151 1.29,0.23059 2.582,0.43834 3.851,0.52975 1.592,0.13919 3.16,0.16204 4.658,-0.0229 1.386,-0.13712 2.701,-0.43835 3.922,-0.94524 h 0.02 c 3.091,-1.26933 5.537,-3.78304 6.804,-8.18723 0,0 7.774,4.42704 2.584,11.92456 0,0 9.226,-4.03649 12.132,8.14152"
     style="fill:#d2dadc;fill-opacity:1;fill-rule:nonzero;stroke:none;stroke-width:0.207745"
     id="path61036" /><path
     d="m 209.33705,611.45643 c 0,0 -29.269,-17.13688 -42.484,-39.16407 0,0 4.912,-1.03872 8.972,6.24897 4.058,7.31262 35.889,23.89689 33.512,32.9151"
     style="fill:#acbfc3;fill-opacity:1;fill-rule:nonzero;stroke:none;stroke-width:0.207745"
     id="path61038" /><path
     d="m 209.45405,576.81289 c -2.377,3.75811 -2.329,-3.18265 -5.491,-6.43593 1.386,-0.13712 2.701,-0.43835 3.922,-0.94524 h 0.02 c 1.407,1.52277 3.413,4.45197 1.546,7.38117"
     style="fill:#acbfc3;fill-opacity:1;fill-rule:nonzero;stroke:none;stroke-width:0.207745"
     id="path61040" /><path
     d="m 200.25105,577.02064 c -2.514,2.37452 -3.322,-3.82874 -4.797,-7.15058 1.29,0.23059 2.582,0.43834 3.851,0.52975 1.475,2.00681 2.861,4.7989 0.946,6.62083"
     style="fill:#acbfc3;fill-opacity:1;fill-rule:nonzero;stroke:none;stroke-width:0.207745"
     id="path61042" /><path
     d="m 409.49505,657.356 h -41.401 c 0,0 -1.728,-5.76741 0,-12.11007 0.74,-2.74369 5.029,-5.30331 9.018,-8.87881 1.107,-0.99302 2.169,-2.02967 3.16,-3.20758 0.785,-0.92239 1.5,-1.93618 2.1,-3.02061 0.761,-1.31503 1.361,-2.74431 1.706,-4.31279 0.669,-3.13694 0.415,-6.82857 -1.384,-11.25561 0,0 14.094,-2.95206 19.121,4.72827 0,0 0.484,-3.55244 4.959,-1.17791 0,0 -0.646,7.12772 0.231,13.10247 0.876,5.94981 6.436,7.68053 2.49,26.13264"
     style="fill:#d2dadc;fill-opacity:1;fill-rule:nonzero;stroke:none;stroke-width:0.207745"
     id="path61044" /><path
     d="m 398.72405,632.42204 c -0.368,0.41549 -0.875,0.62324 -1.384,0.62324 -0.438,0 -0.851,-0.13919 -1.221,-0.41549 -2.146,-1.70766 -6.875,-4.35849 -13.747,-2.49086 0.761,-1.31503 1.361,-2.74431 1.706,-4.31279 2.769,-1.01587 7.981,-1.61417 14.415,3.87445 0.831,0.69179 0.948,1.91333 0.231,2.72145"
     style="fill:#acbfc3;fill-opacity:1;fill-rule:nonzero;stroke:none;stroke-width:0.207745"
     id="path61046" /><path
     d="m 395.24205,639.29591 -0.231,0.34485 c -0.552,0.85446 -1.659,1.13055 -2.536,0.62324 -2.815,-1.65947 -9.135,-4.79642 -15.363,-3.89688 1.107,-0.99302 2.169,-2.02967 3.16,-3.20758 3.068,-0.71464 8.858,-1.10728 14.555,3.62099 0.737,0.62324 0.945,1.70767 0.415,2.51538"
     style="fill:#acbfc3;fill-opacity:1;fill-rule:nonzero;stroke:none;stroke-width:0.207745"
     id="path61048" /></svg>
