<?xml version="1.0" encoding="UTF-8" standalone="no"?>
<!-- Created with Inkscape (http://www.inkscape.org/) -->

<svg
   version="1.1"
   id="svg2"
   width="3670.6667"
   height="2666.6667"
   viewBox="0 0 3670.6667 2666.6667"
   sodipodi:docname="business.svg"
   inkscape:version="1.2 (dc2aedaf03, 2022-05-15)"
   xmlns:inkscape="http://www.inkscape.org/namespaces/inkscape"
   xmlns:sodipodi="http://sodipodi.sourceforge.net/DTD/sodipodi-0.dtd"
   xmlns="http://www.w3.org/2000/svg"
   xmlns:svg="http://www.w3.org/2000/svg">
  <defs
     id="defs6" />
  <sodipodi:namedview
     id="namedview4"
     pagecolor="#ffffff"
     bordercolor="#000000"
     borderopacity="0.25"
     inkscape:showpageshadow="2"
     inkscape:pageopacity="0.0"
     inkscape:pagecheckerboard="0"
     inkscape:deskcolor="#d1d1d1"
     showgrid="false"
     inkscape:zoom="0.22194313"
     inkscape:cx="925.91287"
     inkscape:cy="1356.2033"
     inkscape:window-width="1920"
     inkscape:window-height="1017"
     inkscape:window-x="-8"
     inkscape:window-y="-8"
     inkscape:window-maximized="1"
     inkscape:current-layer="g10" />
  <g
     id="g10"
     inkscape:groupmode="layer"
     inkscape:label="Page 1"
     transform="matrix(1.3333333,0,0,-1.3333333,0,2666.6667)"
     style="display:inline">
    <path
       d="m 2303.74,1331.72 c 0,0 -37.28,-81.16 -62.37,-115.45 -25.09,-34.28 -48.99,-67.07 -69,-162.23 -20.02,-95.16 -16.59,-104.72 -22.07,-129.3 -5.48,-24.58 -41.13,-124.16 -41.34,-142.42 -0.21,-18.26 -72.06,-122.21 -90.47,-170.87 -18.4,-48.65 -51.01,-118.15 -49.17,-153.53 l 8.19,2.08 c 0,0 6.67,82.5 63.47,165.88 56.81,83.38 48.68,99.12 113.19,141.96 64.5,42.83 106.16,161.15 106.16,161.15 0,0 65.62,128.52 62.57,195.34 -3.05,66.81 14.36,127.06 -19.16,207.39"
       style="fill:#254a2d;fill-opacity:1;fill-rule:nonzero;stroke:none;stroke-width:0.1"
       id="path18" />
    <path
       d="m 2216.43,1456.56 c 0,0 -2.17,-53.32 -19.37,-84.99 -17.19,-31.68 -32.01,-50.91 -35.13,-85.18 -3.12,-34.27 -13.92,-122.61 -61.88,-165.75 -47.96,-43.12 -54.08,-172.36 -90.59,-211.45 -36.5,-39.1 -41.27,-67.2 -34.53,-134.25 6.74,-67.05 29.64,-159.97 -23.31,-281.26 l -11.97,30.17 c 0,0 37.88,99.78 28.71,158.21 -9.17,58.42 -41.08,146.71 -29.4,189.05 11.68,42.34 -31.76,50.61 -5.6,114.65 26.15,64.04 15.41,86.29 51.02,141.66 0,0 3.65,2.59 13.01,49.44 9.36,46.85 84.83,132.71 119.61,162.01 34.77,29.3 84.89,76.26 99.43,117.69"
       style="fill:#254a2d;fill-opacity:1;fill-rule:nonzero;stroke:none;stroke-width:0.1"
       id="path20" />
    <path
       d="m 2074.78,1192.58 c 0,0 -41.65,-71.31 -42.24,-117.2 -0.59,-45.9 4.38,-83.23 -16.69,-146.07 -21.07,-62.85 20.75,-102.58 8.69,-137.28 -12.05,-34.7 -12.98,-75.78 -12.62,-106.93 0.37,-31.16 -47.7,-134.26 -55.02,-186.46 -7.31,-52.21 2.04,-52.38 2.04,-52.38 0,0 7.97,68.92 19.03,91.71 11.06,22.79 44.69,101.37 52.55,131.77 7.85,30.4 29.15,49.91 47.52,101.39 18.37,51.49 44.49,94.85 42.5,167.91 -2,73.05 27.4,150.16 -45.76,253.54"
       style="fill:#30683d;fill-opacity:1;fill-rule:nonzero;stroke:none;stroke-width:0.1"
       id="path22" />
    <path
       d="m 1986.61,494.1 c 0,0 19.42,90.49 101.31,99.53 81.9,9.03 130.01,-7.16 187.86,58.95 57.86,66.12 91.46,171.03 109.94,189.09 0,0 -29.07,14.96 -77.39,-30.22 -48.33,-45.18 -82.28,-79.46 -110.26,-105.76 -27.97,-26.31 -50.69,-9.16 -80.23,-26.5 -24.76,-14.53 -56.77,-56.54 -70.87,-78.54 -4.58,-7.15 -10.01,-13.71 -16.25,-19.46 -5.67,-5.24 -12.43,-11.66 -16.76,-16.38 -8.67,-9.45 -33.68,-71.04 -33.68,-71.04 l 6.33,0.33"
       style="fill:#30683d;fill-opacity:1;fill-rule:nonzero;stroke:none;stroke-width:0.1"
       id="path24" />
    <path
       d="m 1957.74,510.06 c 0,0 28.87,110.67 9.53,164.83 -19.33,54.15 -79.85,94.23 -77.42,128.25 2.43,34.02 41.29,125.97 9.61,194.42 0,0 -12.04,-61.06 -23.91,-74.64 -11.88,-13.59 -93.37,-68.36 -78.92,-140.71 14.44,-72.34 93.67,-89.25 113.18,-110.55 19.51,-21.29 45.86,-21.27 46.02,-35.43 0.17,-14.16 5.31,-65.65 -3.44,-116.46 l 5.35,-9.71"
       style="fill:#30683d;fill-opacity:1;fill-rule:nonzero;stroke:none;stroke-width:0.1"
       id="path26" />
    <path
       d="m 1989.3,584.12 40.55,116.8 c 0,0 23.82,93.95 37.62,172.29 13.81,78.34 7.31,319.37 7.31,319.37 0,0 -41.65,-71.31 -42.24,-117.2 -0.59,-45.9 4.38,-83.23 -16.69,-146.07 -21.07,-62.85 20.75,-102.58 8.69,-137.28 -12.05,-34.7 -12.98,-75.78 -12.62,-106.93 0.37,-31.16 -47.7,-134.26 -55.02,-186.46 -4,-28.6 -3.01,-41.57 -1.29,-47.46 -6.5,45.66 33.69,132.94 33.69,132.94"
       style="fill:#4b925b;fill-opacity:1;fill-rule:nonzero;stroke:none;stroke-width:0.1"
       id="path28" />
    <path
       d="m 2189.02,653.7 c -36.17,-7.22 -68.51,-4.76 -111.45,-36.72 -42.94,-31.96 -68.19,-66.09 -68.19,-66.09 0,0 -19.3,-34.49 -27.28,-52.68 -1.15,-2.78 -1.82,-4.44 -1.82,-4.44 l 6.33,0.33 c 0,0 19.42,90.49 101.31,99.53 81.9,9.03 130.01,-7.16 187.86,58.95 57.86,66.12 91.46,171.03 109.94,189.09 0,0 -61.53,-47.87 -99.56,-90.24 -38.02,-42.36 -60.96,-90.5 -97.14,-97.73"
       style="fill:#4b925b;fill-opacity:1;fill-rule:nonzero;stroke:none;stroke-width:0.1"
       id="path30" />
    <path
       d="m 1875.55,922.92 c -11.88,-13.59 -93.37,-68.36 -78.92,-140.71 14.44,-72.34 93.67,-89.25 113.18,-110.55 19.51,-21.29 45.86,-21.27 46.02,-35.43 0.17,-14.16 5.31,-65.65 -3.44,-116.46 l 2.34,-4.24 c 4.27,19.83 10.2,50.03 12.14,72.96 3.15,37.23 -2.88,52.65 -14.85,82.81 -11.97,30.17 -86.34,91.61 -104.98,123.91 -18.63,32.31 35.94,86.3 48.05,112.37 12.11,26.07 4.37,89.98 4.37,89.98 0,0 -12.04,-61.06 -23.91,-74.64"
       style="fill:#4b925b;fill-opacity:1;fill-rule:nonzero;stroke:none;stroke-width:0.1"
       id="path32" />
    <path
       d="m 2068.88,563.53 12.73,30.77 c 9.88,22.63 35.15,33.43 56.45,24.13 53.69,-23.43 77.02,-88.65 52.13,-145.68 l -18.2,-41.69 c -7.97,-18.26 -5.2,-38.36 5.56,-52.52 9.76,-12.87 11.35,-30.76 4.58,-46.27 l -9.59,-21.98 c -10.39,-23.79 -30.6,-41.42 -54.57,-48.69 -14.02,-4.25 -26.4,-14.77 -32.95,-29.77 l -13.58,-31.12 c -15.02,-34.4 -53.45,-50.83 -85.84,-36.7 l -18.48,8.07 c -32.39,14.14 -46.47,53.49 -31.45,87.9 24.29,41.14 22.35,71.84 13.74,92.67 -12.65,30.62 -12.5,65.85 1.19,97.21 l 1.92,4.4 c 14.44,33.1 42.35,57.81 75.57,68.39 14.67,4.67 29.96,16.08 40.79,40.88"
       style="fill:#68b77a;fill-opacity:1;fill-rule:nonzero;stroke:none;stroke-width:0.1"
       id="path34" />
    <path
       d="m 1839.66,129.04 c 26.05,33.78 168.9,214.72 262.04,244.88 102.82,33.28 5.91,-98.92 5.91,-98.92 0,0 182.39,199.44 249.33,181.46 61.35,-16.48 0,-140.1 0,-140.1 0,0 69.1,68.46 152.9,68.46 81.55,0 -56.98,-242.78 -64.46,-255.78 h -605.72"
       style="fill:#9bd7a8;fill-opacity:1;fill-rule:nonzero;stroke:none;stroke-width:0.1"
       id="path36" />
    <g
       id="g7061">
      <path
         d="M 2389.32,520.48 C 2314.8,404.09 2260.41,274.8 2229.32,137.45 l -5.11,1.37 c 30.96,134.48 84.99,263.54 159.38,379.8 17.29,27.01 35.96,59.07 68.34,69.61 0.62,0.2 0.86,-0.75 0.26,-0.97 -29.57,-11.14 -46.69,-41.52 -62.87,-66.78"
         style="fill:#30683d;fill-opacity:1;fill-rule:nonzero;stroke:none;stroke-width:0.1"
         id="path38" />
      <path
         d="m 2396.13,592.65 c 1.92,-2.82 9.26,-10.18 11.42,-19.84 2.9,-9.17 0.61,-20.65 0.36,-20.25 -0.55,-0.23 8.5,7.42 11.33,19.59 3.66,11.68 1.1,27.87 -3.46,33.23 -7.86,12.13 -21.6,13.36 -24.27,7.48 -2.83,-5.84 0.76,-13.79 4.62,-20.21"
         style="fill:#30683d;fill-opacity:1;fill-rule:nonzero;stroke:none;stroke-width:0.1"
         id="path42" />
      <path
         d="m 2413.96,488.77 c -2.78,1.97 -10,9.46 -19.62,11.81 -9.11,3.07 -20.63,1.01 -20.24,0.76 -0.23,-0.55 7.59,8.35 19.82,10.93 11.74,3.43 27.88,0.55 33.15,-4.11 11.97,-8.1 12.93,-21.86 7,-24.41 -5.9,-2.71 -13.77,1.03 -20.11,5.02"
         style="fill:#30683d;fill-opacity:1;fill-rule:nonzero;stroke:none;stroke-width:0.1"
         id="path44" />
      <path
         d="m 2387.05,443.24 c -2.78,1.97 -9.99,9.46 -19.61,11.8 -9.11,3.08 -20.64,1.02 -20.24,0.77 -0.24,-0.55 7.59,8.35 19.81,10.93 11.75,3.43 27.89,0.55 33.16,-4.11 11.97,-8.1 12.93,-21.86 7,-24.41 -5.9,-2.72 -13.78,1.03 -20.12,5.02"
         style="fill:#30683d;fill-opacity:1;fill-rule:nonzero;stroke:none;stroke-width:0.1"
         id="path46" />
      <path
         d="m 2358.49,541.13 c 2.34,-2.48 10.75,-8.59 14.4,-17.8 4.31,-8.59 3.86,-20.29 3.55,-19.93 -0.51,-0.32 7.22,8.67 8.1,21.13 1.77,12.11 -3.31,27.69 -8.65,32.27 -9.68,10.74 -23.44,9.78 -25.15,3.56 -1.87,-6.22 2.93,-13.5 7.75,-19.23"
         style="fill:#30683d;fill-opacity:1;fill-rule:nonzero;stroke:none;stroke-width:0.1"
         id="path52" />
      <path
         d="m 2318.92,489.5 c 3.33,-1.77 14.97,-4.97 20.82,-13.68 6.62,-7.74 7.46,-20.99 7.02,-20.72 -0.62,-0.57 8.29,12.78 7.9,27.07 0.83,14.27 -7.65,29.48 -15.12,32.29 -13.83,7.83 -31.53,0.85 -32.98,-6.84 -1.67,-7.74 5.43,-13.8 12.36,-18.12"
         style="fill:#30683d;fill-opacity:1;fill-rule:nonzero;stroke:none;stroke-width:0.1"
         id="path54" />
      <path
         d="m 2277.29,411.29 c 3.58,-1.18 15.58,-2.38 22.81,-9.98 7.83,-6.52 10.89,-19.44 10.41,-19.25 -0.52,-0.66 6.02,13.99 3.24,28.01 -1.59,14.21 -12.5,27.78 -20.34,29.3 -14.95,5.38 -31.22,-4.47 -31.36,-12.29 -0.35,-7.91 7.67,-12.7 15.24,-15.79"
         style="fill:#30683d;fill-opacity:1;fill-rule:nonzero;stroke:none;stroke-width:0.1"
         id="path56" />
      <path
         d="m 2464.65,574.34 c -1.56,1.29 -5.5,6.04 -11.09,7.85 -5.26,2.22 -12.16,1.5 -11.94,1.33 -0.16,-0.31 4.85,4.61 12.2,5.6 7.1,1.52 16.52,-0.89 19.43,-3.88 6.73,-5.31 6.69,-13.49 3.07,-14.74 -3.6,-1.35 -8.1,1.21 -11.67,3.84"
         style="fill:#30683d;fill-opacity:1;fill-rule:nonzero;stroke:none;stroke-width:0.1"
         id="path60" />
      <path
         d="m 2449.71,607.58 c 0.07,-2.03 1.42,-8.04 -0.56,-13.57 -1.45,-5.52 -6.23,-10.55 -6.23,-10.28 -0.35,0.06 6.61,1.04 11.88,6.25 5.54,4.69 9.38,13.63 8.79,17.76 -0.1,8.57 -6.6,13.54 -9.8,11.43 -3.27,-2.03 -3.99,-7.15 -4.08,-11.59"
         style="fill:#30683d;fill-opacity:1;fill-rule:nonzero;stroke:none;stroke-width:0.1"
         id="path62" />
    </g>
    <g
       id="g7069"
       style="fill:#68b77a;fill-opacity:1">
      <path
         d="m 2247.28,132.63 c 83.28,113.24 184.51,217.91 304.89,308.93 1.21,0.91 2.83,-1.19 1.62,-2.12 -114.17,-87.76 -215.18,-191.39 -300.18,-308.5 l -6.33,1.69"
         style="fill:#68b77a;fill-opacity:1;fill-rule:nonzero;stroke:none;stroke-width:0.1"
         id="path40" />
      <path
         d="m 2483.02,337.62 c -2.78,1.98 -9.99,9.47 -19.62,11.81 -9.11,3.08 -20.63,1.02 -20.23,0.77 -0.24,-0.55 7.58,8.35 19.81,10.93 11.74,3.43 27.88,0.55 33.15,-4.11 11.97,-8.1 12.93,-21.86 7,-24.41 -5.9,-2.72 -13.77,1.03 -20.11,5.01"
         style="fill:#68b77a;fill-opacity:1;fill-rule:nonzero;stroke:none;stroke-width:0.1"
         id="path48" />
      <path
         d="m 2532.05,380.82 c -2.78,1.97 -10,9.46 -19.62,11.81 -9.11,3.08 -20.63,1.01 -20.24,0.76 -0.24,-0.55 7.59,8.35 19.82,10.94 11.74,3.42 27.88,0.54 33.15,-4.11 11.97,-8.1 12.93,-21.86 7,-24.42 -5.9,-2.71 -13.77,1.03 -20.11,5.02"
         style="fill:#68b77a;fill-opacity:1;fill-rule:nonzero;stroke:none;stroke-width:0.1"
         id="path50" />
      <path
         d="m 2400.5,356.81 c 2.61,-1.63 11.89,-4.89 16.15,-12.31 4.94,-6.67 4.87,-17.5 4.53,-17.25 -0.54,-0.43 7.47,9.92 7.97,21.56 1.49,11.56 -4.54,24.42 -10.46,27.14 -10.81,7.15 -25.6,2.48 -27.22,-3.69 -1.8,-6.2 3.63,-11.54 9.03,-15.45"
         style="fill:#68b77a;fill-opacity:1;fill-rule:nonzero;stroke:none;stroke-width:0.1"
         id="path58" />
      <path
         d="m 2567.36,424.82 c -1.56,1.28 -5.5,6.03 -11.09,7.84 -5.26,2.22 -12.16,1.5 -11.94,1.34 -0.17,-0.32 4.85,4.6 12.2,5.6 7.1,1.51 16.52,-0.9 19.43,-3.88 6.73,-5.32 6.69,-13.5 3.07,-14.75 -3.6,-1.35 -8.1,1.21 -11.67,3.85"
         style="fill:#68b77a;fill-opacity:1;fill-rule:nonzero;stroke:none;stroke-width:0.1"
         id="path64" />
      <path
         d="m 2549.33,458.34 c 0.24,-2.01 2.08,-7.9 0.56,-13.57 -1,-5.62 -5.35,-11.03 -5.37,-10.75 -0.35,0.03 6.51,1.57 11.34,7.19 5.12,5.14 8.22,14.35 7.3,18.42 -0.8,8.54 -7.69,12.96 -10.71,10.6 -3.09,-2.3 -3.38,-7.46 -3.12,-11.89"
         style="fill:#68b77a;fill-opacity:1;fill-rule:nonzero;stroke:none;stroke-width:0.1"
         id="path66" />
    </g>
    <g
       id="g12843"
       style="fill:#4b925b;fill-opacity:1">
      <path
         d="m 2536.79,241.72 c -76.09,-8.34 -146.96,-41.93 -215.19,-74.68 -46,-22.09 -43.68,-28.38 -53.05,-31.67 -1.52,-0.53 -3.04,1.12 -2.3,2.58 3.6,7.14 13.06,11.97 19.63,16.08 7.66,4.78 15.66,9.01 23.77,12.95 17.37,8.43 35.18,16.01 52.88,23.7 36.01,15.65 72.61,30.37 110.65,40.33 20.86,5.46 42.08,9.4 63.56,11.33 0.4,0.04 0.45,-0.57 0.05,-0.62"
         style="fill:#4b925b;fill-opacity:1;fill-rule:nonzero;stroke:none;stroke-width:0.1"
         id="path68" />
      <path
         d="m 2468.21,265.32 c 0.49,-3.13 3.75,-12.19 1.74,-21.14 -1.19,-8.83 -7.64,-17.55 -7.68,-17.12 -0.56,0.03 10.05,2.87 17.22,11.96 7.67,8.34 11.91,22.92 10.21,29.21 -1.8,13.27 -12.83,19.72 -17.39,15.84 -4.68,-3.78 -4.8,-11.85 -4.1,-18.75"
         style="fill:#4b925b;fill-opacity:1;fill-rule:nonzero;stroke:none;stroke-width:0.1"
         id="path70" />
      <path
         d="m 2401.17,241.31 c 0.5,-3.12 3.75,-12.18 1.74,-21.14 -1.19,-8.83 -7.63,-17.55 -7.68,-17.11 -0.55,0.03 10.05,2.87 17.22,11.95 7.68,8.34 11.92,22.93 10.22,29.22 -1.81,13.27 -12.84,19.72 -17.4,15.84 -4.67,-3.78 -4.8,-11.86 -4.1,-18.76"
         style="fill:#4b925b;fill-opacity:1;fill-rule:nonzero;stroke:none;stroke-width:0.1"
         id="path72" />
      <path
         d="m 2333.06,210.95 c 0.49,-3.12 3.74,-12.18 1.74,-21.14 -1.19,-8.83 -7.64,-17.55 -7.68,-17.11 -0.56,0.02 10.05,2.87 17.22,11.95 7.67,8.34 11.91,22.93 10.21,29.22 -1.8,13.26 -12.84,19.72 -17.39,15.84 -4.68,-3.78 -4.8,-11.86 -4.1,-18.76"
         style="fill:#4b925b;fill-opacity:1;fill-rule:nonzero;stroke:none;stroke-width:0.1"
         id="path74" />
      <path
         d="m 2488.22,202.68 c -1.38,2.58 -4.04,11.07 -10.51,16.55 -5.81,5.85 -15.43,8.67 -15.22,8.33 -0.39,-0.33 9.01,3.49 19.36,0.8 10.31,-1.86 21.58,-10.24 23.84,-15.83 6.07,-10.78 1.54,-21.69 -3.98,-21.38 -5.55,0.17 -10.16,6.06 -13.49,11.53"
         style="fill:#4b925b;fill-opacity:1;fill-rule:nonzero;stroke:none;stroke-width:0.1"
         id="path76" />
      <path
         d="m 2418.49,178 c -1.37,2.58 -4.04,11.07 -10.51,16.55 -5.81,5.85 -15.43,8.67 -15.22,8.33 -0.39,-0.33 9.01,3.49 19.37,0.8 10.31,-1.86 21.57,-10.24 23.83,-15.83 6.07,-10.78 1.54,-21.69 -3.98,-21.38 -5.55,0.17 -10.15,6.06 -13.49,11.53"
         style="fill:#4b925b;fill-opacity:1;fill-rule:nonzero;stroke:none;stroke-width:0.1"
         id="path78" />
      <path
         d="m 2541.32,228.09 c -1.2,1.44 -4,6.42 -8.79,9 -4.41,2.91 -10.82,3.41 -10.65,3.22 -0.2,-0.26 5.2,3.38 12.05,3.06 6.72,0.19 14.9,-3.58 17.06,-6.79 5.24,-5.97 3.84,-13.42 0.33,-13.95 -3.51,-0.63 -7.18,2.46 -10,5.46"
         style="fill:#4b925b;fill-opacity:1;fill-rule:nonzero;stroke:none;stroke-width:0.1"
         id="path80" />
      <path
         d="m 2533.28,260.87 c -0.28,-1.85 -0.05,-7.56 -2.78,-12.27 -2.25,-4.78 -7.45,-8.57 -7.4,-8.31 -0.31,0.11 6.2,-0.17 11.87,3.69 5.83,3.35 10.83,10.85 10.99,14.71 1.34,7.83 -3.75,13.45 -7.02,12.06 -3.32,-1.3 -4.83,-5.85 -5.66,-9.88"
         style="fill:#4b925b;fill-opacity:1;fill-rule:nonzero;stroke:none;stroke-width:0.1"
         id="path82" />
    </g>
    <g
       id="g12350"
       style="fill:#30683d;fill-opacity:1">
      <path
         d="M 573.497,706.96 C 484.084,786.69 438.109,901.18 415.286,983.2 390.509,1072.23 386.9,1143.29 386.866,1144 l -4.86,0.3 c 0.034,-0.72 3.659,-72.3 28.586,-161.93 23.035,-82.82 69.494,-198.49 160.015,-279.2 l 2.89,3.79"
         style="fill:#30683d;fill-opacity:1;fill-rule:nonzero;stroke:none;stroke-width:0.1"
         id="path84" />
      <path
         d="m 397.05,1164.61 c 4.407,-20.5 0.718,-39.87 -8.678,-53.85 -14.733,10.85 -26.319,28.22 -30.726,48.72 -4.406,20.5 -0.717,39.87 8.679,53.85 14.733,-10.84 26.319,-28.22 30.725,-48.72"
         style="fill:#30683d;fill-opacity:1;fill-rule:nonzero;stroke:none;stroke-width:0.1"
         id="path86" />
      <path
         d="m 369.626,1106.23 c 15.405,-14.33 24.41,-33.16 26.155,-51.29 -16.911,-0.76 -35.517,6.1 -50.922,20.43 -15.405,14.34 -24.41,33.16 -26.155,51.29 16.911,0.77 35.517,-6.1 50.922,-20.43"
         style="fill:#30683d;fill-opacity:1;fill-rule:nonzero;stroke:none;stroke-width:0.1"
         id="path88" />
      <path
         d="m 362.398,1044.9 c 19.144,-6.01 34.845,-19.34 44.137,-35.53 -13.894,-8.93 -32.507,-11.49 -51.651,-5.49 -19.145,6.01 -34.845,19.34 -44.137,35.54 13.894,8.92 32.506,11.49 51.651,5.48"
         style="fill:#30683d;fill-opacity:1;fill-rule:nonzero;stroke:none;stroke-width:0.1"
         id="path90" />
      <path
         d="m 391.882,971.12 c 15.164,-4.79 27.289,-17.02 34.157,-32.47 -11.497,-9.66 -26.552,-13.32 -41.717,-8.54 -15.164,4.79 -27.289,17.02 -34.158,32.47 11.497,9.66 26.553,13.32 41.718,8.54"
         style="fill:#30683d;fill-opacity:1;fill-rule:nonzero;stroke:none;stroke-width:0.1"
         id="path92" />
      <path
         d="m 417.776,1076.42 c 11.934,12.02 27.741,17.14 43.041,15.49 0.848,-16.19 -4.736,-32.6 -16.671,-44.62 -11.934,-12.01 -27.741,-17.13 -43.042,-15.49 -0.847,16.19 4.737,32.61 16.672,44.62"
         style="fill:#30683d;fill-opacity:1;fill-rule:nonzero;stroke:none;stroke-width:0.1"
         id="path94" />
      <path
         d="m 431.609,1023.54 c 11.935,12.02 27.742,17.14 43.042,15.5 0.848,-16.2 -4.736,-32.61 -16.671,-44.62 -11.934,-12.02 -27.741,-17.14 -43.042,-15.5 -0.847,16.2 4.737,32.61 16.671,44.62"
         style="fill:#30683d;fill-opacity:1;fill-rule:nonzero;stroke:none;stroke-width:0.1"
         id="path96" />
    </g>
    <path
       d="m 519.611,598.84 c -82.568,12.03 -153.229,60.95 -197.966,99.87 -48.568,42.24 -77.932,82.16 -78.223,82.56 l -2.941,-1.69 c 0.294,-0.4 29.868,-40.62 78.751,-83.15 45.172,-39.31 116.564,-88.72 200.156,-100.91 l 0.223,3.32"
       style="fill:#68b77a;fill-opacity:1;fill-rule:nonzero;stroke:none;stroke-width:0.1"
       id="path98" />
    <path
       d="m 241.433,797.16 c 10.428,-10.22 15.714,-22.9 15.618,-34.63 -12.726,0.65 -26.13,6.31 -36.558,16.53 -10.427,10.23 -15.714,22.9 -15.618,34.64 12.727,-0.66 26.13,-6.31 36.558,-16.54"
       style="fill:#68b77a;fill-opacity:1;fill-rule:nonzero;stroke:none;stroke-width:0.1"
       id="path100" />
    <path
       d="m 247.891,752.7 c 14.455,-2.42 26.913,-9.9 34.884,-19.77 -9.535,-6.94 -22.984,-10.09 -37.439,-7.67 -14.455,2.42 -26.914,9.91 -34.884,19.78 9.535,6.93 22.985,10.08 37.439,7.66"
       style="fill:#68b77a;fill-opacity:1;fill-rule:nonzero;stroke:none;stroke-width:0.1"
       id="path102" />
    <path
       d="m 267.224,714.28 c 13.434,3.85 27.676,2.13 39.292,-3.72 -4.653,-10.52 -14.488,-19.15 -27.921,-23.01 -13.434,-3.85 -27.676,-2.13 -39.292,3.72 4.653,10.52 14.488,19.15 27.921,23.01"
       style="fill:#68b77a;fill-opacity:1;fill-rule:nonzero;stroke:none;stroke-width:0.1"
       id="path104" />
    <path
       d="m 312.675,682.7 c 10.651,3.04 22.393,0.58 32.314,-5.76 -2.977,-10.03 -10.324,-17.94 -20.974,-20.97 -10.651,-3.04 -22.393,-0.58 -32.315,5.76 2.978,10.03 10.324,17.93 20.975,20.97"
       style="fill:#68b77a;fill-opacity:1;fill-rule:nonzero;stroke:none;stroke-width:0.1"
       id="path106" />
    <path
       d="m 287.32,753.85 c 2.327,11.57 9.55,20.61 19.075,25.52 6.706,-9.08 9.758,-20.77 7.431,-32.33 -2.327,-11.56 -9.551,-20.61 -19.076,-25.52 -6.706,9.08 -9.758,20.77 -7.43,32.33"
       style="fill:#68b77a;fill-opacity:1;fill-rule:nonzero;stroke:none;stroke-width:0.1"
       id="path108" />
    <path
       d="m 315.651,728.42 c 2.328,11.57 9.551,20.61 19.076,25.53 6.706,-9.09 9.757,-20.78 7.43,-32.34 -2.327,-11.56 -9.551,-20.61 -19.075,-25.52 -6.706,9.09 -9.758,20.77 -7.431,32.33"
       style="fill:#68b77a;fill-opacity:1;fill-rule:nonzero;stroke:none;stroke-width:0.1"
       id="path110" />
    <path
       d="M 569.329,351.71 C 474.084,315.55 369.24,334.65 298.058,357.04 220.783,381.35 165.375,414.67 164.823,415 l -2.111,-4.03 c 0.554,-0.34 56.367,-33.92 134.153,-58.4 71.88,-22.62 177.804,-41.9 274.229,-5.29 l -1.765,4.43"
       style="fill:#9bd7a8;fill-opacity:1;fill-rule:nonzero;stroke:none;stroke-width:0.1"
       id="path112" />
    <path
       d="m 153.102,434.35 c 17.29,-6.72 30.58,-19.82 37.567,-35.09 -13.952,-7.13 -31.65,-8.2 -48.94,-1.49 -17.29,6.72 -30.58,19.82 -37.567,35.09 13.951,7.13 31.65,8.2 48.94,1.49"
       style="fill:#9bd7a8;fill-opacity:1;fill-rule:nonzero;stroke:none;stroke-width:0.1"
       id="path114" />
    <path
       d="m 186.847,380.79 c 16.863,5.92 34.662,4.03 49.117,-3.77 -5.967,-14.96 -18.393,-27.47 -35.257,-33.4 -16.863,-5.92 -34.662,-4.02 -49.117,3.77 5.968,14.96 18.394,27.47 35.257,33.4"
       style="fill:#9bd7a8;fill-opacity:1;fill-rule:nonzero;stroke:none;stroke-width:0.1"
       id="path116" />
    <path
       d="m 230.665,343.11 c 11.983,13.42 28.201,20.11 44.112,19.81 1.397,-16.55 -3.863,-33.9 -15.847,-47.31 -11.984,-13.42 -28.201,-20.11 -44.112,-19.81 -1.397,16.54 3.864,33.9 15.847,47.31"
       style="fill:#9bd7a8;fill-opacity:1;fill-rule:nonzero;stroke:none;stroke-width:0.1"
       id="path118" />
    <path
       d="m 291.973,323.66 c 11.983,13.41 28.201,20.1 44.111,19.8 1.398,-16.54 -3.863,-33.89 -15.846,-47.31 -11.984,-13.41 -28.201,-20.1 -44.112,-19.81 -1.397,16.55 3.863,33.9 15.847,47.32"
       style="fill:#9bd7a8;fill-opacity:1;fill-rule:nonzero;stroke:none;stroke-width:0.1"
       id="path120" />
    <path
       d="m 234.289,386.51 c -10.546,13.73 -15.246,30.28 -14.129,45.29 13.889,-1.62 28.089,-9.69 38.634,-23.42 10.545,-13.73 15.246,-30.28 14.128,-45.29 -13.888,1.62 -28.088,9.69 -38.633,23.42"
       style="fill:#9bd7a8;fill-opacity:1;fill-rule:nonzero;stroke:none;stroke-width:0.1"
       id="path122" />
    <path
       d="m 297.979,366.58 c -10.743,13.57 -15.699,30.06 -14.826,45.12 13.884,-1.38 28.183,-9.21 38.927,-22.78 10.744,-13.57 15.7,-30.07 14.827,-45.13 -13.885,1.38 -28.184,9.21 -38.928,22.79"
       style="fill:#9bd7a8;fill-opacity:1;fill-rule:nonzero;stroke:none;stroke-width:0.1"
       id="path124" />
    <path
       d="m 372.545,318.33 c 2.817,7.15 8.413,12.12 14.97,14.17 3.145,-6.61 3.693,-14.46 0.876,-21.61 -2.817,-7.15 -8.413,-12.12 -14.97,-14.17 -3.146,6.61 -3.692,14.46 -0.876,21.61"
       style="fill:#9bd7a8;fill-opacity:1;fill-rule:nonzero;stroke:none;stroke-width:0.1"
       id="path126" />
    <path
       d="m 773.75,136.02 c 0,0 121.351,479.94 81.109,528.16 C 799.247,730.83 753.372,509.74 748.871,528.52 706.361,705.86 695.038,932.77 557.905,956.78 479.951,970.44 575.912,788.05 570.138,738.72 564.365,689.39 423.883,853.17 338.517,938.97 253.15,1024.77 209.062,970.45 263,862.56 315.158,758.23 483.889,644.22 449.108,630.69 414.328,617.16 203.176,751.9 177.319,694.3 145.615,623.68 462.353,527.58 432.527,511.71 402.701,495.85 251.319,548.1 255.455,494.1 c 4.135,-54.01 207.635,-51.99 204.157,-75.75 -5.631,-38.46 -140.225,48.6 -146.141,-4.62 -6.051,-54.43 177.071,-44.5 173.899,-86.96 -1.823,-24.4 -41.116,12.41 -46.906,-21.39 -13.201,-77.05 228.2,-170.92 228.2,-170.92 l 105.086,1.56"
       style="fill:#4b925b;fill-opacity:1;fill-rule:nonzero;stroke:none;stroke-width:0.1"
       id="path128" />
    <path
       d="m 866.279,133.09 c 0,0 -115.488,177.07 -171.062,210.5 -59.215,35.62 -14.134,-71.03 -14.134,-71.03 0,0 -121.006,143.99 -154.645,114.74 -33.638,-29.26 -3.106,-63.14 -3.106,-63.14 0,0 -108.636,32.19 -128.162,-7.68 -30.003,-61.28 148.851,-112.09 148.851,-112.09 0,0 -76.779,0.82 -62.653,-40.55 21.303,-62.39 384.911,-30.75 384.911,-30.75"
       style="fill:#68b77a;fill-opacity:1;fill-rule:nonzero;stroke:none;stroke-width:0.1"
       id="path130" />
    <path
       d="m 395.17,316.48 c 19.526,39.87 128.162,7.68 128.162,7.68 0,0 -30.532,33.88 3.106,63.14 33.639,29.25 130.437,-58.32 130.437,-58.32 0,0 -10.146,72.22 62.747,8.6 52.064,-45.44 146.657,-204.49 146.657,-204.49 L 395.17,316.48"
       style="fill:#9bd7a8;fill-opacity:1;fill-rule:nonzero;stroke:none;stroke-width:0.1"
       id="path132" />
    <g
       id="g7806">
      <path
         d="m 726.092,577.68 5.183,3.54 c -94.028,142.4 -122.73,311.47 -130.252,428.23 -8.161,126.7 6.165,220.88 6.311,221.81 l -6.422,1.87 c -0.148,-0.95 -14.582,-95.75 -6.39,-223.21 7.568,-117.75 36.538,-288.32 131.57,-432.24"
         style="fill:#9bd7a8;fill-opacity:1;fill-rule:nonzero;stroke:none;stroke-width:0.1"
         id="path134" />
      <path
         d="m 625.844,1253.44 c 0.205,-28.6 -9.719,-52.25 -25.563,-66.44 -16.091,20.46 -26.383,48.08 -26.589,76.68 -0.204,28.61 9.72,52.26 25.563,66.45 16.092,-20.46 26.384,-48.08 26.589,-76.69"
         style="fill:#9bd7a8;fill-opacity:1;fill-rule:nonzero;stroke:none;stroke-width:0.1"
         id="path136" />
      <path
         d="m 574.913,1189.14 c 16.027,-25.29 22.606,-53.69 20.015,-78.06 -22.001,6.26 -44.147,23.19 -60.174,48.48 -16.027,25.29 -22.606,53.69 -20.015,78.07 22.001,-6.26 44.147,-23.19 60.174,-48.49"
         style="fill:#9bd7a8;fill-opacity:1;fill-rule:nonzero;stroke:none;stroke-width:0.1"
         id="path138" />
      <path
         d="m 549.222,1112.32 c 23.069,-16.04 39.743,-40.16 47.394,-65.25 -20.287,-5.66 -44.961,-1.02 -68.031,15.03 -23.069,16.04 -39.744,40.16 -47.395,65.25 20.289,5.66 44.962,1.02 68.032,-15.03"
         style="fill:#9bd7a8;fill-opacity:1;fill-rule:nonzero;stroke:none;stroke-width:0.1"
         id="path140" />
      <path
         d="m 579.308,978.2 c 10.061,-6 17.704,-15.63 21.629,-25.97 -8.26,-3.08 -18.648,-1.95 -28.709,4.06 -10.061,6 -17.705,15.63 -21.629,25.97 8.26,3.08 18.648,1.95 28.709,-4.06"
         style="fill:#9bd7a8;fill-opacity:1;fill-rule:nonzero;stroke:none;stroke-width:0.1"
         id="path142" />
      <path
         d="m 587.486,928.52 c 10.06,-6.01 17.704,-15.63 21.629,-25.98 -8.261,-3.07 -18.648,-1.94 -28.709,4.06 -10.061,6 -17.705,15.63 -21.629,25.98 8.26,3.07 18.648,1.94 28.709,-4.06"
         style="fill:#9bd7a8;fill-opacity:1;fill-rule:nonzero;stroke:none;stroke-width:0.1"
         id="path144" />
      <path
         d="m 629.008,1129.63 c 18.589,10.53 40.328,10.42 59.609,1.71 -3.232,-21.47 -14.811,-40.46 -33.4,-50.99 -18.589,-10.54 -40.327,-10.42 -59.609,-1.72 3.232,21.47 14.811,40.46 33.4,51"
         style="fill:#9bd7a8;fill-opacity:1;fill-rule:nonzero;stroke:none;stroke-width:0.1"
         id="path146" />
      <path
         d="m 632.719,1054.78 c 18.589,10.53 40.327,10.42 59.609,1.71 -3.232,-21.46 -14.811,-40.46 -33.4,-50.99 -18.589,-10.53 -40.327,-10.42 -59.609,-1.71 3.232,21.47 14.811,40.46 33.4,50.99"
         style="fill:#9bd7a8;fill-opacity:1;fill-rule:nonzero;stroke:none;stroke-width:0.1"
         id="path148" />
      <path
         d="m 629.032,947.66 c 12.099,6.85 26.248,6.78 38.798,1.11 -2.104,-13.97 -9.64,-26.33 -21.739,-33.19 -12.099,-6.85 -26.249,-6.78 -38.798,-1.11 2.103,13.97 9.64,26.33 21.739,33.19"
         style="fill:#9bd7a8;fill-opacity:1;fill-rule:nonzero;stroke:none;stroke-width:0.1"
         id="path150" />
    </g>
    <path
       d="m 1955.85,525.37 c 10.92,-1.78 10.28,-3.56 11.68,-3.75 1.66,-0.22 21.38,9.68 21.38,9.68 0,0 58.33,28.79 61.42,30.46 l 42.1,52.97 32.45,-14.97 c 0,0 -47.35,-56.31 -50.35,-58.79 -2.99,-2.48 -86.62,-31.81 -93.89,-34.64 0,0 -7.34,-6.7 -12.08,-10.75 -4.75,-4.04 -11.09,-5.65 -12.6,-6.57 -0.23,-0.14 -5.46,-2.9 -12.86,-4.51 -6.37,-1.39 -1.06,2.94 -1.06,2.94 0,0 11.28,4.76 10.72,5.62 -0.43,0.67 -6.42,-2.31 -13.45,-3.92 -1.81,-0.41 -3.6,-0.82 -5.24,-1.17 -4.32,-0.93 -6.21,1.54 -1.88,3.26 1.53,0.6 4.1,1.55 6.04,1.95 2.09,0.44 3.85,1.54 5.54,2.18 3.36,1.28 5.83,2.17 5.7,2.28 -0.18,0.15 0.3,0.9 -1.64,0.52 -2.32,-0.46 -7.02,-2.55 -10.5,-2.94 -1.97,-0.23 -6.06,-0.95 -6.06,-0.95 0,0 -7.24,-0.69 -7.29,0.32 -0.1,2.22 4.35,3.45 7.09,3.4 1.72,0.88 6.05,1.51 6.05,1.51 0,0 8.39,3.32 7.9,4.56 -0.19,0.49 -5.27,-0.27 -10.66,-0.64 -5.7,-0.39 -9.83,-0.39 -10.14,0.72 -0.48,1.75 4.06,2.41 4.06,2.41 0,0 4,0.58 5.31,0.88 1.53,0.35 6.04,1.77 6.04,1.77 0,0 15.44,5.67 14.88,6.8 -0.56,1.14 -3.11,3.53 -4.2,3.52 -1.09,0 -3.03,-1.09 -4.12,-1.1 -1.09,0 -3.43,0.21 -3.59,1.58 -0.17,1.37 5.88,4.2 5.88,4.2 0,0 4.21,1.68 7.37,1.17"
       style="fill:#f4b4b4;fill-opacity:1;fill-rule:nonzero;stroke:none;stroke-width:0.1"
       id="path152" />
    <path
       d="m 2063.13,581.92 c 0,0 10.51,-9.54 14.88,-12.68 3.63,-2.61 21.33,-11.14 21.33,-11.14 0,0 17.6,26.96 25.3,40.48 9.34,16.41 15.81,40.8 13.6,41.46 -6.2,1.86 -14.72,2.99 -22.59,-0.62 -27.24,-12.5 -52.52,-57.5 -52.52,-57.5"
       style="fill:#254a2d;fill-opacity:1;fill-rule:nonzero;stroke:none;stroke-width:0.1"
       id="path154" />
    <path
       d="m 1966.05,511.28 c -4.68,-0.74 -9.46,0.15 -11.53,4.43 -0.46,-5.08 7.23,-7.6 11.53,-4.43"
       style="fill:#fe875e;fill-opacity:1;fill-rule:nonzero;stroke:none;stroke-width:0.1"
       id="path156" />
    <path
       d="m 660.617,700.4 c 0.649,15.7 -1.654,31.21 -8.649,45.82 -6.018,12.58 -20.909,19.72 -34.489,19.73 -43.12,0.06 -48.604,-57.16 -76.052,-79.23 -8.387,-6.74 -17.762,-12.23 -25.698,-19.51 -29.306,-26.85 -16.106,-76.56 10.803,-100.11 18.674,-16.33 48.022,-25.62 71.036,-12.84 12.014,6.66 21.134,17.74 27.631,29.89 9.222,17.23 15.166,37.11 21.725,55.48 6.981,19.55 12.83,39.9 13.693,60.77"
       style="fill:#120b04;fill-opacity:1;fill-rule:nonzero;stroke:none;stroke-width:0.1"
       id="path158" />
    <path
       d="m 667.66,624.37 c -13.469,40.86 -31.249,40.22 -31.249,40.22 l 14.366,-87 c 8.318,2.27 19.147,7.33 27.455,9.68 -2.754,12.92 -7.254,27.04 -10.572,37.1"
       style="fill:#f7cc7f;fill-opacity:1;fill-rule:nonzero;stroke:none;stroke-width:0.1"
       id="path160" />
    <path
       d="m 735.729,485.02 -49.241,37.56 c 0,0 -4.953,35.05 -11.586,66.14 -8.308,-2.34 -15.807,-8.86 -24.125,-11.13 l 12.521,-69.64 64.538,-33.3 18.229,-23.42 4.146,24.05 -14.482,9.74"
       style="fill:#f48c7f;fill-opacity:1;fill-rule:nonzero;stroke:none;stroke-width:0.1"
       id="path162" />
    <path
       d="m 1184.58,543.69 c 15.29,0 29.63,-4.03 42.04,-11.08 1.57,-0.89 3.27,-1.7 5.08,-2.45 37.84,-15.54 79.24,13.24 79.24,54.15 v 201.17 h -201.17 c -40.91,0 -69.69,41.41 -54.15,79.24 0.75,1.82 1.56,3.52 2.45,5.09 7.05,12.4 11.08,26.75 11.08,42.04 0,48.45 -40.4,87.47 -89.352,85.2 -44.297,-2.05 -79.97,-38.44 -81.207,-82.77 -0.44,-15.76 3.405,-30.59 10.452,-43.42 0.877,-1.59 1.683,-3.32 2.421,-5.16 15.415,-38.46 -13.826,-80.22 -55.257,-80.22 H 656.765 V 327.09 c 0,-108.13 87.657,-195.78 195.787,-195.78 h 458.388 v 200.5 c 0,41.11 -41.53,70.07 -79.61,54.58 -1.82,-0.74 -3.53,-1.55 -5.1,-2.43 -13.57,-7.62 -29.42,-11.63 -46.28,-10.74 -43.44,2.3 -78.52,37.6 -80.57,81.04 -2.31,48.99 36.72,89.43 85.2,89.43"
       style="fill:#e06d9a;fill-opacity:1;fill-rule:nonzero;stroke:none;stroke-width:0.1"
       id="path164" />
    <path
       d="m 1620.59,655.28 c 0.71,15.28 5.41,29.42 13.03,41.48 0.96,1.53 1.85,3.19 2.68,4.96 17.29,37.07 -9.52,79.77 -50.38,81.68 l -200.96,9.4 -9.39,-200.96 c -1.91,-40.86 -44.62,-67.67 -81.69,-50.38 -1.77,0.83 -3.43,1.72 -4.96,2.68 -12.06,7.62 -26.2,12.32 -41.48,13.03 -48.4,2.26 -89.26,-36.27 -89.28,-85.27 -0.02,-44.35 34.66,-81.68 78.89,-84.99 15.72,-1.17 30.72,1.98 43.85,8.42 1.64,0.8 3.41,1.52 5.28,2.17 39.14,13.61 79.48,-17.55 77.55,-58.94 l -9.32,-199.22 457.89,-21.41 c 108.01,-5.05 199.67,78.42 204.72,186.43 l 21.4,457.89 -200.28,9.36 c -41.06,1.92 -71.93,-38.21 -58.24,-76.97 0.66,-1.86 1.39,-3.6 2.19,-5.21 6.98,-13.91 10.24,-29.93 8.57,-46.73 -4.33,-43.28 -41.22,-76.68 -84.72,-76.7 -49.04,-0.02 -87.62,40.86 -85.35,89.28"
       style="fill:#8b8675;fill-opacity:1;fill-rule:nonzero;stroke:none;stroke-width:0.1"
       id="path166" />
    <path
       d="m 1060.64,971.69 c 0.77,-15.27 -2.53,-29.8 -8.95,-42.54 -0.81,-1.61 -1.54,-3.35 -2.19,-5.2 -13.62,-38.57 17.2,-78.48 58.05,-76.42 l 200.92,10.1 -10.1,200.92 c -2.05,40.85 37.85,71.68 76.42,58.06 1.85,-0.65 3.59,-1.38 5.2,-2.19 12.74,-6.42 27.27,-9.72 42.55,-8.96 48.39,2.44 85.33,44.75 80.6,93.52 -4.27,44.14 -42.4,77.94 -86.74,76.95 -15.77,-0.35 -30.38,-4.94 -42.84,-12.62 -1.55,-0.96 -3.23,-1.85 -5.04,-2.68 -37.63,-17.32 -80.8,9.78 -82.88,51.16 l -10.02,199.19 -457.81,-23.02 c -107.994,-5.43 -191.138,-97.38 -185.708,-205.37 l 23.021,-457.81 200.251,10.07 c 41.055,2.06 67.892,45 50.51,82.25 -0.83,1.78 -1.724,3.44 -2.686,4.97 -8.285,13.17 -13.088,28.8 -13.044,45.68 0.113,43.5 33.604,80.31 76.891,84.54 48.805,4.77 91.165,-32.18 93.595,-80.6"
       style="fill:#4b925b;fill-opacity:1;fill-rule:nonzero;stroke:none;stroke-width:0.1"
       id="path168" />
    <path
       d="m 1471.88,1082.58 c -15.3,0 -29.64,4.03 -42.05,11.08 -1.56,0.89 -3.26,1.7 -5.08,2.45 -37.83,15.54 -79.24,-13.24 -79.24,-54.15 V 840.79 h 201.18 c 40.9,0 69.68,-41.41 54.14,-79.25 -0.74,-1.81 -1.56,-3.51 -2.45,-5.08 -7.05,-12.4 -11.08,-26.75 -11.08,-42.04 0,-48.45 40.4,-87.47 89.36,-85.2 44.29,2.05 79.97,38.44 81.2,82.77 0.44,15.76 -3.4,30.59 -10.45,43.42 -0.88,1.59 -1.68,3.32 -2.42,5.16 -15.42,38.46 13.82,80.22 55.26,80.22 h 199.44 v 458.39 c 0,108.13 -87.66,195.78 -195.79,195.78 h -458.39 v -200.5 c 0,-41.11 41.54,-70.07 79.61,-54.58 1.82,0.74 3.53,1.55 5.11,2.44 13.56,7.61 29.42,11.62 46.28,10.73 43.43,-2.3 78.51,-37.59 80.56,-81.04 2.32,-48.99 -36.72,-89.43 -85.19,-89.43"
       style="fill:#282340;fill-opacity:1;fill-rule:nonzero;stroke:none;stroke-width:0.1"
       id="path170" />
    <path
       d="m 525.825,194.91 c 0,0 -3.037,-21.12 -8.264,-27.93 -1.755,-2.29 -4.959,-5.18 -7.062,-9.32 -3.274,-6.43 -1.464,-16.01 0.951,-21.29 1.239,-2.71 -0.087,-2.7 2.736,-3.58 8.359,-2.58 17.252,1.77 20.812,9.8 1.988,4.48 3.732,10.46 4.083,17.99 0.893,19.18 6.843,28.93 6.843,28.93 l -20.099,5.4"
       style="fill:#3b2219;fill-opacity:1;fill-rule:nonzero;stroke:none;stroke-width:0.1"
       id="path172" />
    <path
       d="m 617.261,185.25 c 0,0 1.875,-23.81 0.353,-31.55 -0.815,-4.15 -5.355,-12.68 -3.273,-16.58 2.083,-3.9 4.463,-4.87 4.463,-4.87 l 53.974,-0.88 c 2.94,-0.04 0.997,1.85 -1.374,3.6 -3.88,2.86 -7.011,4.75 -19.405,10.76 -0.809,0.39 -3.752,2.27 -4.813,2.92 -2.691,1.64 -5.394,4.24 -7.721,6.83 -3.875,4.33 -4.214,25.3 -4.214,25.3 l -17.99,4.47"
       style="fill:#3b2219;fill-opacity:1;fill-rule:nonzero;stroke:none;stroke-width:0.1"
       id="path174" />
    <path
       d="m 659.446,501.81 c 0,0 6.797,-38.66 2.334,-64.01 -4.462,-25.35 -25.882,-260.33 -25.882,-260.33 l -23.803,-1.34 c 0,0 -4.989,98.15 -4.096,111.8 0.892,13.65 7.956,36.49 7.956,36.49 l -2.37,79.25 30.038,104.11 15.823,-5.97"
       style="fill:#4c4766;fill-opacity:1;fill-rule:nonzero;stroke:none;stroke-width:0.1"
       id="path176" />
    <path
       d="m 589.488,509.95 c 0,0 -18.742,-28.28 -23.205,-51.68 -4.462,-23.4 3.276,-95.31 -5.308,-125.98 -4.648,-16.59 -22.26,-42.23 -24.937,-63.68 -2.678,-21.45 -13.182,-77.63 -13.182,-77.63 l 23.792,-4.73 55.294,140.32 43.372,126.83 11.111,65.32 -66.937,-8.77"
       style="fill:#282340;fill-opacity:1;fill-rule:nonzero;stroke:none;stroke-width:0.1"
       id="path178" />
    <path
       d="m 604.661,670.82 c 0,0 -24.816,1.58 -34.633,-9.14 -9.818,-10.73 21.778,-95.57 23.563,-109.22 1.784,-13.65 -9.1,-49.94 -9.1,-49.94 0,0 58.294,-11.76 74.955,-0.71 0,0 1.785,98.16 0,107.91 -1.785,9.75 -16.661,49.4 -20.231,53.3 -3.57,3.9 -34.554,7.8 -34.554,7.8"
       style="fill:#dc578a;fill-opacity:1;fill-rule:nonzero;stroke:none;stroke-width:0.1"
       id="path180" />
    <path
       d="m 612.922,704.05 c 0,0 -0.129,-0.73 -0.359,-1.97 -1.107,-5.98 -5.367,-25.82 -8.246,-31.27 -3.478,-6.6 11.909,-27.61 26.718,-25.05 4.409,0.77 -3.726,19.31 -3.335,21.28 0.748,3.76 1.763,8.89 2.801,14.15 0.586,2.97 1.18,5.98 1.737,8.81 1.584,8.04 2.876,14.61 2.876,14.61 l -22.192,-0.56"
       style="fill:#3b2219;fill-opacity:1;fill-rule:nonzero;stroke:none;stroke-width:0.1"
       id="path182" />
    <path
       d="m 612.563,702.08 c 0.23,1.24 0.359,1.97 0.359,1.97 l 22.192,0.56 c 0,0 -1.292,-6.57 -2.876,-14.61 -0.554,-2.81 -1.144,-5.81 -1.727,-8.76 -3.426,0.51 -7.006,2.18 -10.595,5.33 -3.914,3.43 -6.478,7.55 -8.026,11.96 0.273,1.41 0.501,2.62 0.673,3.55"
       style="fill:#23140f;fill-opacity:1;fill-rule:nonzero;stroke:none;stroke-width:0.1"
       id="path184" />
    <path
       d="m 627.858,754.61 c 0,0 -10.46,1.21 -17.017,-7.29 -6.556,-8.5 -13.623,-34.78 2.664,-49.07 16.288,-14.29 32.381,1.89 34.767,19.04 2.387,17.15 3.314,37.94 -20.414,37.32"
       style="fill:#3b2219;fill-opacity:1;fill-rule:nonzero;stroke:none;stroke-width:0.1"
       id="path186" />
    <path
       d="m 653.091,717.54 c -1.944,-3.79 -5.207,-5.89 -7.289,-4.69 -2.081,1.2 -2.193,5.25 -0.248,9.04 1.944,3.78 5.207,5.88 7.288,4.68 2.081,-1.2 2.193,-5.24 0.249,-9.03"
       style="fill:#3b2219;fill-opacity:1;fill-rule:nonzero;stroke:none;stroke-width:0.1"
       id="path188" />
    <path
       d="m 629.028,757.42 c 0,0 -13.974,-24.99 -23.971,-26.15 -9.997,-1.15 -11.309,-14.43 -11.309,-14.43 0,0 3.573,30.6 13.47,36.5 9.897,5.9 21.81,4.08 21.81,4.08"
       style="fill:#120b04;fill-opacity:1;fill-rule:nonzero;stroke:none;stroke-width:0.1"
       id="path190" />
    <path
       d="m 536.619,146.81 c -12.967,-2.37 -21.595,5.23 -26.084,10.92 -3.296,-6.44 -4.904,-16.06 -2.479,-21.36 2.134,-4.67 8.374,-4.53 13.287,-4.72 5.195,-0.19 9.214,2.7 11.791,7.24 1.203,2.11 2.445,4.75 3.485,7.92"
       style="fill:#f5f1e2;fill-opacity:1;fill-rule:nonzero;stroke:none;stroke-width:0.1"
       id="path192" />
    <path
       d="m 647.178,148.65 c -14.274,-3.67 -24.825,-1.17 -30.728,1.21 -1.522,-4.32 -3.54,-9.75 -2.47,-12.87 1.31,-3.83 3.176,-4.7 4.824,-4.74 13.038,-0.35 47.759,-0.81 57.701,-0.94 1.389,-0.02 2.154,1.6 1.262,2.67 -2.466,2.95 -29.525,14.02 -30.589,14.67"
       style="fill:#f5f1e2;fill-opacity:1;fill-rule:nonzero;stroke:none;stroke-width:0.1"
       id="path194" />
    <path
       d="m 607.679,724.99 c 0.812,-4.44 -0.823,-8.51 -3.653,-9.09 -2.83,-0.58 -5.783,2.54 -6.596,6.98 -0.813,4.44 0.822,8.51 3.652,9.09 2.83,0.59 5.783,-2.54 6.597,-6.98"
       style="fill:#3b2219;fill-opacity:1;fill-rule:nonzero;stroke:none;stroke-width:0.1"
       id="path196" />
    <path
       d="m 624.004,709.62 12.617,-0.57 c 0,0 -0.508,-4.78 -6.063,-4.69 -6.775,0.11 -6.554,5.26 -6.554,5.26"
       style="fill:#ffffff;fill-opacity:1;fill-rule:nonzero;stroke:none;stroke-width:0.1"
       id="path198" />
    <path
       d="m 1699.96,1715.74 c 1.58,-0.06 5.88,-1.5 12.18,-13.4 8.04,-15.2 19.79,-61.1 19.79,-61.1 l -35.08,-13.06 -4.51,9.58 -7.42,73.76 c 0,0 14.61,4.24 15.04,4.22"
       style="fill:#d53875;fill-opacity:1;fill-rule:nonzero;stroke:none;stroke-width:0.1"
       id="path200" />
    <path
       d="m 1653.59,1722.36 c 10.04,-0.01 34.85,-2.94 46.37,-6.62 0,0 8.47,-72.73 -7.62,-128 -3.59,-12.37 2.98,-51.28 2.98,-51.28 l -103.94,1.37 c 0,0 12.32,94.07 7.68,109.27 -4.64,15.19 -4.75,68.15 -4.75,68.15 0,0 0.71,0.11 23.35,4.03 10.56,1.82 25.23,3.1 35.93,3.08"
       style="fill:#e06d9a;fill-opacity:1;fill-rule:nonzero;stroke:none;stroke-width:0.1"
       id="path202" />
    <path
       d="m 1641.48,1401.46 c 0,0 2.3,-26.54 6.53,-33.89 4.23,-7.35 -0.22,-19.84 -0.44,-21.56 -0.23,-1.71 -8.9,-4.16 -22.7,-2.69 -13.8,1.47 -13.58,4.65 -12.46,9.8 1.11,5.14 8.45,11.76 8.9,16.66 0.44,4.9 -4.23,22.53 -4.23,22.53 l 24.4,9.15"
       style="fill:#ffe7d1;fill-opacity:1;fill-rule:nonzero;stroke:none;stroke-width:0.1"
       id="path204" />
    <path
       d="m 1683.59,1558.36 c 0,0 71.75,3.98 87.78,-5.72 16.02,-9.7 -11.39,-57.32 -11.39,-57.32 0,0 -49.92,2.3 -147.71,-3.35 -23.16,-1.33 -25.16,60.38 -20.83,65.49 4.33,5.11 92.15,0.9 92.15,0.9"
       style="fill:#8b8675;fill-opacity:1;fill-rule:nonzero;stroke:none;stroke-width:0.1"
       id="path206" />
    <path
       d="m 1623.15,1341.26 c -14.21,1.51 -12.45,8.49 -11.31,13.79 0.72,3.32 4.8,7.23 7.23,10.92 1.27,-1.01 3.33,-2.79 9.5,-4.62 6.41,-1.89 15.19,1.86 20.79,4.2 1.99,-7.42 2.08,-16.89 1.89,-18.32 -0.22,-1.77 -13.9,-7.49 -28.1,-5.97"
       style="fill:#4b925b;fill-opacity:1;fill-rule:nonzero;stroke:none;stroke-width:0.1"
       id="path208" />
    <path
       d="m 1630.99,1507.03 c 2.87,-21.69 17.06,-129.68 17.06,-129.68 l -32.93,-4.08 c 0,0 -40.5,140.95 -38.42,162.51 2.07,21.55 17.23,23.37 17.23,23.37 0,0 29.47,5.3 37.06,-52.12"
       style="fill:#c9c4b1;fill-opacity:1;fill-rule:nonzero;stroke:none;stroke-width:0.1"
       id="path210" />
    <path
       d="m 1593.18,1707.17 c 9.71,3.64 14.47,-83.92 15.78,-119.96 17.21,-1.66 47.21,-0.01 54.67,0.55 3.52,0.26 11.62,3.23 15.11,3.68 3.58,0.47 6.83,0.72 8.59,0.41 0.64,-0.11 18.58,-7.45 20.11,-9.06 1.91,-1.99 7.05,-7.02 6.18,-9.2 -0.86,-2.17 -9.89,6.06 -9.89,6.06 l -4.41,2.48 c 5.49,-5.36 15.96,-12.43 14.46,-15 -1.48,-2.51 -10.92,4.66 -17.66,9.54 5.78,-5.21 12.95,-14.55 11.3,-16 -1.49,-1.31 -9.65,9.5 -18.37,12.61 -3.23,1.15 -6.46,-2.04 -9,-2.43 -1.87,-0.28 -4.75,-0.88 -6.59,-0.36 l -9.44,2.67 c -3.22,-0.29 -3.3,-2.19 -6.55,-2.88 -3.77,-0.8 -9.96,-1.65 -14.76,-2.82 -27.67,-6.76 -36.89,-9.9 -45.36,-9.9 -25.65,0.02 -27.14,140.99 -4.17,149.61"
       style="fill:#ffe7d1;fill-opacity:1;fill-rule:nonzero;stroke:none;stroke-width:0.1"
       id="path212" />
    <path
       d="m 1574.73,1624.96 c -1.82,36.92 -1.55,82.42 19.15,90.18 8.16,3.07 22.56,-15.35 19.97,-90.93 -11.05,-0.91 -27.27,-1.65 -39.12,0.75"
       style="fill:#d53875;fill-opacity:1;fill-rule:nonzero;stroke:none;stroke-width:0.1"
       id="path214" />
    <path
       d="m 1737.79,1378.76 c 0,0 -2.88,-9.22 2.27,-15.31 5.14,-6.09 26.52,-12.07 29.33,-15.37 2.81,-3.3 2.59,-6.11 2.59,-6.11 l -60.01,1.65 0.66,18.13 2.76,13.02 22.4,3.99"
       style="fill:#ffe7d1;fill-opacity:1;fill-rule:nonzero;stroke:none;stroke-width:0.1"
       id="path216" />
    <path
       d="m 1743.79,1360.42 c 0,0 -15.42,-6.24 -22.87,-2.55 -7.45,3.69 -7.22,4.72 -9.38,3.34 -2.15,-1.38 -2.92,-18.37 -2.92,-18.37 l 67.47,-1.98 c 4.7,0.11 7.07,3.57 3.26,6.53 -2.62,2.03 -5.64,3.39 -7.36,4.37 -5.28,3.03 -28.2,8.66 -28.2,8.66"
       style="fill:#4b925b;fill-opacity:1;fill-rule:nonzero;stroke:none;stroke-width:0.1"
       id="path218" />
    <path
       d="m 1735.51,1541.35 c 4.64,9.77 15.19,22.47 33.75,14.82 17.7,-7.3 22.45,-25.24 16.87,-43.61 -5.59,-18.37 -42.36,-126.37 -43.64,-141.22 l -29.36,-0.2 c 0,0 5.34,85.52 6.65,106.19 1.26,19.89 7.7,47.13 15.73,64.02"
       style="fill:#c9c4b1;fill-opacity:1;fill-rule:nonzero;stroke:none;stroke-width:0.1"
       id="path220" />
    <path
       d="m 1783.17,1640.82 h -98.14 c -2.59,0 -4.93,-1.57 -5.92,-3.98 l -30.21,-73.95 h -54.11 c -1.51,0 -2.73,-1.23 -2.73,-2.75 0,-1.51 1.22,-2.74 2.73,-2.74 h 153.99 c 4.23,0 8.07,2.49 9.8,6.37 l 30.43,68 c 1.9,4.25 -1.2,9.05 -5.84,9.05"
       style="fill:#000000;fill-opacity:1;fill-rule:nonzero;stroke:none;stroke-width:0.1"
       id="path222" />
    <path
       d="m 1730.33,1597.76 c -0.66,-3.32 -3.55,-5.54 -6.45,-4.96 -2.89,0.58 -4.71,3.75 -4.05,7.07 0.67,3.32 3.56,5.54 6.46,4.96 2.89,-0.58 4.71,-3.75 4.04,-7.07"
       style="fill:#ffffff;fill-opacity:1;fill-rule:nonzero;stroke:none;stroke-width:0.1"
       id="path224" />
    <path
       d="m 1676.92,1811.19 c -2.96,1 -5.87,2.13 -8.68,3.48 -3.18,1.53 -7.3,3.33 -9.9,3.73 -5.48,0.85 -14.89,0.28 -20.09,-5.35 -6.47,-7.03 -17.97,-1.27 -15.65,-38.05 2.62,-41.63 25.77,-37.06 26.33,-36.35 0.56,0.7 20.64,26.63 20.64,26.63 0,0 7.02,-15.36 7.02,-14.8 0,0.55 35.85,48.75 0.33,60.71"
       style="fill:#3c2607;fill-opacity:1;fill-rule:nonzero;stroke:none;stroke-width:0.1"
       id="path226" />
    <path
       d="m 1659.34,1735.57 2,-14.87 c 0,0 4.48,-21.43 -1.28,-25.56 -5.76,-4.13 -24.49,26.17 -24.49,26.17 l 1.98,37.69 21.79,-23.43"
       style="fill:#ffe7d1;fill-opacity:1;fill-rule:nonzero;stroke:none;stroke-width:0.1"
       id="path228" />
    <path
       d="m 1636.91,1746.79 c 4.76,-12.86 16.09,-20.76 24.13,-23.83 l -1.7,12.61 -21.79,23.43 -0.64,-12.21"
       style="fill:#ffd6b0;fill-opacity:1;fill-rule:nonzero;stroke:none;stroke-width:0.1"
       id="path230" />
    <path
       d="m 1658.16,1800.02 c 12.2,1.96 23.15,-7.85 22.84,-20.06 -0.13,-5.31 -0.56,-11.94 -1.67,-19.08 -2.65,-17.17 -14.37,-32.29 -22.11,-30.94 -7.75,1.35 -27.24,16.16 -23.81,40.59 2.12,15.09 11.95,27.42 24.75,29.49"
       style="fill:#ffe7d1;fill-opacity:1;fill-rule:nonzero;stroke:none;stroke-width:0.1"
       id="path232" />
    <path
       d="m 1638.79,1767.62 c -0.65,-3.78 -3.68,-6.4 -6.76,-5.87 -3.07,0.54 -5.04,4.04 -4.38,7.81 0.65,3.78 3.67,6.4 6.75,5.87 3.08,-0.54 5.04,-4.04 4.39,-7.81"
       style="fill:#ffe7d1;fill-opacity:1;fill-rule:nonzero;stroke:none;stroke-width:0.1"
       id="path234" />
    <path
       d="m 1634.4,1775.43 c 0,0 9.37,-2.33 12.84,3.69 3.48,6.03 15.91,19.02 31.7,13.64 15.8,-5.39 -13.9,13.1 -15.16,13.1 -1.27,0 -16.43,0.11 -16.43,0.11 0,0 -11.69,-9.62 -12.11,-10.68 -0.43,-1.05 -3.8,-12.57 -3.8,-12.57 l 2.96,-7.29"
       style="fill:#3c2607;fill-opacity:1;fill-rule:nonzero;stroke:none;stroke-width:0.1"
       id="path236" />
    <path
       d="m 1651.54,1750.29 17.04,-3.25 c 0,0 -1.63,-6.42 -9.16,-5.21 -9.19,1.48 -7.88,8.46 -7.88,8.46"
       style="fill:#ffffff;fill-opacity:1;fill-rule:nonzero;stroke:none;stroke-width:0.1"
       id="path238" />
    <path
       d="m 1363.27,563.82 c 0.65,-2.25 1.02,-2.99 1.85,-4.5 5.34,-9.73 17.74,-23.61 17.74,-23.61 l 9.6,21.61 c 0,0 -1.57,6.79 -4.28,16.49 -9.26,-2.42 -18.09,-3.82 -24.91,-9.99"
       style="fill:#c69776;fill-opacity:1;fill-rule:nonzero;stroke:none;stroke-width:0.1"
       id="path240" />
    <path
       d="m 1418.26,582.56 c 0,0 -53.5,-23.04 -55.23,-22.6 -1.11,0.29 -21.94,35.15 -22.17,67.94 -0.1,15.14 15.63,33.36 33.17,29.75 8.84,-1.81 8.7,-4.27 21.77,-23.26 13.07,-18.99 22.46,-51.83 22.46,-51.83"
       style="fill:#c9c4b1;fill-opacity:1;fill-rule:nonzero;stroke:none;stroke-width:0.1"
       id="path242" />
    <path
       d="m 1463.92,169.53 -1.27,-21.05 c -0.47,-2.67 -2.31,-9.26 -2.31,-11.69 0,-9.11 43.26,7.74 33.57,11.78 -0.88,0.36 -5.48,3.12 -5.77,6.22 -0.44,4.78 -1.57,14.45 -1.57,14.45 l -22.65,0.29"
       style="fill:#c69776;fill-opacity:1;fill-rule:nonzero;stroke:none;stroke-width:0.1"
       id="path244" />
    <path
       d="m 1493.8,148.65 c 0,0 -10.16,-2.78 -15.36,-3.48 -5.2,-0.7 -12.06,5.17 -15.74,3.58 -4.05,-1.74 -3.89,-17.44 -3.89,-17.44 0,0 54.46,-4.47 69.78,0.15 6.07,1.84 -14.03,10.7 -34.79,17.19"
       style="fill:#d53875;fill-opacity:1;fill-rule:nonzero;stroke:none;stroke-width:0.1"
       id="path246" />
    <path
       d="m 1375.43,169.53 -1.28,-21.05 c -0.46,-2.67 -2.3,-9.26 -2.3,-11.69 0,-9.11 43.26,7.74 33.56,11.78 -0.87,0.36 -6.83,5.19 -7.12,8.29 -0.45,4.77 -0.21,12.38 -0.21,12.38 l -22.65,0.29"
       style="fill:#c69776;fill-opacity:1;fill-rule:nonzero;stroke:none;stroke-width:0.1"
       id="path248" />
    <path
       d="m 1405.31,148.65 c 0,0 -10.16,-2.78 -15.36,-3.48 -5.2,-0.7 -12.06,5.17 -15.74,3.58 -4.05,-1.74 -4.21,-17.44 -4.21,-17.44 0,0 54.71,-5.21 70.1,0.15 5.97,2.09 -14.03,10.7 -34.79,17.19"
       style="fill:#d53875;fill-opacity:1;fill-rule:nonzero;stroke:none;stroke-width:0.1"
       id="path250" />
    <path
       d="m 1388.65,552.17 38.1,53.38 c 0.16,0.46 0.51,1.42 1.04,2.88 1.92,5.3 5.91,16.32 9.39,27.28 l 0.03,0.12 c 1.1,3.83 3.41,10.51 5.65,16.98 2.49,7.19 5.58,16.11 5.69,17.63 -0.09,0.26 -0.27,0.73 -0.51,1.35 -1.4,3.62 -3.29,12.26 -3.96,16.01 -0.42,2.39 -0.85,8.21 2,8.21 4.46,0 2.34,-5.81 4.4,-9.43 0.75,2.42 2.28,7.23 3.09,12.09 l 0.75,11.35 c 0.14,0.85 -0.77,7.11 2.37,7.11 h 0.15 c 2.81,-0.21 2.75,-6.86 3.92,-18.12 0.37,1.3 0.74,2.86 1.02,4.29 -0.03,0.77 0.53,4.16 0.95,5.94 -0.56,3.14 -0.23,8.09 3.11,7.62 1.67,-0.23 1.53,-7.14 1.53,-7.14 -0.01,-0.94 -0.11,-8.24 -0.06,-9.69 0.34,2.45 1.68,12.9 4.3,12.9 2.17,0 2.35,-2.81 2.3,-5.04 -0.02,-1.31 -1.39,-12.63 -1.46,-13.95 1.02,1.72 2.23,11.69 3.25,11.69 4.23,0 2.7,-14.18 1.14,-17.87 -0.14,-0.38 -0.3,-1.12 -0.48,-1.98 -0.53,-2.53 -1.41,-6.76 -3.63,-10.55 -2.66,-4.55 -6.33,-11.79 -6.89,-12.9 -0.41,-2.26 -1.69,-10.39 -3.29,-20.62 -0.69,-4.37 -1.44,-9.17 -2.22,-14.14 l -0.04,0.01 c -0.15,-1.08 -0.94,-4.5 -3.96,-17.33 -4.12,-17.56 -4.55,-18.32 -4.73,-18.64 -1.79,-3.17 -42.87,-58.95 -44.62,-61.33 l -1.03,-1.4 -17.3,23.29"
       style="fill:#c69776;fill-opacity:1;fill-rule:nonzero;stroke:none;stroke-width:0.1"
       id="path252" />
    <path
       d="m 1459.51,676.65 c 0,0 -3.09,7.91 -8.59,7.93 0,0 3.07,1.11 5.71,-0.98 2.64,-2.09 2.88,-6.95 2.88,-6.95"
       style="fill:#c69776;fill-opacity:1;fill-rule:nonzero;stroke:none;stroke-width:0.1"
       id="path254" />
    <path
       d="m 1379.45,691.93 -4.91,-31.01 c 0,0 18.69,-15.01 29.58,-11.84 9.14,2.65 2.88,14.6 2.88,14.6 0,0 -4.87,16.56 -3.38,25.24 1.49,8.68 -24.17,3.01 -24.17,3.01"
       style="fill:#c69776;fill-opacity:1;fill-rule:nonzero;stroke:none;stroke-width:0.1"
       id="path256" />
    <path
       d="m 1382.97,682.56 c 4.68,-2.22 13.94,-5.23 21.15,-5.97 -0.69,4.35 -1.08,8.94 -0.5,12.33 0.69,4 -4.41,4.95 -10.09,4.81 -7.45,-0.63 -14.08,-1.8 -14.08,-1.8 l -0.95,-5.96 c 1.42,-1.49 2.91,-2.68 4.47,-3.41"
       style="fill:#c69776;fill-opacity:1;fill-rule:nonzero;stroke:none;stroke-width:0.1"
       id="path258" />
    <path
       d="m 1355.86,727.71 c -0.77,0 7.39,-34.65 20.02,-40.61 12.62,-5.96 31.45,-2.86 34.98,6.48 3.91,10.32 -10.34,45.67 -28.1,50.16 -17.76,4.49 -26.9,-16.03 -26.9,-16.03"
       style="fill:#c69776;fill-opacity:1;fill-rule:nonzero;stroke:none;stroke-width:0.1"
       id="path260" />
    <path
       d="m 1370.47,759.55 c -10.08,-5.82 -14.71,-14.45 -16.27,-17.98 -4.73,-2.25 -10.46,-7.1 -13.21,-20.2 -3.38,-16.09 8.64,-28.5 21.38,-32.23 12.74,-3.73 14.71,-12.16 14.71,-12.16 l 1.45,9.07 c 0,0 -2.84,7.9 -7.1,11.86 -4.26,3.95 2.02,9.71 2.57,14.41 0.43,3.62 -2.24,10.65 -1.66,16.59 0,0 7.08,10.73 14.06,13.38 11.9,4.52 -2.99,24.72 -15.93,17.26"
       style="fill:#713b18;fill-opacity:1;fill-rule:nonzero;stroke:none;stroke-width:0.1"
       id="path262" />
    <path
       d="m 1375.84,706.29 c 1.65,-4 0.97,-7.98 -1.51,-8.88 -2.48,-0.89 -5.83,1.62 -7.48,5.62 -1.65,4 -0.98,7.98 1.51,8.88 2.48,0.9 5.83,-1.62 7.48,-5.62"
       style="fill:#c69776;fill-opacity:1;fill-rule:nonzero;stroke:none;stroke-width:0.1"
       id="path264" />
    <path
       d="m 1422.87,551.32 73.49,11.98 c 0,0 -8.36,21.05 -11.35,21.05 -2.99,0 -55.57,-22.96 -55.57,-22.96 l -4.18,-8.39 -2.39,-1.68"
       style="fill:#c69776;fill-opacity:1;fill-rule:nonzero;stroke:none;stroke-width:0.1"
       id="path266" />
    <path
       d="m 1385.23,500.93 c 0,0 -7.33,-35.44 -4.35,-62.32 2.99,-26.87 3.23,-122.33 3.23,-122.33 l -11.41,-152.74 27.05,-0.59 c 0,0 32.08,152.67 31.48,148.75 -0.59,-3.92 10.76,107.49 10.76,107.49 l -38.24,85.1 -18.52,-3.36"
       style="fill:#4c4766;fill-opacity:1;fill-rule:nonzero;stroke:none;stroke-width:0.1"
       id="path268" />
    <path
       d="m 1392.4,502.61 c 0,0 -4.78,-31.91 1.19,-45.91 5.98,-14 51.25,-151.33 51.85,-162.52 0.6,-11.2 15.65,-134.96 15.65,-134.96 l 31.45,0.88 6.81,137.6 -14.25,172.94 -13.83,43.73 -78.87,-11.76"
       style="fill:#282340;fill-opacity:1;fill-rule:nonzero;stroke:none;stroke-width:0.1"
       id="path270" />
    <path
       d="m 1374.54,660.92 c 0,0 7.76,-5.09 14.99,-4.5 7.24,0.58 17.47,7.26 17.47,7.26 l -1.43,4.82 c 0,0 -18.71,2.73 -19.18,2.43 -0.47,-0.29 -11.85,-10.01 -11.85,-10.01"
       style="fill:#c69776;fill-opacity:1;fill-rule:nonzero;stroke:none;stroke-width:0.1"
       id="path272" />
    <path
       d="m 1457.21,585.39 c 0,0 27.8,-26.24 40.35,-21.76 12.55,4.48 17.74,19.79 -12.88,42.19 -27.4,20.05 -27.47,-20.43 -27.47,-20.43"
       style="fill:#c69776;fill-opacity:1;fill-rule:nonzero;stroke:none;stroke-width:0.1"
       id="path274" />
    <path
       d="m 1476.05,553 c -4.13,22.46 -34.06,92.37 -36.45,105.25 -1.16,6.26 -17.31,6.4 -32.68,5.58 -16.24,-0.86 -32.38,-2.91 -32.38,-2.91 0,0 -14.38,-2.37 -20.7,-8.29 -6.33,-5.93 -8.01,-22.32 1.08,-53.44 7.18,-24.57 16.08,-38.06 20.49,-55.95 0.89,-6 1.65,-11.92 2.67,-18.84 1.61,-26.76 -0.02,-62.1 -0.02,-62.1 0,0 78.27,-16.24 107.55,8.4 0,0 -5.33,59.28 -9.56,82.3"
       style="fill:#f5f1e2;fill-opacity:1;fill-rule:nonzero;stroke:none;stroke-width:0.1"
       id="path276" />
    <path
       d="m 1496,601.3 c 0,0 -30.71,-25.35 -32.5,-25.35 -1.15,0 -43.83,31.39 -53.68,57.18 -5.44,14.26 5.98,30.21 19.02,30.16 9.05,-0.04 13.07,-2.37 30.99,-17.48 17.93,-15.12 36.17,-44.51 36.17,-44.51"
       style="fill:#fffef9;fill-opacity:1;fill-rule:nonzero;stroke:none;stroke-width:0.1"
       id="path278" />
    <path
       d="m 955.719,1732.97 c 5.033,12.11 10.153,24.25 23.211,30.38 10.568,4.96 21.61,3.09 31,-3.97 26.61,-20 3.42,-42.05 33.71,-79.99 9.41,-11.79 20.8,-21.31 26.44,-35.12 7.89,-19.34 -1.51,-28.62 -16.58,-37.88 -72.086,-44.32 -109.875,46.66 -108.519,67.48 1.01,15.48 7.498,51.3 10.738,59.1"
       style="fill:#5a3e1e;fill-opacity:1;fill-rule:nonzero;stroke:none;stroke-width:0.1"
       id="path280" />
    <path
       d="m 880.903,1497.15 c 3.04,0.48 10.421,5.77 13.027,6.25 2.02,0.37 6.387,1.03 8.248,1.31 2.28,8.52 13.859,54.93 15.156,68.54 1.405,14.74 11.828,78.51 11.828,78.51 l 26.991,-4.91 c 0,0 -11.209,-49.06 -14.309,-72.84 -2.661,-20.43 -25.078,-66.37 -27.928,-71.22 -0.004,-0.11 -0.005,-0.23 -0.013,-0.35 -0.434,-7.21 -3.907,-4.81 -3.907,-4.81 l -5.645,-1.44 c 0,0 -19.974,-1.92 -21.277,-2.4 -1.302,-0.48 -5.21,2.88 -2.171,3.36"
       style="fill:#e79875;fill-opacity:1;fill-rule:nonzero;stroke:none;stroke-width:0.1"
       id="path282" />
    <path
       d="m 952.697,1689.03 c -19.081,-6.47 -29.93,-58.34 -29.93,-58.34 0,0 29.936,-8.35 37.606,-3.97 0,0 8.706,38.59 11.825,37.24 l -19.501,25.07"
       style="fill:#6053a1;fill-opacity:1;fill-rule:nonzero;stroke:none;stroke-width:0.1"
       id="path284" />
    <path
       d="m 805.103,1407.53 c -5.839,-15.4 -8.868,-30.23 -9.141,-32.02 -0.131,-0.87 1.087,-5.05 0.974,-5.95 -11.72,-15.98 -28.563,-19.48 -43,-20.5 7.358,7.18 18.163,13.99 18.682,16.27 0.826,3.62 5.271,19.74 7.457,42.09 8.98,-4.16 15.073,-0.86 25.028,0.11"
       style="fill:#e79875;fill-opacity:1;fill-rule:nonzero;stroke:none;stroke-width:0.1"
       id="path286" />
    <path
       d="m 971.16,1579.79 25.787,-72.63 c 0,0 -41.438,-7.8 -56.93,-10.64 -15.491,-2.84 -102.047,-6.62 -104.24,-8.16 -1.628,-1.14 -19.508,-58.97 -27.495,-90.85 -9.061,-2 -24.571,0.4 -32.822,3.24 4.458,45.63 20.56,117.91 25.716,125.78 8.397,12.81 169.984,53.26 169.984,53.26"
       style="fill:#68b77a;fill-opacity:1;fill-rule:nonzero;stroke:none;stroke-width:0.1"
       id="path288" />
    <path
       d="m 870.426,1375.69 c -2.85,-16.21 -3.046,-31.35 -2.977,-33.16 0.032,-0.88 2.013,-4.76 2.07,-5.66 -8.517,-17.9 -24.406,-24.49 -38.397,-28.2 5.882,8.44 15.22,17.15 15.304,19.48 0.133,3.71 1.477,20.39 -0.564,42.74 9.6,-2.39 14.969,1.98 24.564,4.8"
       style="fill:#e79875;fill-opacity:1;fill-rule:nonzero;stroke:none;stroke-width:0.1"
       id="path290" />
    <path
       d="m 1001.26,1576.02 10.01,-17.08 c 15.22,-26.01 3.55,-59.47 -24.547,-70.37 -0.152,-0.06 -0.302,-0.12 -0.449,-0.18 -14.684,-5.69 -98.998,-25.63 -100.864,-27.55 -1.386,-1.42 -8.112,-61.58 -9.982,-94.4 -8.527,-3.65 -24.211,-4.21 -32.848,-2.96 -4.171,45.65 -1.9,119.67 1.69,128.37 5.847,14.16 156.99,84.17 156.99,84.17"
       style="fill:#9bd7a8;fill-opacity:1;fill-rule:nonzero;stroke:none;stroke-width:0.1"
       id="path292" />
    <path
       d="m 866.156,1342.02 c 2.245,2.48 10.487,-11.17 12.546,-14.08 2.316,-3.27 1.657,-5.74 1.38,-6.25 -0.731,-1.35 -44.191,-26.92 -54.79,-28.74 -1.001,-0.17 -2.736,0.46 -3.173,0.84 -4.142,3.67 14.924,30.75 23.486,34.3 5.533,2.3 10.452,2.78 20.551,13.93"
       style="fill:#e06d9a;fill-opacity:1;fill-rule:nonzero;stroke:none;stroke-width:0.1"
       id="path294" />
    <path
       d="m 794.575,1375.02 c 2.67,2.01 8.209,-12.94 9.686,-16.18 1.662,-3.65 0.552,-5.96 0.183,-6.41 -0.971,-1.19 -48.453,-18.16 -59.205,-17.96 -1.015,0.02 -2.601,0.97 -2.957,1.43 -3.383,4.37 20.42,27.4 29.496,29.29 5.867,1.22 10.787,0.76 22.797,9.83"
       style="fill:#e06d9a;fill-opacity:1;fill-rule:nonzero;stroke:none;stroke-width:0.1"
       id="path296" />
    <path
       d="m 970.792,1689.18 v 0 h -10e-4 c -0.493,0 -1.2,0.17 -1.924,0.4 -3.543,0.63 -11.29,1.56 -17.319,-0.98 -7.332,-3.09 -18.694,-32 -18.018,-61.66 0.272,-4.54 0.547,-8.6 0.781,-11.43 1.851,-22.41 8.28,-64.46 8.627,-64.69 8.746,-5.63 61.512,16.2 65.142,20.99 3.63,4.8 5.77,63.05 7.53,65.95 l 3.47,50.66 c -6.12,1.82 -38.906,0.83 -48.288,0.76"
       style="fill:#897fbd;fill-opacity:1;fill-rule:nonzero;stroke:none;stroke-width:0.1"
       id="path298" />
    <path
       d="m 992.178,1707.84 c 0,0 -3.398,-17.57 -2.718,-24.51 0.68,-6.93 -2.591,-29.27 -17.264,-29.34 -14.673,-0.08 -2.786,28.4 -1.404,35.19 1.382,6.8 1.709,27.82 1.709,27.82 l 19.677,-9.16"
       style="fill:#e79875;fill-opacity:1;fill-rule:nonzero;stroke:none;stroke-width:0.1"
       id="path300" />
    <path
       d="m 972.198,1706.45 c 0.229,5.76 0.303,10.55 0.303,10.55 l 19.677,-9.16 c 0,0 -0.695,-3.6 -1.393,-8.17 -8.613,-1.73 -14.855,1.45 -18.587,6.78"
       style="fill:#e17f54;fill-opacity:1;fill-rule:nonzero;stroke:none;stroke-width:0.1"
       id="path302" />
    <path
       d="m 999.369,1756.34 c 0,0 7.581,-4.21 10.351,-13.32 2.78,-9.12 -0.38,-32.64 -19.966,-38.32 -19.586,-5.68 -28.07,12.95 -24.036,27.51 4.033,14.57 12.808,33.01 33.651,24.13"
       style="fill:#e79875;fill-opacity:1;fill-rule:nonzero;stroke:none;stroke-width:0.1"
       id="path304" />
    <path
       d="m 963.268,1737.86 c 0.384,-3.91 2.542,-6.9 4.821,-6.68 2.279,0.22 3.814,3.58 3.431,7.49 -0.384,3.91 -2.542,6.9 -4.821,6.68 -2.278,-0.23 -3.814,-3.58 -3.431,-7.49"
       style="fill:#e79875;fill-opacity:1;fill-rule:nonzero;stroke:none;stroke-width:0.1"
       id="path306" />
    <path
       d="m 997.073,1757.53 c 0,0 3.547,-26.24 12.037,-30.98 8.48,-4.74 4.93,-16.38 4.93,-16.38 0,0 7.7,27.04 0.99,35.72 -6.71,8.68 -17.957,11.64 -17.957,11.64"
       style="fill:#6e4b25;fill-opacity:1;fill-rule:nonzero;stroke:none;stroke-width:0.1"
       id="path308" />
    <path
       d="m 1004.08,1722.78 c -2.3,-3.42 -2.29,-7.45 0.02,-9 2.31,-1.56 6.05,-0.05 8.35,3.37 2.3,3.42 2.3,7.45 -0.02,9.01 -2.31,1.55 -6.05,0.04 -8.35,-3.38"
       style="fill:#e79875;fill-opacity:1;fill-rule:nonzero;stroke:none;stroke-width:0.1"
       id="path310" />
    <path
       d="m 975.547,1721.32 13.804,-3.47 c 0,0 -1.659,-5.24 -7.775,-3.89 -7.457,1.64 -6.029,7.36 -6.029,7.36"
       style="fill:#ffffff;fill-opacity:1;fill-rule:nonzero;stroke:none;stroke-width:0.1"
       id="path312" />
    <path
       d="m 1044.08,1499.34 c 0.66,0.03 59.51,2.99 59.51,2.99 0,0 -24.42,-17.55 -24.92,-17.55 -0.5,0 -19.45,7.48 -20.28,7.48 -0.83,0 -14.31,7.08 -14.31,7.08"
       style="fill:#50bfa5;fill-opacity:1;fill-rule:nonzero;stroke:none;stroke-width:0.1"
       id="path314" />
    <path
       d="m 2235.53,168.67 1.17,-20.68 c 0.43,-2.62 2.12,-9.1 2.12,-11.48 0,-8.95 -39.71,7.6 -30.81,11.56 0.8,0.36 5.02,3.08 5.29,6.12 0.41,4.7 1.44,14.19 1.44,14.19 l 20.79,0.29"
       style="fill:#f4b4b4;fill-opacity:1;fill-rule:nonzero;stroke:none;stroke-width:0.1"
       id="path316" />
    <path
       d="m 2207.63,147.98 c 0,0 9.32,-2.73 14.09,-3.42 4.78,-0.68 11.07,5.08 14.45,3.52 3.72,-1.71 3.57,-17.13 3.57,-17.13 0,0 -49.99,-4.39 -64.05,0.15 -5.57,1.8 12.88,10.51 31.94,16.88"
       style="fill:#8b8675;fill-opacity:1;fill-rule:nonzero;stroke:none;stroke-width:0.1"
       id="path318" />
    <path
       d="m 2301.65,169.74 1.18,-20.68 c 0.42,-2.62 2.11,-9.1 2.11,-11.48 0,-8.95 -39.71,7.6 -30.81,11.56 0.81,0.36 6.28,5.1 6.54,8.15 0.41,4.69 0.2,12.16 0.2,12.16 l 20.78,0.29"
       style="fill:#f4b4b4;fill-opacity:1;fill-rule:nonzero;stroke:none;stroke-width:0.1"
       id="path320" />
    <path
       d="m 2274.23,149.23 c 0,0 9.32,-2.74 14.1,-3.42 4.77,-0.69 11.07,5.07 14.44,3.52 3.72,-1.72 3.87,-17.14 3.87,-17.14 0,0 -49.64,-2.04 -64.35,0.15 -5.78,0.86 12.88,10.51 31.94,16.89"
       style="fill:#8b8675;fill-opacity:1;fill-rule:nonzero;stroke:none;stroke-width:0.1"
       id="path322" />
    <path
       d="m 2289.88,497.6 c 0,0 6.73,-34.82 3.98,-61.23 -2.74,-26.4 -2.95,-120.19 -2.95,-120.19 l 12.65,-150.01 -27.02,-0.63 c 0,0 -29.44,149.99 -28.9,146.14 0.55,-3.85 -9.87,105.61 -9.87,105.61 l 35.1,83.61 17.01,-3.3"
       style="fill:#6053a1;fill-opacity:1;fill-rule:nonzero;stroke:none;stroke-width:0.1"
       id="path324" />
    <path
       d="m 2280.46,520.08 c 0,0 30.49,-32.11 19.15,-67.18 -4.56,-14.09 -47.04,-148.68 -47.59,-159.68 -0.55,-11 -14.37,-132.59 -14.37,-132.59 l -28.87,0.87 -6.25,135.19 8.25,182.15 17.53,30.72 52.15,10.52"
       style="fill:#897fbd;fill-opacity:1;fill-rule:nonzero;stroke:none;stroke-width:0.1"
       id="path326" />
    <path
       d="m 2095.37,624.6 c 9.99,11.14 31.71,26.99 31.71,26.99 0,0 12.95,11.05 18.22,12.87 7.77,2.68 21.07,9.82 40.32,-19.34 13.76,-20.87 100.65,-128.92 114.91,-132.55 l -93.14,-44.56 c -2.55,21.28 -48.58,61.49 -55.2,68.99 -14.81,16.76 -66.27,77.05 -56.82,87.6"
       style="fill:#30683d;fill-opacity:1;fill-rule:nonzero;stroke:none;stroke-width:0.1"
       id="path328" />
    <path
       d="m 2099.72,669.87 29.01,-16.98 c 0,0 0.82,-24.77 -8.67,-31.2 -7.96,-5.4 -14.01,7.56 -14.01,7.56 0,0 -10.79,14.95 -18.99,19.6 -8.19,4.66 12.66,21.02 12.66,21.02"
       style="fill:#f4b4b4;fill-opacity:1;fill-rule:nonzero;stroke:none;stroke-width:0.1"
       id="path330" />
    <path
       d="m 2104.58,658.97 c -1.09,-5.17 -3.61,-12.64 -7.53,-18.79 -3.19,3.46 -6.79,6.85 -9.99,8.67 -3.78,2.15 -1.37,6.79 2.31,11.17 5.21,5.42 10.35,9.85 10.35,9.85 l 5.57,-3.26 c 0.36,-2.12 -0.34,-5.92 -0.71,-7.64"
       style="fill:#f09999;fill-opacity:1;fill-rule:nonzero;stroke:none;stroke-width:0.1"
       id="path332" />
    <path
       d="m 2084.6,712.44 c 0.49,0.6 24.34,-29.09 21.4,-43.01 -2.94,-13.93 -17.36,-26.63 -27.38,-23.14 -11.08,3.87 -31.69,38.82 -24.3,55.79 7.39,16.96 30.28,10.36 30.28,10.36"
       style="fill:#f4b4b4;fill-opacity:1;fill-rule:nonzero;stroke:none;stroke-width:0.1"
       id="path334" />
    <path
       d="m 2058.49,721.8 c 10.4,5.79 27.36,7.45 40.03,0.81 15.58,-8.15 19.13,-28.68 14.25,-41.2 -4.88,-12.52 0.71,-19.59 0.71,-19.59 l -8.27,4.82 c 0,0 -4.83,7.54 -5.46,13.54 -0.63,6.01 -9.39,4.94 -13.66,7.67 -3.3,2.1 -7.5,8.91 -12.83,12.45 0,0 -13.41,1.64 -20.01,-2.06 -11.25,-6.31 -9.65,15.28 5.24,23.56"
       style="fill:#f2e67d;fill-opacity:1;fill-rule:nonzero;stroke:none;stroke-width:0.1"
       id="path336" />
    <path
       d="m 2092.79,682.84 c -0.08,-4.45 2.03,-8.09 4.7,-8.14 2.68,-0.04 4.9,3.53 4.98,7.99 0.08,4.45 -2.03,8.1 -4.7,8.14 -2.67,0.04 -4.9,-3.53 -4.98,-7.99"
       style="fill:#f4b4b4;fill-opacity:1;fill-rule:nonzero;stroke:none;stroke-width:0.1"
       id="path338" />
    <path
       d="m 2068.36,659.21 12.63,9.44 c 0,0 3.34,-5.11 -2.09,-9.42 -6.63,-5.26 -10.54,-0.02 -10.54,-0.02"
       style="fill:#ffffff;fill-opacity:1;fill-rule:nonzero;stroke:none;stroke-width:0.1"
       id="path340" />
    <path
       d="m 2036.65,471.39 c 3.16,4.62 4.54,11.29 8.92,16.38 1.46,1.71 3.8,3.63 6.46,5.55 21.04,12.31 75.84,44.04 77.97,46.5 2.53,2.92 39.93,65.06 39.93,65.06 l -33.59,7.61 -32.83,-57.97 c -2.74,-2.17 -54.85,-40.69 -54.85,-40.69 0,0 -10.36,-8.09 -16.03,-11.88 -2.86,-1.67 -5.63,-2.75 -8.06,-3.6 -3.06,-1.06 -8.88,-3.97 -10.06,-5 -1.37,-1.21 -4.11,-3.78 -5.74,-5.35 -1.63,-1.58 -3.6,-3.35 -4.36,-4.29 -0.47,-0.57 -1.91,-1.35 -2.96,-1.88 -1.58,-0.78 -1.37,-3.11 0.32,-3.59 1.59,-0.45 3.75,0.55 5.08,1.17 3.78,1.78 8.39,6.56 8.63,5.98 0.24,-0.59 -4.44,-10.84 -4.9,-12.05 -0.45,-1.21 -5.83,-13.16 -6.11,-15.82 -0.27,-2.67 1.33,-3.28 2.53,-2.31 1.03,0.84 9.67,16.8 9.67,16.8 0,0 1.11,2.03 1.54,0.87 0.43,-1.17 -7.39,-15.67 -8.16,-18.05 -0.76,-2.38 -0.15,-4.33 2.05,-3.5 2.68,1.02 10.07,17.01 10.07,17.01 0,0 0.96,1.99 1.62,1.3 0.65,-0.69 -6.2,-12.92 -6.28,-14.33 -0.08,-1.41 1.2,-2.8 3.05,-1.62 2.17,1.39 8.65,15.72 8.65,15.72 0,0 0.8,0.95 1.05,0.28 0.25,-0.66 -4.85,-11.51 -4.47,-13.09 0.32,-1.33 1.52,-1.06 1.52,-1.06 2.67,0 6.18,11.23 9.34,15.85"
       style="fill:#f4b4b4;fill-opacity:1;fill-rule:nonzero;stroke:none;stroke-width:0.1"
       id="path342" />
    <path
       d="m 2160.73,572.05 c 0,0 -10.94,3.48 -17.95,6.7 -4.7,2.15 -25.2,12.35 -25.2,12.35 0,0 8.84,37.28 14.81,50.69 21.93,49.19 46.84,15.26 50.22,7.35 7.57,-17.68 -21.88,-77.09 -21.88,-77.09"
       style="fill:#254a2d;fill-opacity:1;fill-rule:nonzero;stroke:none;stroke-width:0.1"
       id="path344" />
    <path
       d="m 1396.61,700.87 10.41,7.79 c 0,0 2.76,-4.21 -1.72,-7.77 -5.46,-4.34 -8.69,-0.02 -8.69,-0.02"
       style="fill:#ffffff;fill-opacity:1;fill-rule:nonzero;stroke:none;stroke-width:0.1"
       id="path346" />
    <path
       d="m 1104.94,1502.39 c -0.25,0.63 -0.8,0.64 -1.36,0.66 -5.46,0.16 -10.92,0.41 -16.33,1.22 -0.91,0.13 -1.8,0.34 -2.63,0.67 -1.51,0.6 -2.99,0.59 -4.52,0.16 -0.82,-0.22 -1.66,-0.27 -2.51,-0.26 -2.74,0.01 -10.58,2.68 -14.6,3.38 -0.92,0.16 -1.65,0.85 -1.88,1.76 -3.96,15.66 -12.45,50.79 -13.55,62.35 -1.41,14.77 -11.61,81.39 -11.61,81.39 l -27.3,-7.62 c 0,0 11.23,-49.17 14.34,-73.01 2.4,-18.41 20.8,-57.48 26.57,-68.71 2.81,-8.36 9.14,-8.6 10.6,-8.78 0.84,-0.1 1.62,-0.51 2.17,-1.16 0.99,-1.16 2.13,-2.17 3.44,-2.99 0.97,-0.61 1.71,-1.41 2.35,-2.34 1.16,-1.69 2.2,-3.46 3.23,-5.24 0.68,-1.17 1.39,-1.55 2.4,-1.27 1.08,0.3 1.6,1.1 1.58,2.42 -0.03,1.95 -0.66,3.71 -1.63,5.38 -0.92,1.55 -0.85,2.46 0.21,3.89 0.62,0.83 1.25,1.63 2.05,2.28 0.82,0.67 1.69,1.17 2.8,1.02 1.96,-0.49 3.94,-0.89 5.95,-1.11 l 1.65,-0.34 0.9,-0.19 c 0.14,-0.03 3.05,-0.35 4.04,-0.35 0.8,-0.01 2.09,-0.06 3.19,-0.11 1,-0.05 3.11,0.47 3.18,0.47 0.97,0.02 1.83,0.37 2.55,1.02 0.29,0.27 0.58,0.57 0.43,1.02 -0.14,0.42 -0.46,0.59 -0.89,0.67 -0.65,0.12 -4.04,0.53 -4.01,0.67 1.01,0 4.16,0.08 5.17,0.1 1.36,0.04 2.53,0.53 3.47,1.53 0.37,0.4 0.8,0.79 0.55,1.42"
       style="fill:#e79875;fill-opacity:1;fill-rule:nonzero;stroke:none;stroke-width:0.1"
       id="path350" />
    <path
       d="m 1019.41,1688.53 c 13.47,2.45 24.59,-57.84 24.59,-57.84 0,0 -29.94,-8.35 -37.61,-3.97 0,0 -8.705,38.59 -11.825,37.24 l 24.845,24.57"
       style="fill:#9c94c8;fill-opacity:1;fill-rule:nonzero;stroke:none;stroke-width:0.1"
       id="path352" />
    <path
       d="m 693.625,604.97 c 0.892,2.56 -11.534,4.62 -12.195,7.2 -0.662,2.59 15.689,2.79 16.274,5.06 1.079,4.18 -17.921,0.88 -17.547,2.84 0.375,1.95 19.8,6.32 17.7,9.68 -2.1,3.36 -19.669,-6.63 -20.202,-4.36 -0.531,2.28 17.175,7.82 16.858,12.82 -0.169,2.67 -29.061,-13.31 -32.412,-11.86 -3.351,1.45 3.604,13.99 0.936,15.86 -2.668,1.86 -10.325,-25.5 -12.166,-26.41 -1.835,-0.91 -40.872,-23.19 -54.761,-26.73 -1.686,4.65 -5.332,10.92 -6.82,15.32 -7.793,-5.54 -13.579,-8.33 -21.622,-13.38 5.827,-14.6 14.12,-30.59 18.18,-32.43 12.36,-5.58 60.164,34.07 69.706,40.85 9.55,6.79 15.016,4.59 21.474,6.74 6.457,2.14 15.705,-3.75 16.597,-1.2"
       style="fill:#512f22;fill-opacity:1;fill-rule:nonzero;stroke:none;stroke-width:0.1"
       id="path354" />
    <path
       d="m 566,584 c 0,0 -10.7,47.25 -8.844,60.96 1.856,13.71 18.149,26.48 29.438,21.75 C 597.883,661.96 603,596 603,596 l -37,-12"
       style="fill:#e06d9a;fill-opacity:1;fill-rule:nonzero;stroke:none;stroke-width:0.1"
       id="path356" />
  </g>
</svg>
