<svg width="361" height="231" xmlns="http://www.w3.org/2000/svg" xmlns:xlink="http://www.w3.org/1999/xlink" overflow="hidden"><defs><clipPath id="clip0"><rect x="725" y="238" width="361" height="231"/></clipPath></defs><g clip-path="url(#clip0)" transform="translate(-725 -238)"><path d="M931.192 239 948.564 239.192C954.189 239.376 959.817 239.453 965.439 239.744 966.925 239.821 968.155 240.003 969.879 240.295 971.604 240.588 973.641 240.672 975.787 241.5 977.934 242.327 981.526 242.913 982.757 245.261 983.988 247.608 983.692 251.263 983.174 255.585 982.656 259.906 980.977 265.739 979.649 271.191 978.321 276.642 976.688 282.868 975.208 288.294 973.728 293.719 972.851 298.626 971.81 303.223 970.769 307.821 970.005 311.366 968.964 315.879 967.924 320.392 966.598 325.886 965.566 330.3 964.534 334.714 963.832 337.04 962.774 342.361 961.717 347.681 960.628 354.774 959.222 362.222 957.816 369.67 955.965 378.773 954.337 387.049 953.077 393.455 952.893 400.861 952.561 407.462L952.117 410.772C951.916 412.268 951.503 413.708 951.229 415.186 951.059 416.099 950.909 417.019 950.785 417.944 950.508 420.003 949.999 424.933 949.897 426.771 949.693 430.445 949.601 434.127 949.453 437.805 949.749 439.093 949.859 440.47 950.341 441.667 951.525 444.61 955.129 444.038 957.002 444.426 957.446 443.506 957.772 442.482 958.334 441.667 960.525 438.492 959.086 442.728 960.11 438.909 962.73 434.568 960.295 439.001 962.33 433.943 962.569 433.35 962.936 432.851 963.219 432.288 963.676 431.379 964.165 430.489 964.551 429.53 965.081 428.211 965.499 426.548 965.883 425.116 966.975 423.759 967.871 422.934 968.547 421.254 968.904 420.368 969.139 419.415 969.435 418.496 970.027 417.576 970.668 416.702 971.212 415.737 971.707 414.859 972.026 413.837 972.544 412.979 972.921 412.355 973.499 411.948 973.876 411.324 974.394 410.466 974.678 409.412 975.208 408.565 975.722 407.744 976.52 407.224 976.984 406.358 977.427 405.534 977.516 404.486 977.873 403.6 978.729 401.471 979.421 400.483 980.537 398.634 981.53 396.99 982.017 394.956 982.757 393.117 987.766 386.894 981.937 394.953 984.978 388.152 985.384 387.243 986.24 386.766 986.754 385.945 987.284 385.099 987.642 384.106 988.086 383.187 990.657 380.791 989.531 382.354 991.195 378.221 992.042 376.115 993.563 374.543 994.747 372.704 995.825 371.03 996.408 368.932 997.411 367.187 997.898 366.341 998.643 365.77 999.188 364.98 1002.9 359.604 996.788 367.41 1001.41 361.67 1004.69 357.59 1005.74 352.074 1008.07 347.326 1012.83 337.603 1010.91 345.246 1012.51 336.292 1014.35 334.004 1014.73 333.686 1016.51 330.223 1016.76 329.732 1016.8 329.12 1016.95 328.568 1017.25 328.016 1017.52 327.443 1017.84 326.913 1018.41 325.971 1019.07 325.119 1019.61 324.154 1020.11 323.276 1020.53 322.333 1020.95 321.396 1021.27 320.677 1021.4 319.808 1021.83 319.189 1026.03 313.234 1022.38 321.154 1025.39 313.672L1027.16 312.017C1027.69 311.523 1027.76 310.546 1028.05 309.81 1029.53 306.142 1029.59 305.695 1031.16 302.638 1031.73 301.519 1032.22 300.313 1032.94 299.328 1033.57 298.452 1034.56 298.04 1035.16 297.121 1036.32 295.308 1036.52 293.67 1036.93 291.604 1038.94 289.115 1038.92 289.427 1040.49 286.087 1040.99 285.021 1041.31 283.834 1041.82 282.777 1042.2 281.988 1042.79 281.373 1043.15 280.57 1043.54 279.704 1043.7 278.71 1044.04 277.811 1044.59 276.318 1045.19 274.849 1045.81 273.398 1046.38 272.089 1046.95 270.786 1047.59 269.536 1047.99 268.76 1048.61 268.164 1048.92 267.329 1049.51 265.745 1049.26 263.597 1050.25 262.363 1052.02 260.169 1053.45 261.88 1054.7 262.915 1055.29 263.099 1055.91 263.168 1056.47 263.467 1057.83 264.192 1058.01 265.056 1059.14 266.225 1061.36 268.524 1059.73 265.95 1061.36 268.984 1062.93 270.285 1063.03 270.213 1064.46 272.294 1064.81 272.798 1065.06 273.398 1065.35 273.949 1067.74 274.937 1066 273.751 1067.57 277.259 1067.93 278.063 1068.54 278.668 1068.91 279.466 1069.14 279.971 1069.02 280.71 1069.35 281.121 1069.68 281.533 1070.38 281.226 1070.68 281.673 1071.19 282.434 1071.27 283.512 1071.57 284.432L1073.35 286.638C1075.51 289.327 1074.73 289.175 1075.57 291.604 1077.21 296.376 1075.86 291.584 1076.9 295.466L1078.23 297.121 1081.34 300.983C1082.33 302.21 1084.03 302.372 1084.89 303.741 1085.27 304.34 1084.56 305.202 1084.45 305.948 1084.26 307.228 1084.15 308.523 1084 309.81 1083.71 310.546 1083.35 311.247 1083.12 312.017 1081.92 315.966 1083.58 312.522 1081.78 316.43 1080.39 319.464 1081.46 316.837 1079.12 319.741 1078.74 320.21 1078.51 320.833 1078.23 321.396 1077.77 322.305 1077.34 323.235 1076.9 324.154 1076.16 324.89 1075.35 325.528 1074.68 326.361 1073.25 328.141 1074.4 328.165 1072.46 329.671 1069.55 331.928 1070.64 329.285 1069.79 332.43 1067.97 333.94 1067.54 334.144 1065.8 336.843 1065.38 337.486 1065.2 338.315 1064.91 339.05 1061.74 341.02 1064.28 338.945 1061.8 342.912 1061.29 343.733 1060.55 344.314 1060.02 345.119 1057.78 348.525 1058.11 347.822 1057.36 350.636 1056.77 351.188 1056.11 351.641 1055.58 352.291 1055.06 352.941 1054.73 353.8 1054.25 354.498 1053.84 355.091 1053.33 355.561 1052.92 356.153 1052.44 356.851 1052.11 357.71 1051.59 358.36 1051.06 359.01 1050.37 359.41 1049.81 360.015 1049.18 360.7 1048.63 361.486 1048.03 362.222 1046.99 363.522 1046.37 365.28 1045.37 366.636 1044.73 367.504 1043.77 367.956 1043.15 368.842 1042.71 369.461 1042.56 370.314 1042.26 371.049 1041.51 372.91 1039.84 373.929 1038.71 375.463 1037.67 376.876 1036.45 379.579 1035.6 380.98 1034.46 382.864 1033.33 384.761 1032.05 386.497 1031.69 386.986 1031.16 387.233 1030.72 387.6 1027.38 390.365 1027.84 391.366 1025.83 394.221 1025.28 395.004 1024.65 395.692 1024.06 396.427 1022.86 397.91 1021.96 399.715 1020.95 401.393 1020.63 401.923 1020.3 402.455 1020.06 403.048 1019.7 403.934 1019.47 404.887 1019.17 405.807 1018.73 406.358 1018.17 406.8 1017.84 407.462 1017.42 408.301 1017.25 409.301 1016.95 410.22 1016.21 412.511 1015.35 414.755 1014.29 416.841 1008.39 428.443 1014.01 414.868 1010.29 423.461 1009.66 424.909 1009.14 426.426 1008.51 427.875 1008.1 428.819 1007.59 429.689 1007.18 430.633 1006.55 432.081 1006.03 433.595 1005.4 435.047 1004.84 436.355 1004.16 437.583 1003.63 438.909 1003.27 439.795 1003.13 440.802 1002.74 441.667 1002.38 442.471 1001.82 443.109 1001.41 443.874 1000.93 444.766 1000.52 445.713 1000.08 446.633 999.255 448.331 998.978 450.358 998.299 452.15 997.791 453.491 997.057 454.686 996.523 456.012 996.314 456.532 996.288 457.147 996.079 457.667 995.84 458.26 995.456 458.746 995.191 459.322 994.863 460.036 994.688 460.86 994.303 461.529L993.943 461.977 987.57 462.144C973.141 463.291 963.482 468.377 951.626 467.978 935.817 467.446 924.982 462.66 908.996 459.469 893.01 456.278 882.352 445.11 855.708 448.832 852.378 449.298 848.487 450.026 844.193 450.962L841.502 451.613 841.31 447.31C841.22 445.15 841.148 443.33 841.101 442.219 838.39 437.728 840.821 442.547 839.325 434.495 839.205 433.849 838.654 433.446 838.437 432.84 838.057 431.777 837.845 430.633 837.549 429.53 836.957 428.61 836.226 427.805 835.772 426.771 835.324 425.75 835.204 424.554 834.884 423.461 834.612 422.53 834.292 421.622 833.996 420.703 833.404 419.967 832.734 419.317 832.22 418.496 831.327 417.069 830.676 415.134 830 413.53 828.678 410.397 827.276 407.315 826.003 404.151 825.647 403.266 825.584 402.194 825.115 401.393 820.103 392.83 824.003 401.94 821.562 395.876 818.602 392.933 819.934 394.589 817.566 390.911 816.641 389.475 815.15 388.778 814.013 387.6 813.37 386.934 812.867 386.079 812.237 385.394 811.68 384.788 810.943 384.437 810.461 383.738 810.03 383.114 809.869 382.267 809.573 381.532 806.718 379.403 807.87 380.734 806.02 377.67 805.452 376.728 804.54 376.198 803.8 375.463 802.32 373.992 800.902 372.418 799.359 371.049 797.342 369.259 797.043 370.315 794.475 368.842 793.505 368.287 793.248 368.362 791.81 366.636 790.372 364.909 788.082 362.185 785.848 358.485 785.451 357.827 782.337 354.682 782.041 353.946 779.167 351.09 780.491 352.572 778.044 349.533 777.108 348.37 775.619 348.188 774.492 347.326 773.685 346.709 773.012 345.855 772.271 345.119 770.24 344.488 770.195 344.702 768.275 342.912 767.772 342.444 767.454 341.711 766.943 341.257 766.404 340.779 765.745 340.553 765.166 340.154 764.412 339.633 763.637 339.142 762.946 338.499 762.444 338.03 762.083 337.362 761.614 336.843 760.75 335.889 759.838 335.005 758.95 334.085 757.877 332.974 757.613 330.803 756.729 329.671 755.846 328.54 754.462 328.184 753.648 327.297 752.834 326.409 752.615 324.99 751.845 324.346 751.074 323.702 749.618 324.17 749.026 323.435L747.404 321.295C746.462 320.905 745.628 318.637 744.74 318.086L741.187 315.879C740.438 315.414 740.003 314.408 739.411 313.672 738.523 312.568 737.581 311.528 736.746 310.362 736.029 309.359 735.43 307.642 734.97 306.5L733.638 305.396C732.329 304.312 731.88 303.71 731.418 301.985 730.826 301.434 728.969 299.857 728.39 299.035 727.812 298.213 728.511 298.547 727.946 297.054 727.381 295.56 725.148 292.832 725 290.073 726.515 285.368 727.953 283.901 729.097 282.225 730.241 280.549 731.179 280.662 731.862 280.018 732.544 279.374 732.785 278.955 733.194 278.363 733.676 277.665 734.003 276.806 734.526 276.156 734.904 275.687 735.448 275.477 735.858 275.053 737.862 272.978 736.418 273.788 738.523 272.294 739.097 271.886 739.79 271.717 740.299 271.191 740.709 270.766 740.891 270.087 741.187 269.536 744.095 268.091 743.422 267.723 744.558 266.777 745.694 265.831 746.784 264.812 748.002 263.86 749.221 262.909 750.579 261.89 751.872 261.068 753.164 260.246 753.863 259.679 755.76 258.928 757.657 258.178 761.035 256.747 763.255 256.563 764.258 256.652 767.523 259.242 768.982 260.257 770.441 261.273 770.647 261.662 772.009 262.656 773.371 263.651 776.002 265.355 777.156 266.225 778.31 267.096 778.34 267.329 778.932 267.881 779.82 268.248 780.759 268.464 781.597 268.984 782.552 269.577 783.02 270.298 784.261 271.191 785.503 272.084 786.754 272.844 789.045 274.343 789.586 274.696 792.11 276.508 792.698 276.708L795.807 277.811C796.991 277.995 797.772 279.302 798.734 279.658 799.696 280.015 800.809 279.767 801.58 279.951 802.35 280.135 801.877 280.06 803.356 280.762 804.835 281.464 808.643 284.433 810.453 284.163 812.263 283.893 813.752 281.58 814.214 279.14 814.676 276.701 813.594 272.376 813.226 269.526 812.857 266.676 811.888 264.042 812.002 262.037 812.115 260.033 812.78 258.827 813.905 257.499 815.03 256.171 816.906 255.275 818.751 254.069 820.597 252.862 821.625 251.607 822.895 250.778 824.164 249.948 825.537 249.661 826.366 249.089L830.888 246.916C833.93 245.846 839.346 243.211 843.368 242.152 847.39 241.093 852.197 239.479 855.022 240.564 857.846 241.649 858.269 246.04 860.316 248.662 862.362 251.284 864.61 254.693 866.467 259.404 868.324 264.114 869.54 269.299 871.46 276.924 873.379 284.548 876.38 298.357 877.986 305.151 879.591 311.946 880.111 313.628 881.094 317.692 882.077 321.757 882.877 323.573 883.886 329.537 885.07 333.951 887.145 339.169 888.616 342.361 890.087 345.552 891.233 346.941 892.713 348.688 894.193 350.435 895.943 352.567 897.497 352.843 899.736 351.916 900.868 350.326 902.247 348.271 903.626 346.216 904.417 344.257 905.772 340.514 907.127 336.77 909.312 328.72 910.375 325.809 911.438 322.899 911.869 324.175 912.151 323.051 912.639 321.112 912.447 319.005 912.595 316.982 912.891 315.511 913.244 314.056 913.483 312.569 913.881 310.098 914.119 308.757 914.257 308.068L914.333 307.735 914.346 307.912C914.39 307.916 914.472 307.227 914.395 307.463L914.333 307.735 914.324 307.617C914.325 307.401 914.339 307.049 914.372 306.5 914.633 302.105 914.672 291.917 915.051 286.202 915.43 280.486 916.093 276.917 916.646 272.208 917.199 267.499 917.933 261.062 918.368 257.95 918.803 254.838 918.568 255.829 919.256 253.536 919.945 251.243 921.381 246.37 922.5 244.191 923.619 242.012 924.523 241.328 925.971 240.463 927.42 239.598 929.795 239.12 931.192 239Z" fill="#C5E0B4" fill-rule="evenodd"/></g></svg>